<svg width="21" height="20" viewBox="0 0 21 20" fill="none" xmlns="http://www.w3.org/2000/svg">
<path d="M13.0157 11.6667H12.3523L12.1172 11.4417C12.9401 10.4917 13.4356 9.25833 13.4356 7.91667C13.4356 4.925 10.992 2.5 7.97737 2.5C4.96276 2.5 2.51917 4.925 2.51917 7.91667C2.51917 10.9083 4.96276 13.3333 7.97737 13.3333C9.32933 13.3333 10.5721 12.8417 11.5294 12.025L11.7561 12.2583V12.9167L15.9547 17.075L17.2059 15.8333L13.0157 11.6667ZM7.97737 11.6667C5.88646 11.6667 4.19861 9.99167 4.19861 7.91667C4.19861 5.84167 5.88646 4.16667 7.97737 4.16667C10.0683 4.16667 11.7561 5.84167 11.7561 7.91667C11.7561 9.99167 10.0683 11.6667 7.97737 11.6667Z" fill="#C2CFE0"/>
</svg>
