<svg xmlns="http://www.w3.org/2000/svg" width="480" height="320" viewBox="0 0 480 320"><g transform="translate(-8259.189 -1427.986)"><rect width="480" height="320" transform="translate(8259.189 1427.986)" fill="rgba(255,255,255,0)"/><path d="M932.088,317.038c120.034,0,103.326-285.328-106.081-285.328-214.5,0-225.374,285.328-147.383,285.328Z" transform="translate(7679.58 1418.031)" fill="#acffea" fill-rule="evenodd"/><path d="M910.64,152.765v-22.79a13.185,13.185,0,0,0-26.37,0v33.906h32.969V152.7Z" transform="translate(7779.117 1451.909)" fill="#8fd6ff" fill-rule="evenodd"/><path d="M826.991,283.156h72.146a13.227,13.227,0,0,0,13.185-13.171V129.971A13.213,13.213,0,0,1,925.507,116.8H826.991a13.213,13.213,0,0,0-13.171,13.171V269.985A13.227,13.227,0,0,0,826.991,283.156Z" transform="translate(7751.065 1451.913)" fill="#b8e6f5" fill-rule="evenodd"/><path d="M881.311,143.25H822.294a1.622,1.622,0,0,0-1.594,1.622h0a1.608,1.608,0,0,0,1.594,1.608h59.017a1.622,1.622,0,0,0,1.608-1.608h0a1.622,1.622,0,0,0-1.608-1.622Z" transform="translate(7753.804 1462.445)" fill="#8fd6ff" fill-rule="evenodd"/><path d="M881.311,151.7H822.294a1.608,1.608,0,0,0-1.594,1.608h0a1.608,1.608,0,0,0,1.594,1.608h59.017a1.608,1.608,0,0,0,1.608-1.608h0a1.622,1.622,0,0,0-1.608-1.608Z" transform="translate(7753.804 1465.809)" fill="#8fd6ff" fill-rule="evenodd"/><path d="M881.311,160.15H822.294a1.608,1.608,0,0,0-1.594,1.608h0a1.608,1.608,0,0,0,1.594,1.608h59.017a1.622,1.622,0,0,0,1.608-1.608h0a1.622,1.622,0,0,0-1.608-1.608Z" transform="translate(7753.804 1469.174)" fill="#8fd6ff" fill-rule="evenodd"/><path d="M881.311,168.6H822.294a1.622,1.622,0,0,0-1.594,1.608h0a1.608,1.608,0,0,0,1.594,1.608h59.017a1.622,1.622,0,0,0,1.608-1.608h0a1.622,1.622,0,0,0-1.608-1.608Z" transform="translate(7753.804 1472.539)" fill="#8fd6ff" fill-rule="evenodd"/><path d="M881.311,177.07H822.294a1.594,1.594,0,0,0-1.594,1.58h0a1.608,1.608,0,0,0,1.594,1.608h59.017a1.622,1.622,0,0,0,1.608-1.608h0a1.608,1.608,0,0,0-1.608-1.58Z" transform="translate(7753.804 1475.911)" fill="#8fd6ff" fill-rule="evenodd"/><path d="M879.7,130.6H823.912a3.216,3.216,0,0,0-3.2,3.216h0a3.216,3.216,0,0,0,3.2,3.188H879.7a3.216,3.216,0,0,0,3.216-3.188h0A3.216,3.216,0,0,0,879.7,130.6Z" transform="translate(7753.808 1457.408)" fill="#8fd6ff" fill-rule="evenodd"/><path d="M916.3,135v15.072a6.585,6.585,0,1,1-13.171,0V135Z" transform="translate(7786.626 1459.159)" fill="#d6f1fa" fill-rule="evenodd"/><path d="M794,230.111a13.2,13.2,0,0,0,13.185,13.171h99.831a13.213,13.213,0,0,1-13.171-13.171V216.94H794Z" transform="translate(7743.172 1491.787)" fill="#d6f1fa" fill-rule="evenodd"/><path d="M860.366,185.3a11.185,11.185,0,1,1-11.186,11.186A11.185,11.185,0,0,1,860.366,185.3Zm0,3.216a7.97,7.97,0,1,1-7.956,7.984,7.97,7.97,0,0,1,7.956-7.984Z" transform="translate(7765.145 1479.188)" fill="#8fd6ff" fill-rule="evenodd"/><path d="M874.84,183.99v8.361l2.307,1.454-2.307,1.412v32.774l2.307,1.412-2.307,1.44v3.412l2.307,1.44-2.307,1.44V256.4h45.287V183.99Z" transform="translate(7775.362 1478.667)" fill="#8fd6ff"/><path d="M927.434,243.762l1.944-1.244V203.061l-1.944-1.216,1.944-1.23V183.99H907.23V256.4h22.147V244.979Z" transform="translate(7788.259 1478.667)" fill="#48a3d8"/><path d="M910.567,195.53c-9.13,0-16.527.461-16.527,1.049s7.4,1.021,16.527,1.021,16.513-.433,16.513-1.021S919.7,195.53,910.567,195.53Z" transform="translate(7783.007 1483.262)" fill="#48a3d8"/><path d="M910.923,209.45c-6.544,0-11.843.447-11.843,1.021s5.3,1.035,11.843,1.035,11.829-.447,11.829-1.035S917.438,209.45,910.923,209.45Z" transform="translate(7785.014 1488.805)" fill="#8fd6ff"/><path d="M910.415,230.17c-6.516,0-11.815.475-11.815,1.049s5.3,1.063,11.815,1.063,11.857-.475,11.857-1.063S916.972,230.17,910.415,230.17Z" transform="translate(7784.823 1497.055)" fill="#8fd6ff"/><path d="M897.844,219.86c-8.655,0-15.674.475-15.674,1.049s6.991,1.063,15.674,1.063,15.674-.475,15.674-1.063S906.526,219.86,897.844,219.86Z" transform="translate(7778.281 1492.95)" fill="#d6f1fa"/><path d="M601.588,238.566a1.4,1.4,0,1,1,0-2.8h465.2a1.4,1.4,0,1,1,0,2.8Z" transform="translate(7666 1499.285)" fill="#b8e6f5"/><path d="M687.485,235.737c3.076-6.683-1.021-15.072-4.348-21.644-3.775-7.382-4.558-16.527-12.766-17.729-7.354-1.077-1.258-9.452-13.437-13.437s.252-16.778-12.793-20.973c-13.534-4.348-9.438-25.335-18.722-24.426-6.641.7,0,19.686,3.244,28.229,3.02,7.844-10.85,9.927,6.6,26.566,10.053,9.536,2.8,20.973,6.362,26.146,7.075,10.207,16.778,19.659,28.439,24.007C675.894,244.671,684.885,241.4,687.485,235.737Z" transform="translate(7674.914 1460.155)" fill="#d6f1fa" fill-rule="evenodd"/><path d="M670.639,234.568a.671.671,0,0,1-.615-.391l-8.571-17.226c-1.5-.28-4.586-1.035-7.816-1.832-3.607-.881-7.326-1.79-8.655-1.985a.706.706,0,0,1,.2-1.4c1.4.21,5.159,1.119,8.781,2.013,2.489.615,5.047,1.244,6.711,1.608l-9.661-19.379L643.5,194.86v-.7l.1-.685,6.655.993-9.046-18.176-4.768-.391-5.257-.433a.727.727,0,0,1-.643-.755.685.685,0,0,1,.755-.629l5.271.433,3.915.322-15.17-30.452a.685.685,0,0,1,.322-.923.671.671,0,0,1,.923.308l14.877,29.851c.266-1.077.517-2.167.769-3.258l1.258-5.3a.719.719,0,0,1,1.4.336l-1.258,5.285c-.378,1.622-.769,3.258-1.16,4.88l9.032,18.344q2.321-4.362,4.684-8.725a.691.691,0,0,1,1.216.657c-1.72,3.2-3.44,6.39-5.131,9.592l9.675,19.435c1.566-2.908,3.132-5.816,4.67-8.711a.685.685,0,0,1,.937-.294.713.713,0,0,1,.293.937c-1.692,3.2-3.411,6.39-5.145,9.592l8.557,17.17a.671.671,0,0,1-.307.923A.644.644,0,0,1,670.639,234.568Z" transform="translate(7675.974 1462.498)" fill="#ebfaff"/><path d="M649.34,184.867a45.679,45.679,0,0,1,17.282-43.344.965.965,0,0,1,1.1.8l3.468,21.91L663.349,170a.5.5,0,0,0-.14.657.517.517,0,0,0,.629.252l7.914-3.16,1.832,11.591-8.822,2.573a.531.531,0,0,0-.392.587.573.573,0,0,0,.559.447l9.186-.28,1.832,11.591-8.5-.559a.489.489,0,0,0-.517.419.5.5,0,0,0,.335.6l9.228,3.062,3.481,21.9a.965.965,0,0,1-.811,1.1,45.693,45.693,0,0,1-29.823-35.905Z" transform="translate(7685.348 1461.752)" fill="#b8e6f5" fill-rule="evenodd"/><path d="M702.542,199.93v16.555l-2.713,1.692,2.713,1.692v4.013l-2.713,1.72,2.713,1.692v22.762H649.02V199.93Z" transform="translate(7685.443 1485.014)" fill="#8fd6ff"/><path d="M632.635,235.108l-2.335-1.44V199.93h26.174v50.125H630.3V236.562Z" transform="translate(7677.989 1485.014)" fill="#48a3d8"/><path d="M652.642,212.94c7.746,0,13.982.559,13.982,1.244s-6.236,1.188-13.982,1.188-13.982-.517-13.982-1.188S644.9,212.94,652.642,212.94Z" transform="translate(7681.318 1490.194)" fill="#48a3d8"/><path d="M653.212,229.16c7.718,0,13.982.559,13.982,1.244s-6.278,1.216-13.982,1.216-13.982-.545-13.982-1.216S645.48,229.16,653.212,229.16Z" transform="translate(7681.545 1496.653)" fill="#8fd6ff"/><path d="M703.683,112.619a26.566,26.566,0,0,1,7.327,3.048l2.321-2.321a2.195,2.195,0,0,1,3.118,0l5.9,5.9a2.209,2.209,0,0,1,0,3.132l-2.293,2.307a27.04,27.04,0,0,1,3.048,7.34h3.244a2.209,2.209,0,0,1,2.223,2.2v8.389a2.223,2.223,0,0,1-2.223,2.181H723.1a27.324,27.324,0,0,1-3.048,7.327l2.293,2.321a2.2,2.2,0,0,1,0,3.118l-5.9,5.9a2.223,2.223,0,0,1-3.118,0l-2.321-2.307a26.567,26.567,0,0,1-7.326,3.048v3.272a2.223,2.223,0,0,1-2.223,2.2h-8.389a2.209,2.209,0,0,1-2.209-2.2V164.2a26.455,26.455,0,0,1-7.327-3.048l-2.335,2.307a2.209,2.209,0,0,1-3.1,0l-5.914-5.9a2.223,2.223,0,0,1,0-3.118l2.307-2.321a26.41,26.41,0,0,1-3.034-7.326h-3.272a2.223,2.223,0,0,1-2.223-2.182v-8.389a2.209,2.209,0,0,1,2.223-2.2h3.272a26.171,26.171,0,0,1,3.034-7.34l-2.279-2.349a2.237,2.237,0,0,1,0-3.132l5.914-5.9a2.181,2.181,0,0,1,3.1,0l2.335,2.321a26.452,26.452,0,0,1,7.326-3.048v-3.272a2.2,2.2,0,0,1,2.209-2.2h8.389a2.209,2.209,0,0,1,2.223,2.2Zm-6.39,16.107a9.675,9.675,0,1,1-9.7,9.675A9.675,9.675,0,0,1,697.293,128.726Z" transform="translate(7692.188 1448.054)" fill="#b8e6f5" fill-rule="evenodd"/><path d="M818.436,76.1a46.476,46.476,0,0,0-7.578-46.909.979.979,0,0,0-1.272.559l-6.11,15.464,6.991,9.382a.7.7,0,0,1,0,.909.713.713,0,0,1-.937.14l-8.389-4.824-5.3,13.423,8.711,5.593a.8.8,0,0,1,.307.895.741.741,0,0,1-.825.433L793.869,69.5,788.6,82.908l9.466,2.1a.727.727,0,0,1,.587.727.7.7,0,0,1-.643.685l-11.549,2.055-6.1,15.38a.993.993,0,0,0,.546,1.314,46.616,46.616,0,0,0,37.583-29.124Z" transform="translate(7737.71 1417)" fill="#b8e6f5" fill-rule="evenodd"/><path d="M772.3,116.189c14.681-2.083,2.88-19.323,27.964-26.831s3.929-22.609,38.254-32.718c14.765-4.362,24.454-18.889,29.586-15.981,5.593,3.16-3.551,15.17-12.584,24.077-12.234,12.108,10.095,22.007-10.193,38.674-21.966,18.051-13.982,30.271-21.658,40.729l-13.94,9Z" transform="translate(7734.532 1421.442)" fill="#d6f1fa" fill-rule="evenodd"/><path d="M781.649,133.537a.658.658,0,0,1-.447-.168.685.685,0,0,1-.084-.979l23.028-26.761q-.881-3.5-1.734-6.991c-.6-2.447-1.217-4.908-1.818-7.354a.719.719,0,0,1,1.4-.336c.615,2.461,1.216,4.908,1.818,7.368.5,2.013.993,4.027,1.5,6.054l18.358-21.336c0-2.335,0-4.67.112-6.991s.07-4.768.112-7.159a.685.685,0,0,1,.685-.685h0a.713.713,0,0,1,.685.7c0,2.4-.084,4.782-.112,7.173l-.084,5.341L843.141,60.44l11.717-13.618a.685.685,0,0,1,.979-.084.7.7,0,0,1,.084.979L844.19,61.349q-9.27,10.738-18.526,21.5l12.681,2.069a.7.7,0,0,1,.559.811.671.671,0,0,1-.8.559l-13.534-2.265L806.3,105.252l9.522.951a.7.7,0,0,1-.14,1.4l-10.486-1.049L782.166,133.3A.671.671,0,0,1,781.649,133.537Z" transform="translate(7737.977 1423.948)" fill="#ebfaff"/><path d="M715.772,304.1H827.543A14.122,14.122,0,0,0,841.636,290V78.284A14.122,14.122,0,0,0,827.543,64.19H715.772A14.15,14.15,0,0,0,701.65,78.284V290A14.15,14.15,0,0,0,715.772,304.1Z" transform="translate(7706.4 1430.964)" fill="#2c87ce" fill-rule="evenodd"/><path d="M715.582,280.137H822.572a7.41,7.41,0,0,0,7.382-7.41V84.908a7.41,7.41,0,0,0-7.382-7.368H715.582a7.4,7.4,0,0,0-7.382,7.368V272.727A7.4,7.4,0,0,0,715.582,280.137Z" transform="translate(7709.008 1436.28)" fill="#fefefe" fill-rule="evenodd"/><path d="M764.585,254.4h14.471c-.657-12.779-.937-30.592-1.622-49.468-.643-16.61-1.608-34.046-3.5-49.608-.475-3.957-.755-7.732-1.147-11.185-.769-6.46-24.664,5.131-24.664,5.131a8.208,8.208,0,0,0-1.189.084c.14.853,8.823,55.368,10.319,61.087C754.91,220.311,758.671,240.081,764.585,254.4Z" transform="translate(7724.434 1462.018)" fill="#195392"/><path d="M749.87,165.815c2.531,15.38,5.411,32.62,6.222,35.7,6.991-7.774,12.765-38.184,6.054-36.828A50.21,50.21,0,0,1,749.87,165.815Z" transform="translate(7725.601 1470.961)" fill="#113f70"/><path d="M738.045,252.877c8-24.342,29.753-71.531,31.333-100.949-2.489.182-8.906-1.286-13.031-2.167C749.37,148.237,742.17,146,742.17,146s-4.195,18.176-7.816,36.577c-1.832,9.228-3.551,18.54-4.53,25.7-6.068,8.934-6.683,29.362-4.992,44.588Z" transform="translate(7715.306 1463.54)" fill="#195392"/><path d="M747.823,68.87h31.347a2.265,2.265,0,0,1,2.279,2.279,2.363,2.363,0,0,1-.657,1.636,2.293,2.293,0,0,1-1.622.657H747.823a2.2,2.2,0,0,1-1.608-.657,2.335,2.335,0,0,1-.7-1.636,2.279,2.279,0,0,1,.7-1.608,2.209,2.209,0,0,1,1.608-.671Zm-10.375,0a2.265,2.265,0,0,1,2.293,2.279,2.286,2.286,0,0,1-3.915,1.636h0a2.363,2.363,0,0,1-.657-1.636,2.293,2.293,0,0,1,.657-1.608h0A2.307,2.307,0,0,1,737.449,68.87Zm.657,1.636a.938.938,0,0,0-.657-.252.867.867,0,0,0-.895.895.922.922,0,0,0,.252.657,1.021,1.021,0,0,0,.643.252.909.909,0,0,0,.909-.909,1.02,1.02,0,0,0-.252-.643Zm41.065-.252H747.823a.881.881,0,0,0-.643.252.91.91,0,0,0-.28.643.825.825,0,0,0,.28.629.909.909,0,0,0,.643.28h31.347a.965.965,0,0,0,.643-.28.811.811,0,0,0,.252-.629.88.88,0,0,0-.252-.643A.936.936,0,0,0,779.171,70.254Z" transform="translate(7719.747 1432.827)" fill="#48a3d8"/><rect width="55.886" height="11.116" transform="translate(8366.007 1723.953)" fill="#ffa833"/><path d="M679.148,227.83v11.116h-1.4V227.83Zm18.61,0v11.116h-1.4V227.83Zm18.624,0v11.116h-1.4V227.83Zm-9.3,0v11.116h-1.4V227.83Zm-18.652,0v11.116h-1.4V227.83Z" transform="translate(7696.883 1496.123)" fill="#f5cd56"/><rect width="55.886" height="11.116" transform="translate(8370.942 1712.838)" fill="#f5cd56"/><path d="M682.658,219.88v11.185h-1.4V219.88Zm37.262,0v11.185h-1.4V219.88Zm-9.3,0v11.185h-1.4V219.88Zm-9.312,0v11.185h-1.4V219.88Zm-9.326,0v11.185h-1.4V219.88Z" transform="translate(7698.281 1492.958)" fill="#ffa833"/><rect width="55.886" height="11.116" transform="translate(8366.007 1701.722)" fill="#ffa833"/><path d="M679.148,211.93v11.116h-1.4V211.93Zm37.234,0v11.116h-1.4V211.93Zm-9.3,0v11.116h-1.4V211.93Zm-9.326,0v11.116h-1.4V211.93Zm-9.326,0v11.116h-1.4V211.93Z" transform="translate(7696.883 1489.792)" fill="#f5cd56"/><path d="M693.873,227.929a28.09,28.09,0,1,0-28.1-28.094A28.09,28.09,0,0,0,693.873,227.929Z" transform="translate(7692.113 1473.793)" fill="#ffa833" fill-rule="evenodd"/><path d="M692.241,220.542a22.371,22.371,0,1,0-22.371-22.371A22.371,22.371,0,0,0,692.241,220.542Z" transform="translate(7693.746 1475.406)" fill="#f5cd56" fill-rule="evenodd"/><path d="M684.146,49.1h52.446a3.2,3.2,0,0,1,3.132,3.188v51.048L744,110.872a.937.937,0,0,1-.168,1.118.951.951,0,0,1-1.1.14l-7.55-4.278H684.146A3.188,3.188,0,0,1,681,104.664V52.288a3.2,3.2,0,0,1,3.188-3.188Z" transform="translate(7698.177 1424.955)" fill="#8fd6ff" fill-rule="evenodd"/><path d="M706.5,92.457A17.393,17.393,0,1,0,689.11,75.077,17.394,17.394,0,0,0,706.5,92.457Z" transform="translate(7701.407 1428.368)" fill="#fefefe" fill-rule="evenodd"/><path d="M722.592,60.437a.707.707,0,0,1,.993,1.007L704.919,80.068a.671.671,0,0,1-.979,0l-9.354-9.312a.7.7,0,1,1,1.007-.965l8.823,8.809Z" transform="translate(7703.495 1429.39)" fill="#195392" stroke="#195392" stroke-width="3"/><path d="M880.425,148.583l3.1-.252a1.566,1.566,0,0,0,1.4-1.692l-.657-8.179a1.552,1.552,0,0,0-1.706-1.4l-3.1.252a1.552,1.552,0,0,0-1.4,1.692l.671,8.179a1.538,1.538,0,0,0,1.692,1.4Z" transform="translate(7776.643 1459.977)" fill="#2c87ce" fill-rule="evenodd"/><path d="M893.379,223.025l-1.664,18.764a1.684,1.684,0,0,1-3.356.28l-4.74-18.176c8.263-10.612-.084-9.927,9.787-.8Z" transform="translate(7778.858 1491.448)" fill="#fefefe" fill-rule="evenodd"/><path d="M879.1,143.034l6.208-.531a2.587,2.587,0,0,1,2.8,2.363l9.158,111.24a2.587,2.587,0,0,1-2.363,2.8l-6.222.5a2.587,2.587,0,0,1-2.8-2.363L876.723,145.83a2.573,2.573,0,0,1,2.363-2.8Z" transform="translate(7776.107 1462.143)" fill="#2c87ce" fill-rule="evenodd"/><path d="M878.717,184.556a2.2,2.2,0,0,1-2.027,2.391,2.251,2.251,0,0,1-2.419-2.027l-2.657-32.55a4.921,4.921,0,0,1,1.1-3.5A4.753,4.753,0,0,1,876,147.21l6.208-.517a2.2,2.2,0,0,1,2.391,2.013,2.237,2.237,0,0,1-2.027,2.419l-6.222.5a.322.322,0,0,0-.252.126.335.335,0,0,0-.07.252Z" transform="translate(7774.072 1463.812)" fill="#2c87ce"/><path d="M880.659,192.87l11.353-.923.224,2.559-11.353.937Zm.419,5.117,11.353-.937.21,2.573-11.339.923Zm.447,5.1,11.339-.909.2,2.545-11.353.951Zm-1.286-15.38,11.353-.951.224,2.559-11.353.937Z" transform="translate(7777.512 1479.77)" fill="#2c87ce" fill-rule="evenodd"/><path d="M778.8,140.186c3.328.783,6.991,4.1,8.906,6.711,1.4,1.943,3.523.769,5.942,0s3.076-1.4,2.936-2.391c-.14-1.216-2.559-3.929-2.908-4.432a24.259,24.259,0,0,0-2.8-2.964c-3.048-2.083-5.593-2.531-9.074-3.523-12.682-3.775-16.778,3.356-3.076,6.571Z" transform="translate(7733.694 1458.169)" fill="#f09d69"/><path d="M787.975,134.58c-9.661-2.712-16.261-9.787-23.042-12.15l-12.094,9.787c-1.832,6.348,21.756,12.15,31.907,13.982,1.65.28,4.922-11.088,3.23-11.563Z" transform="translate(7726.743 1454.154)" fill="#113f70"/><path d="M778.257,131.75c1.5.615,2.559,1.119,4.195,1.832s-2.055,9.046-4.111,8.389a26.373,26.373,0,0,1-3.887-1.748c-1.049-.545,2.5-8.92,3.775-8.389Z" transform="translate(7735.314 1457.865)" fill="#b8e6f5"/><path d="M770.305,106.841c3.971,12.178-4.348,27.614-.643,33.221,1.762,2.685-5.593.825-5.593.825-11.549-.294-18.4-44.742-12.108-44.546,9.13.238,16.625,5.229,18.316,10.5Z" transform="translate(7725.481 1443.765)" fill="#195392"/><path d="M759.54,108.61l5.1,17.911.559-.475c.489-3.02,1.244-6.432,1.748-9.941a66.315,66.315,0,0,0-7.41-7.494Z" transform="translate(7729.451 1448.651)" fill="#195392"/><path d="M779.865,157.268c-.084-.783-.168-1.524-.28-2.279-.475-3.929-.727-7.648-1.147-11.088l-9.675-.881a111.1,111.1,0,0,0-14.989,5.928,8.208,8.208,0,0,0-1.188.084c0,.084.112.783.308,1.916-7-1.524-14.206-3.761-14.206-3.761s-2.88,12.458-5.928,27.223c6.711-1.818,13.982-9,18.638-12s18.82-1.4,28.425-5.159Z" transform="translate(7718.787 1462.353)" fill="#113f70"/><path d="M742.087,190.752l2.8-1.916-14.569-1.147c-.224,1.4-.419,2.726-.587,4-2.908,4.292-4.572,11.186-5.327,18.931,9.046-3.845,17.156-13.716,17.7-19.868Z" transform="translate(7715.458 1480.14)" fill="#113f70"/><path d="M759.964,96.442c-24.356-.615-23.6,41.834-24.454,74.887,0,2.181,17.617,2.629,30.55,1.636a1.216,1.216,0,0,0,1.049-.951c.727-3.621,1.189-10.472,2.083-10.444s1.832,6.068,2.8,9.7a1.146,1.146,0,0,0,1.314.853c4.195-.629,6.4-1.5,6.4-2.657,0-5.886-3.272-72.622-19.756-73.027Z" transform="translate(7719.883 1443.804)" fill="#195392"/><path d="M739.934,112.24l-.643.475c-2.489,10.836-3.188,24.37-3.551,37.6,4.53-9.214,15.66-29.558,4.195-38.073Z" transform="translate(7719.974 1450.097)" fill="#113f70"/><path d="M724.458,158.282l-.307,2.936,1.86.224.335-3.272Z" transform="translate(7715.359 1468.386)" fill="#f5cd56"/><path d="M726.061,156.923l4.195.419-.224,2.013-5.593-.573a.336.336,0,0,1-.28-.336,1.706,1.706,0,0,1,1.887-1.524Z" transform="translate(7715.363 1467.885)" fill="#d64745"/><path d="M732.468,153.533a6.832,6.832,0,0,0,.266,2.447,14.43,14.43,0,0,0,2.866,4.32c.252.531.392,1.943,1.021,3.5a.461.461,0,0,1-.168.6,1.4,1.4,0,0,1-1.4,0,18.557,18.557,0,0,1-1.4-1.4l-.391,3.5-5.509-.587a2.922,2.922,0,0,1-1.859-1.72,26.579,26.579,0,0,1-.8-4.558c0-.825.14-4.348.168-5.159.21-13.185,8.235-14.989,7.187-.937Z" transform="translate(7715.737 1462.648)" fill="#f09d69"/><path d="M735.647,159.523l-.308,2.936-1.86-.2.336-3.244Z" transform="translate(7719.074 1468.724)" fill="#f5cd56"/><path d="M723.824,160.882l25.167,2.643c-1.944,18.274-5.593,42.938-5.593,42.938l-29.656-3.132c-5.593-.6,3.607-43.134,10.095-42.449Z" transform="translate(7710.526 1469.462)" fill="#d64745"/><path d="M740.85,161.831c2.95.322,3.719,6.376,3.523,9.34s-11.423-2.307-11.423-2.307l4.195-7.424Z" transform="translate(7718.863 1469.688)" fill="#fe6b61"/><path d="M741.911,162.772c6.5.685,6.669,44.225.979,43.637l-5.593-.587-5.593-.573c-5.691-.615,3.579-43.148,10.095-42.477Z" transform="translate(7717.662 1470.215)" fill="#ef5553"/><path d="M737.61,186.655l-22.888-2.419a2.321,2.321,0,0,1-2.027-2.8c2.447-10.417,6.474-21.98,9.661-21.658l26.566,2.8c-3.244-.336-6.4,11.7-8.823,22.371a2.335,2.335,0,0,1-2.489,1.706Z" transform="translate(7710.777 1469.025)" fill="#fe6b61"/><path d="M726.2,182.276l2.223.252a.783.783,0,0,0,.825-.6l.867-4.195a.755.755,0,0,0-.671-.909l-2.2-.252a.8.8,0,0,0-.853.615l-.867,4.195a.755.755,0,0,0,.671.909Z" transform="translate(7715.9 1475.711)" fill="#f5cd56"/><path d="M715.067,181.114l2.181.224a.769.769,0,0,0,.839-.6l.881-4.195a.8.8,0,0,0-.685-.937l-2.2-.224a.769.769,0,0,0-.839.615l-.853,4.195a.741.741,0,0,0,.671.909Z" transform="translate(7711.467 1475.237)" fill="#f5cd56"/><path d="M719.568,172.845l9.787,1.035a.378.378,0,0,0,.405-.28l.895-3.216a.391.391,0,0,0-.336-.5l-9.689-1.021a.392.392,0,0,0-.405.294l-.923,3.216a.391.391,0,0,0,.336.475Z" transform="translate(7713.426 1472.642)" fill="#d64745"/><path d="M732.713,148.23c.154,2.083.21,3.8.294,4.362.2,1.3-7.648,1.846-8.04.21a21.589,21.589,0,0,1-.336-4.264Z" transform="translate(7715.549 1464.427)" fill="#b8e6f5"/><path d="M724.437,137.367c2.8-11.451,9.438-30.089,14.08-34.829,3.188-3.244,19.029-9.424,21.308-6.683,1.72,2.083-3.188,11.759-3.188,11.759l-.447.475c-5.355,5.593-13.3,21.071-18.316,32.158-1.161,6.068-2.027,15.772-3.188,29.7-.14,1.58-9.913,2.027-10.193,0-1.4-11.186-1.8-25.349,0-32.578Z" transform="translate(7715.016 1443.3)" fill="#195392"/><path d="M731.083,160.617a2.377,2.377,0,0,0,2.67-1.552c.14-.531-3.174-.615-3.174-.615Z" transform="translate(7717.919 1468.497)" fill="#f09d69"/><path d="M731.28,157.51l4.195.447A1.692,1.692,0,0,1,737,159.845a.308.308,0,0,1-.336.28l-5.593-.615Z" transform="translate(7718.115 1468.123)" fill="#d64745"/><path d="M749.39,94.093c-5.593.489-8.137,7.872-8.389,11.563a.6.6,0,0,0,.475.629c2.587.671,4.334.979,4.334.979l-1.636,5.509a.671.671,0,0,0,.1.531c1.943,2.8,19.9,27.782,21.728,27.614s2.111-26.4,2.167-30.606a.67.67,0,0,0-.084-.336,37.942,37.942,0,0,0-4-4.936l1.622-2.559a.517.517,0,0,0,0-.6C763.651,98.2,759.289,93.142,749.39,94.093Z" transform="translate(7722.068 1442.825)" fill="#2c87ce"/><path d="M760.853,101.869c-.587-6.026-7.634-7.326-9.787-7.438-1.748-.084-7.354,1.608-6.991,4.992.168,1.916,13.59,23.6,19.868,37,.14-9.354-2.908-32.634-3.076-34.549Z" transform="translate(7723.286 1443.004)" fill="#fefefe"/><path d="M752.375,102.17l-.895,3.621,1.007,1.426,2.852-.475.391-1.664Z" transform="translate(7726.242 1446.087)" fill="#ef5553"/><path d="M752.272,105.915l-.252,9.508c3.216,5.733,6.432,11.731,8.739,16.61,0-4.195-.531-11.186-1.188-17.813-.923-1.79-4.446-8.781-4.446-8.781Z" transform="translate(7726.457 1447.389)" fill="#ef5553"/><path d="M761.354,77.311c-.084,2.587-.419,4.992-2.391,5.593S756.6,76.22,756.6,76.22Z" transform="translate(7728.28 1435.754)" fill="#0d2b40"/><path d="M745.5,100.62,744.83,85.59,757.106,87.8l.993,12.793c0,1.957-1.021,5.733-3.216,6.991-3.244-.573-9.186-4.544-9.382-6.991Z" transform="translate(7723.593 1439.485)" fill="#f09d69"/><path d="M756.781,98.481l-.392-6.068L748,89.77c.252,2.8,1.72,8.207,8.739,8.711Z" transform="translate(7724.856 1441.15)" fill="#ef8a52"/><path d="M758.826,76.68l-7.62-1.86-3.4.615c-2.069,0-1.4,3.356-1.4,5.425l-.28,10.235c-.112,4.936,6.39,11.185,11.3,11.283s8.515-6.18,6.683-13.982c.308-2.055,1.482-11.479-5.271-11.675Z" transform="translate(7724.111 1435.197)" fill="#f09d69"/><path d="M751.4,77.415c.084-2.8-2.237-5.956-4.908-5.159-8,2.391-3.244,18.176-.475,18.176.14-5.131,5.075-2.111,5.159-4.88,0-1.692.168-6.516.224-8.207Z" transform="translate(7722.494 1434.126)" fill="#0d2b40"/><path d="M754.62,89.14a2.8,2.8,0,0,0,2.8,2.4,2.642,2.642,0,0,0,2.643-2.237Z" transform="translate(7727.492 1440.899)" fill="#f8f9fa"/><path d="M758.787,88.4c.5-.727-1.077-2.279-1.077-2.279.084.671.629,1.4.322,1.86s-1.4.531-1.692,1.007c0,0,2,.084,2.447-.587Z" transform="translate(7728.177 1439.696)" fill="#ef8a52"/><path d="M747.383,88.663l-1.272.252a1.916,1.916,0,0,1-2.5-1.8c-.084-.867-.349-2.2-.378-3.607a2.125,2.125,0,0,1,2.181-2.083,2.167,2.167,0,0,1,2.111,2.209Z" transform="translate(7722.957 1437.825)" fill="#f09d69"/><path d="M755.006,84.7c0,.685-.447,1.244-.923,1.216a1.123,1.123,0,0,1-.853-1.272c.028-.7.447-1.216.909-1.216s.867.573.867,1.272Z" transform="translate(7726.938 1438.625)" fill="#0d2b40"/><path d="M759.6,84.815c0,.685-.391,1.244-.825,1.244s-.811-.587-.783-1.272.391-1.244.839-1.216S759.626,84.144,759.6,84.815Z" transform="translate(7728.833 1438.681)" fill="#0d2b40"/><path d="M755.53,91.6a4.6,4.6,0,0,0,2.8,0C757.977,92.649,756.481,93,755.53,91.6Z" transform="translate(7727.854 1441.878)" fill="#ef8a52"/><path d="M753.908,85.79c-.839,0-1.51.294-1.538.713s.671.783,1.482.811,1.5-.308,1.524-.727-.671-.769-1.4-.8Z" transform="translate(7726.596 1439.565)" fill="#e5605a"/><path d="M752.736,82.47a.322.322,0,0,1-.28-.112.462.462,0,0,1,0-.559,3.09,3.09,0,0,1,1.8-.685,2.8,2.8,0,0,1,1.859.489.364.364,0,0,1,.084.531.378.378,0,0,1-.517.084,2.139,2.139,0,0,0-1.4-.364,2.321,2.321,0,0,0-1.4.531.391.391,0,0,1-.252.084Z" transform="translate(7726.593 1437.698)" fill="#0d2b40"/><path d="M758.237,82.428a.35.35,0,0,1-.307-.168.405.405,0,0,1,.112-.559,2.335,2.335,0,0,1,1.636-.406.387.387,0,1,1-.084.769,1.552,1.552,0,0,0-1.133.28.322.322,0,0,1-.224.084Z" transform="translate(7728.783 1437.768)" fill="#0d2b40"/><path d="M745.33,75.166c.2-3.873,4.279-5.761,8.068-5.593,11.046.294,17.491,12.444,13.129,12.332-5.593-.168-21.2-6.683-21.2-6.683Z" transform="translate(7723.793 1433.103)" fill="#0d2b40"/><path d="M747.888,78.829l.168-5.439,4.67.112-.112,4.516a3.859,3.859,0,0,1-2,3.216,1.985,1.985,0,0,0-1.063,1.692l-.168,6.11c0,1.216-3.132.14-3.1-1.664,0-.531.224-7.9.224-8.389a2.712,2.712,0,0,1,1.4-.168Z" transform="translate(7724.171 1434.627)" fill="#0d2b40"/><path d="M758.41,131.762c0,.937.5,1.692.993,1.692s.895-.839.839-1.8-.5-1.65-1.007-1.65-.853.825-.8,1.8Z" transform="translate(7729.001 1457.169)" fill="#0d2b40"/><path d="M758.88,138.946c0,.965.531,1.72,1.035,1.692s.881-.839.825-1.8-.517-1.692-1.021-1.664-.867.825-.839,1.776Z" transform="translate(7729.188 1460.023)" fill="#0d2b40"/><path d="M742.138,143.063l12.43-1.4a1.133,1.133,0,0,0,.993-1.272L755.2,137.4l-14.737,1.748.35,2.922a1.147,1.147,0,0,0,1.286.993Z" transform="translate(7721.854 1460.115)" fill="#2c87ce"/><path d="M785.7,138.387a8.667,8.667,0,0,1,2.4-.545,14.767,14.767,0,0,1,1.51.433,15.212,15.212,0,0,0,4.264.336s-3.887-3.761-5.956-3.384a7.83,7.83,0,0,0-2.223,1.147c-.979.629-.923,2.265,0,2.013Z" transform="translate(7739.585 1459.24)" fill="#ef8a52"/><path d="M798.151,144.722a6.012,6.012,0,0,0-2.447,0c-1.4-.252-4.992.447-8.389,2.363-2.083,1.16-3.523-.783-5.355-2.475s-2.2-2.629-1.692-3.412c.671-1.049,3.971-2.489,4.516-2.8a22.974,22.974,0,0,1,3.719-1.524c3.635-.615,6.194.084,9.717.643,13.1,1.9,13.814,10.109,0,7.229Z" transform="translate(7737.623 1459.812)" fill="#ef8a52"/><path d="M783.248,107.122a6.307,6.307,0,0,1-1.832-1.608,15.269,15.269,0,0,1-1.971-4.8c-.28-.531-1.4-1.4-2.279-2.8a.489.489,0,0,0-.615-.2,1.4,1.4,0,0,0-.741,1.161c0,.364.336,1.943.336,1.943a26.678,26.678,0,0,1-5.271-3.663c-.7-.559-1.8.811-1.971,1.692a12.374,12.374,0,0,0,.112,4.041,21.048,21.048,0,0,0,1.748,3.635,25.536,25.536,0,0,0,3.272,3.216c.685.5,3.691,2.363,4.348,2.8,11.018,7.313,17.044,1.72,4.866-5.383Z" transform="translate(7733.133 1444.043)" fill="#f09d69"/><path d="M805.389,132.21c-6.991-.685-29.949-18.652-31.445-19.91-3.663-3.16,4.194-9.787,5.97-8.389,3.9,3.006,25.629,15.114,26.8,15.226,4.125.615,24.58-19.043,32.773-20.372,6.46-.811,14.066,2.461,13.059,7.368-1.244,6.012-9.4,9.424-16.4,14.192-9.256,6.334-18.861,13.031-30.76,11.843Z" transform="translate(7734.804 1444.682)" fill="#ef5553"/><path d="M784.716,105.016c-1.971-1.188-4.195-2.8-5.355-3.551-.587-.391-9.578,6.627-6.432,9.242a46.75,46.75,0,0,0,5.593,4.195c.629.391,7.844-8.851,6.124-9.9Z" transform="translate(7734.518 1445.8)" fill="#f5cd56"/><path d="M814.067,148.138c-8.026,34.465-13.982,96.852-15.506,114.512-.14,1.664,4.936,5.816,5.677,4.32,6.138-12.08,15.492-39.513,16.876-57.088,6.054-15.8,16.485-60.36,16.485-60.36s-22.035-7.76-23.532-1.4Z" transform="translate(7744.987 1463.387)" fill="#113f70"/><path d="M816.926,198.035c3.188-9.7,6.991-24.2,9.969-35.905C811.907,169.037,811.347,188.835,816.926,198.035Z" transform="translate(7751.006 1469.962)" fill="#0d2b40"/><path d="M845.816,149.714c-.559,23.839-3.356,88.309-6.739,115.392-.14.993-5.886-1.608-6.082-.643-2.922-11.367-9.787-41.107-6.683-59.269-3.2-21.378-6.641-58.374-6.641-58.374S839.147,150.232,845.816,149.714Z" transform="translate(7753.394 1463.866)" fill="#113f70"/><path d="M850.18,152.288v-2.1c-4.474.35-14.709-1.063-20.973-2.027-6.488-1.916-18.176-4.6-19.169,0-.5,2.139-.993,4.4-1.4,6.739,9.046,1.664,28.914.336,41.6-2.587Z" transform="translate(7749.002 1463.39)" fill="#0d2b40"/><path d="M833.4,97.82a23.056,23.056,0,0,1,8.082,1.4c20.553,7.732,11.1,72.943,10.71,73.964-1.216,3.188-22.539,3.244-35.22,2.111-.238-3.775,0-10.039-.881-10.123s-2.5,5.858-3.8,9.34a.558.558,0,0,1-.112.224c-2.391-.35-4.027-.769-4.39-1.216-.909-1.133,6.865-55.061,11.717-64.708,3.356-6.655,8.263-10.962,13.9-10.962Z" transform="translate(7748.631 1444.355)" fill="#ef5553"/><path d="M820.93,126c1.636-7.229,10.514-14.919,19.7-10.7l-1.3,5.816c-9.717,13.171-21.951,21.434-25.475,24.594C809.8,137.7,819.742,131.3,820.93,126Z" transform="translate(7750.694 1450.837)" fill="#d64745"/><path d="M809.736,236.835a1.035,1.035,0,0,1-1.035,1.035H790.329a1.007,1.007,0,0,1-1.1-1.035,2.265,2.265,0,0,1,0-.965c.336-1.636,5.383-2.992,7.243-3.957,2.936-1.566,5.187-3.663,7.326-3.663,2.88,0,2.8,1.5,4.083,1.86,1.8.517,1.8,6.725,1.8,6.725Z" transform="translate(7741.25 1496.291)" fill="#ef5553"/><path d="M809.1,236.333H789.845a.6.6,0,0,1-.615-.629V234.39h20.483V235.7A.629.629,0,0,1,809.1,236.333Z" transform="translate(7741.273 1498.735)" fill="#d64745"/><path d="M832.665,146.3c-1.692,2.8-11.885,9.312-21.085,5.1l1.328-5.83c9.675-13.171,27.964-29.362,31.515-32.466C850.813,125.833,835.1,142.276,832.665,146.3Z" transform="translate(7750.173 1450.443)" fill="#d64745"/><path d="M828.31,236.835a.993.993,0,0,0,.993,1.035h10.626a1.007,1.007,0,0,0,1.1-1.035,4.488,4.488,0,0,0,0-.965c-.336-1.636-1.538-1.888-2.922-3.5-1.1-1.3-1.8-4.125-3.943-4.125-2.88,0-2.8,1.5-4.069,1.86-1.776.517-1.776,6.725-1.776,6.725Z" transform="translate(7756.834 1496.291)" fill="#ef5553"/><path d="M828.9,236.333h11.549a.615.615,0,0,0,.6-.629V234.39H828.33V235.7a.6.6,0,0,0,.6.629Z" transform="translate(7756.842 1498.735)" fill="#d64745"/><path d="M834.457,151.941c-5.327,4.544-34.186,8.823-36.129,9-4.81.5-4.195-9.7-1.943-10.053,4.88-.783,28.663-8.151,29.516-8.906,3.943-3.5,10.822-22.371,10.822-22.371,3.887-5.243,8.5-23.909,11.353-19.8,3.5,5.047,5.593,13.534,4.307,21.868-1.8,11.074-8.851,22.441-17.925,30.229Z" transform="translate(7743.445 1444.917)" fill="#ef5553"/><path d="M833.034,95.451c5.593.5,8.137,7.886,8.389,11.563a.588.588,0,0,1-.462.643c-2.586.671-4.334.965-4.334.965l.811,3.132a.587.587,0,0,1-.084.531c-1.971,2.8-18.959,27.153-20.791,26.985s-2.209-23.434-2.293-27.628a.742.742,0,0,1,.084-.336,41.611,41.611,0,0,1,4-4.936l-1.664-2.489a.629.629,0,0,1,0-.629c2.083-3.691,6.418-8.711,16.317-7.8Z" transform="translate(7751.244 1443.369)" fill="#fe6b61"/><path d="M798.372,135.481c-2.279.224-5.033.28-6.418.392-.671,0-3.579,11.088.5,11.185a42.193,42.193,0,0,0,7.075-.084c.727-.084.853-11.787-1.161-11.563Z" transform="translate(7741.709 1459.322)" fill="#f5cd56"/><path d="M816.912,118.135c1.51-13.479,2.643-19.141,4.194-20.274A9.088,9.088,0,0,1,828.1,95.47c3.775.084,7.55,1.524,7.55,3.523,0,2.5-6.907,14.331-11.186,20.33C821.946,122.847,816.674,120.4,816.912,118.135Z" transform="translate(7752.293 1443.405)" fill="#f5cd56"/><path d="M821.1,118.818c-1.468-1.524-2.279-4.4-2.643-7.648l2.279-4.488-.391-1.664,3.356-2.908.895,3.607-1.007,1.4.224,9a14.849,14.849,0,0,1-2.712,2.657Z" transform="translate(7752.912 1446.063)" fill="#f5cd56"/><path d="M824.659,102.11l.895,3.607-1.007,1.4.251,9.508c-3.216,5.7-6.432,11.7-8.739,16.61,0-4.195.531-11.186,1.188-17.8.923-1.8,4.446-8.795,4.446-8.795l-.391-1.664Z" transform="translate(7751.957 1446.063)" fill="#ffa833"/><path d="M814.61,78.941c0,2.545.28,4.992,2.251,5.593s2.489-6.683,2.489-6.683Z" transform="translate(7751.379 1436.403)" fill="#0d2b40"/><path d="M832.884,101.156V87.65L820.3,89.258v12.863c0,.615,0,4.362,2.657,5.775,4.306-.839,9.913-4.195,9.913-6.711Z" transform="translate(7753.645 1440.305)" fill="#f09d69"/><path d="M820.31,100.326v-6.11L828.378,91c0,2.8-1.1,8.389-8.068,9.354Z" transform="translate(7753.649 1441.639)" fill="#ef8a52"/><path d="M821.193,78.344l7.662-1.664,3.384.7c2.083,0,1.258,3.412,1.258,5.495V93.095c0,4.936-6.641,10.99-11.577,10.99s-8.389-6.4-6.292-14.234c-.28-2.041-1.174-11.507,5.593-11.507Z" transform="translate(7751.536 1435.937)" fill="#f09d69"/><path d="M825.9,79.272c0-2.8,2.391-5.886,5.061-5.019,7.928,2.6,2.8,18.26,0,18.26,0-5.145-5.061-2.237-5.061-5.047Z" transform="translate(7755.875 1434.911)" fill="#0d2b40"/><path d="M816.265,90.049c-.475-.755,1.161-2.279,1.161-2.279-.112.671-.657,1.4-.392,1.86s1.4.559,1.65,1.049c0,0-1.971,0-2.419-.629Z" transform="translate(7752.004 1440.353)" fill="#ef8a52"/><path d="M828.172,90.632l1.244.308a1.916,1.916,0,0,0,2.559-1.72c.1-.853.405-2.181.489-3.607a2.153,2.153,0,1,0-4.292,0Z" transform="translate(7756.776 1438.568)" fill="#f09d69"/><path d="M821.706,86.406c0-.657-.392-1.216-.881-1.216s-.895.559-.895,1.216.392,1.258.895,1.258S821.706,87.106,821.706,86.406Z" transform="translate(7753.498 1439.326)" fill="#0d2b40"/><path d="M816.654,86.418c0-.657-.308-1.188-.7-1.188s-.685.531-.685,1.188.308,1.174.685,1.174S816.654,87.062,816.654,86.418Z" transform="translate(7751.642 1439.342)" fill="#0d2b40"/><path d="M820.166,94.218a4.88,4.88,0,0,1-2.8-.1C817.706,95.169,819.174,95.518,820.166,94.218Z" transform="translate(7752.478 1442.882)" fill="#ef8a52"/><path d="M821.346,87.55c.839,0,1.5.336,1.5.783s-.657.741-1.5.741-1.5-.336-1.5-.741S820.521,87.55,821.346,87.55Z" transform="translate(7753.465 1440.266)" fill="#e5605a"/><path d="M822.867,84.266a.377.377,0,0,0,.266-.629,3.1,3.1,0,0,0-1.776-.783,2.908,2.908,0,0,0-1.86.447.405.405,0,0,0-.112.531.378.378,0,0,0,.531.112,2.069,2.069,0,0,1,1.4-.308,2.265,2.265,0,0,1,1.314.545.391.391,0,0,0,.252.084Z" transform="translate(7753.259 1438.39)" fill="#0d2b40"/><path d="M816.93,84.046a.448.448,0,0,0,.308-.126.405.405,0,0,0-.084-.559,2.964,2.964,0,0,0-1.86-.447.379.379,0,1,0,.056.755,2.307,2.307,0,0,1,1.4.322.308.308,0,0,0,.224,0Z" transform="translate(7751.506 1438.414)" fill="#0d2b40"/><path d="M835.835,77.1c-.392-5.117-7.1-5.593-11.269-5.4-2.8.168-8.389,1.8-6.11,2.8-4.432,2.8-6.991,8.683-3.985,8.683,5.593,0,21.364-6.11,21.364-6.11Z" transform="translate(7750.805 1433.94)" fill="#0d2b40"/><path d="M828.5,80.745V75.32H823.82v4.488a3.845,3.845,0,0,0,1.916,3.328,2.013,2.013,0,0,1,.993,1.748v6.068c0,1.216,3.174.224,3.174-1.58V80.983a2.949,2.949,0,0,0-1.4-.2Z" transform="translate(7755.047 1435.396)" fill="#0d2b40"/><path d="M815.11,94.428c0-.531.28-2.167,1.524-2.167h5.313a2.587,2.587,0,0,1,2.111,1.4h2.083c2.8,0,4.1-3.244,4.1-6.627,0,0,3.174-2.433,3.174-1.58,0,11.06-2.587,12.891-5.131,14.387-4.111,2.391-9.522,2.055-11.185.671-1.4-1.063-1.888-3.551-1.888-6.04Z" transform="translate(7751.578 1439.358)" fill="#0d2b40"/><path d="M816,91.5s-.251,1.748,2.391,1.748a3.58,3.58,0,0,0,3.2-1.748Z" transform="translate(7751.931 1441.838)" fill="#fff"/><path d="M838.436,146.893l-12.43-1.468a1.189,1.189,0,0,1-1.035-1.286l.364-2.908,14.709,1.748-.336,2.908a1.147,1.147,0,0,1-1.272,1.007Z" transform="translate(7755.503 1461.64)" fill="#fe6b61"/><path d="M782.42,134.67c2.8.392,6.152.741,6.18,2.111a12.579,12.579,0,0,1-.378,3.733c-.14.531-1.636.391-1.915-.084-.587-.909-.252-2.153-.391-3.244l-3.5-2.517Z" transform="translate(7738.562 1459.028)" fill="#f09d69" fill-rule="evenodd"/><path d="M785.35,146.256c1.832-.224,4.195-.6,5.117-2.153.6-1.007-.252-1.482-1.007-2.363-1.077-1.3-2.517-.727-2.335.559-1.244-1.119-2.4-.084-2.013,1.1-1.482-.783-2.5.559-1.971,1.608a2.433,2.433,0,0,0,2.209,1.244Z" transform="translate(7738.792 1461.55)" fill="#f09d69" fill-rule="evenodd"/><path d="M694.918,199.622a4.628,4.628,0,0,1-3.062-.839,3.4,3.4,0,0,1-1.4-2.964,4.894,4.894,0,0,1,1.091-3.328,4.054,4.054,0,0,1,3.258-1.244,5.845,5.845,0,0,1,2.657.545,4.558,4.558,0,0,1,1.748,1.5,6.037,6.037,0,0,1,.909,2.167,11.7,11.7,0,0,1,.266,2.531,8.39,8.39,0,0,1-1.035,3.831,15.27,15.27,0,0,1-2.67,3.663,15.546,15.546,0,0,1-3.621,2.8,7.914,7.914,0,0,1-3.845,1.077,17.661,17.661,0,0,1-2.153-.14,5.678,5.678,0,0,1-2.181-.727,4.754,4.754,0,0,1-1.72-1.734,6.138,6.138,0,0,1-.7-3.174v-7.131h-.867l-3.943-3.943h4.81v-1.44a.826.826,0,0,0,0-.405v-2.4a4.719,4.719,0,0,0,0-.671,1.861,1.861,0,0,0-.391-.951,1.4,1.4,0,0,0-1.007-.308,2.527,2.527,0,0,0-.531,0,3.326,3.326,0,0,0-.965.615l-1.4-3.957a16.483,16.483,0,0,1,1.874-.671,5.592,5.592,0,0,1,1.636-.252,4.936,4.936,0,0,1,2.433.531,3.886,3.886,0,0,1,1.4,1.4,5.506,5.506,0,0,1,.671,1.957,13.964,13.964,0,0,1,.168,2.139v4.195h.573l3.859,4h-4.432v7.089c0,1.174.769,1.776,2.307,1.776a4.347,4.347,0,0,0,2.069-.559,7.782,7.782,0,0,0,1.916-1.4,8.523,8.523,0,0,0,1.4-1.832A4.977,4.977,0,0,0,694.918,199.622Z" transform="translate(7696.844 1477.897)" fill="#ffa833"/></g></svg>