<svg xmlns="http://www.w3.org/2000/svg" width="480" height="320" viewBox="0 0 480 320"><g transform="translate(-8238.683 -1931.772)"><rect width="480" height="320" transform="translate(8238.683 1931.772)" fill="rgba(255,255,255,0)"/><path d="M192.606,279.9l157.3-90.825c2.093-1.207,2.119-5.5-.3-6.9l-106.6-59.167a9.067,9.067,0,0,0-8.168-.334L77.289,211.386c-2.093,1.207-1.567,5.433.848,6.82L184.4,279.557A9.067,9.067,0,0,0,192.606,279.9Z" transform="translate(8272.35 1953.798)" fill="#aebecc"/><path d="M78.131,216.376l106.262,61.351a9.067,9.067,0,0,0,8.168.347l64.908-37.489a1.284,1.284,0,0,1-.745-.989.912.912,0,0,1,.527-.758L281.91,224.6a3.4,3.4,0,0,1,3.044.128l64.921-37.476c2.081-1.207,1.824-3.313-.591-4.713L243.022,121.184a9.067,9.067,0,0,0-8.168-.334l-157.3,90.812C75.46,212.87,75.717,215.027,78.131,216.376Z" transform="translate(8272.394 1953.278)" fill="#e7eef2"/><path d="M208.773,237.168l70.251-40.558c.835-.488.732-1.284-.231-1.888l-42.3-24.4a3.622,3.622,0,0,0-3.262-.128L162.975,210.75c-.835.475-.732,1.284.231,1.875l42.3,24.4a3.622,3.622,0,0,0,3.262.141Z" transform="translate(8296.921 1967.444)" fill="#dae1e5"/><path d="M144.651,244.8l147.6-85.213c.835-.488.732-1.284-.244-1.888L237.261,126.1a3.622,3.622,0,0,0-3.262-.141l-147.6,85.213c-.835.475-.732,1.284.231,1.888l54.749,31.606a3.647,3.647,0,0,0,3.275.128Z" transform="translate(8275.149 1954.871)" fill="#aebecc"/><path d="M210.38,139.473l7.847-4.534c.424-.244.372-.668-.116-.938l-7.41-4.29a1.837,1.837,0,0,0-1.631,0l-7.847,4.534c-.424.244-.36.668.116.938l7.41,4.277a1.8,1.8,0,0,0,1.631.013Z" transform="translate(8307.875 1955.974)" fill="#5b5b72"/><path d="M202.341,144.111l7.847-4.534c.411-.231.36-.655-.116-.938l-7.41-4.277a1.824,1.824,0,0,0-1.644,0l-7.847,4.534c-.411.231-.36.655.116.938l7.41,4.277a1.824,1.824,0,0,0,1.644,0Z" transform="translate(8305.587 1957.295)" fill="#5b5b72"/><path d="M194.291,148.762l7.847-4.534c.424-.244.36-.668-.116-.938l-7.41-4.238a1.8,1.8,0,0,0-1.631-.077l-7.847,4.534c-.424.244-.372.668.116.95l7.41,4.277A1.836,1.836,0,0,0,194.291,148.762Z" transform="translate(8303.299 1958.617)" fill="#5b5b72"/><path d="M186.246,153.409l7.847-4.521c.424-.244.372-.668-.116-.95l-7.41-4.277a1.785,1.785,0,0,0-1.631-.064l-7.873,4.534c-.424.244-.372.655.116.938l7.41,4.277a1.8,1.8,0,0,0,1.657.064Z" transform="translate(8301.005 1959.928)" fill="#5b5b72"/><path d="M178.18,158.059l7.86-4.534c.411-.244.36-.655-.128-.938l-7.41-4.277a1.837,1.837,0,0,0-1.631-.077l-7.808,4.534c-.411.244-.36.668.116.95l7.41,4.277A1.8,1.8,0,0,0,178.18,158.059Z" transform="translate(8298.732 1961.25)" fill="#5b5b72"/><path d="M170.151,162.71,178,158.177c.411-.244.36-.668-.116-.95l-7.41-4.277a1.836,1.836,0,0,0-1.631-.064l-7.847,4.534c-.424.244-.372.668.116.938l7.41,4.277a1.837,1.837,0,0,0,1.631.077Z" transform="translate(8296.437 1962.571)" fill="#5b5b72"/><path d="M162.088,167.349l7.847-4.534c.424-.231.372-.655-.116-.938l-7.41-4.277a1.8,1.8,0,0,0-1.631-.064l-7.834,4.5c-.424.244-.372.668.116.95l7.41,4.277A1.8,1.8,0,0,0,162.088,167.349Z" transform="translate(8294.147 1963.892)" fill="#5b5b72"/><path d="M154.088,172l7.86-4.534c.411-.244.36-.668-.128-.938l-7.41-4.29a1.837,1.837,0,0,0-1.631-.064l-7.847,4.534c-.411.244-.36.668.116.938l7.41,4.29A1.836,1.836,0,0,0,154.088,172Z" transform="translate(8291.872 1965.212)" fill="#5b5b72"/><path d="M146.011,176.639l7.847-4.521c.411-.244.36-.668-.116-.95l-7.41-4.277a1.8,1.8,0,0,0-1.631-.064l-7.86,4.534c-.411.231-.36.655.128.938l7.41,4.277A1.785,1.785,0,0,0,146.011,176.639Z" transform="translate(8289.573 1966.533)" fill="#5b5b72"/><path d="M137.961,181.289l7.847-4.534c.424-.244.372-.655-.116-.938l-7.41-4.277a1.836,1.836,0,0,0-1.631-.077l-7.847,4.585c-.424.244-.372.668.116.95l7.41,4.187A1.837,1.837,0,0,0,137.961,181.289Z" transform="translate(8287.285 1967.854)" fill="#5b5b72"/><path d="M129.908,185.933l7.847-4.534c.424-.244.372-.668-.116-.95l-7.41-4.277a1.837,1.837,0,0,0-1.631,0l-7.847,4.534c-.411.244-.36.655.116.938l7.41,4.277a1.837,1.837,0,0,0,1.631.013Z" transform="translate(8284.999 1969.183)" fill="#5b5b72"/><path d="M121.88,190.579l7.847-4.534c.411-.231.36-.655-.116-.938l-7.449-4.277a1.8,1.8,0,0,0-1.631-.064l-7.86,4.521c-.411.244-.36.668.128.95l7.41,4.277a1.785,1.785,0,0,0,1.67.064Z" transform="translate(8282.702 1970.496)" fill="#5b5b72"/><path d="M113.815,195.2l7.847-4.534c.424-.244.372-.668-.116-.938l-7.385-4.264a1.837,1.837,0,0,0-1.631,0L104.684,190c-.424.244-.372.668.116.938l7.41,4.29A1.837,1.837,0,0,0,113.815,195.2Z" transform="translate(8280.428 1971.824)" fill="#5b5b72"/><path d="M101.971,202.687l12.74-7.359c.411-.231.36-.655-.116-.938l-7.423-4.277a1.8,1.8,0,0,0-1.631,0L92.8,197.459c-.411.244-.36.668.116.938l7.423,4.29A1.8,1.8,0,0,0,101.971,202.687Z" transform="translate(8277.053 1973.145)" fill="#5b5b72"/><path d="M214.346,146.824l12.573-7.256c.514-.308.449-.835-.154-1.182l-6.987-4.033a2.222,2.222,0,0,0-2.029-.077l-12.56,7.256c-.527.3-.462.822.141,1.169l6.987,4.033A2.273,2.273,0,0,0,214.346,146.824Z" transform="translate(8308.981 1957.267)" fill="#5b5b72"/><path d="M206.162,150.9l7.847-4.534c.424-.244.372-.668-.116-.938l-7.41-4.29a1.837,1.837,0,0,0-1.682-.1l-7.847,4.534c-.424.244-.372.668.116.938l7.41,4.29a1.837,1.837,0,0,0,1.682.1Z" transform="translate(8306.659 1959.203)" fill="#5b5b72"/><path d="M198.091,155.53,205.938,151c.411-.244.36-.668-.116-.95l-7.41-4.277a1.837,1.837,0,0,0-1.631-.064l-7.86,4.534c-.411.244-.36.668.128.938l7.41,4.277A1.836,1.836,0,0,0,198.091,155.53Z" transform="translate(8304.379 1960.53)" fill="#5b5b72"/><path d="M190.091,160.212l7.847-4.534c.424-.244.372-.668-.116-.95l-7.41-4.277a1.785,1.785,0,0,0-1.631-.064l-7.847,4.534c-.424.244-.372.655.116.938l7.41,4.277A1.837,1.837,0,0,0,190.091,160.212Z" transform="translate(8302.105 1961.859)" fill="#5b5b72"/><path d="M174.018,169.431l7.809-4.534c.424-.231.372-.655-.116-.938l-7.41-4.277a1.785,1.785,0,0,0-1.631,0l-7.847,4.534c-.424.231-.36.655.116.938l7.41,4.277a1.8,1.8,0,0,0,1.67,0Z" transform="translate(8297.526 1964.493)" fill="#5b5b72"/><path d="M182.1,164.8l7.847-4.521c.411-.244.36-.668-.116-.95l-7.462-4.277a1.8,1.8,0,0,0-1.631-.064l-7.847,4.534c-.424.231-.372.655.116.938l7.41,4.277A1.785,1.785,0,0,0,182.1,164.8Z" transform="translate(8299.819 1963.167)" fill="#5b5b72"/><path d="M165.981,174.079l7.847-4.534c.424-.231.36-.655-.116-.938l-7.41-4.277a1.8,1.8,0,0,0-1.631-.064l-7.847,4.521c-.424.244-.372.668.116.95l7.41,4.277a1.785,1.785,0,0,0,1.631.064Z" transform="translate(8295.251 1965.805)" fill="#5b5b72"/><path d="M157.927,178.713l7.9-4.508c.424-.244.372-.655-.116-.938l-7.41-4.277a1.836,1.836,0,0,0-1.631-.077l-7.847,4.534c-.411.244-.36.668.116.95l7.41,4.277A1.8,1.8,0,0,0,157.927,178.713Z" transform="translate(8292.978 1967.13)" fill="#5b5b72"/><path d="M149.911,183.359l7.847-4.534c.424-.244.36-.668-.116-.938l-7.41-4.277a1.837,1.837,0,0,0-1.631-.077l-7.847,4.5c-.424.244-.372.668.116.95l7.41,4.277A1.837,1.837,0,0,0,149.911,183.359Z" transform="translate(8290.683 1968.443)" fill="#5b5b72"/><path d="M141.877,188l7.86-4.534c.411-.244.36-.668-.128-.938l-7.449-4.277a1.8,1.8,0,0,0-1.631-.077l-7.847,4.534c-.411.244-.36.668.116.938l7.41,4.29A1.837,1.837,0,0,0,141.877,188Z" transform="translate(8288.39 1969.761)" fill="#5b5b72"/><path d="M133.841,192.64l7.847-4.534c.424-.244.372-.668-.116-.938l-7.41-4.29a1.836,1.836,0,0,0-1.631-.064l-7.847,4.534c-.424.244-.372.668.116.938l7.41,4.277a1.8,1.8,0,0,0,1.631.077Z" transform="translate(8286.113 1971.08)" fill="#5b5b72"/><path d="M125.8,197.28l7.86-4.534c.411-.244.36-.668-.128-.95l-7.359-4.277a1.836,1.836,0,0,0-1.631-.064l-7.9,4.6c-.411.244-.36.668.116.938l7.41,4.277a1.837,1.837,0,0,0,1.631.013Z" transform="translate(8283.83 1972.399)" fill="#5b5b72"/><path d="M117.771,201.921l7.847-4.534c.424-.244.372-.668-.116-.95l-7.41-4.277a1.8,1.8,0,0,0-1.631-.064l-7.847,4.534c-.424.244-.372.655.116.938l7.41,4.277a1.836,1.836,0,0,0,1.631.077Z" transform="translate(8281.545 1973.717)" fill="#5b5b72"/><path d="M109.741,206.549l7.847-4.521c.411-.244.36-.668-.128-.95l-7.41-4.277a1.785,1.785,0,0,0-1.631-.064l-7.847,4.534c-.411.231-.36.655.116.938l7.41,4.277a1.824,1.824,0,0,0,1.644.064Z" transform="translate(8279.261 1975.036)" fill="#5b5b72"/><path d="M220.112,152.783l15.129-8.733c.565-.334.488-.9-.167-1.284l-6.781-3.917a2.479,2.479,0,0,0-2.222-.09l-15.116,8.733c-.565.321-.5.9.154,1.284l6.794,3.93A2.491,2.491,0,0,0,220.112,152.783Z" transform="translate(8310.612 1958.538)" fill="#5b5b72"/><path d="M211.8,156.581l7.847-4.534c.411-.231.36-.655-.128-.938l-7.359-4.277a1.785,1.785,0,0,0-1.631,0l-7.847,4.521c-.411.244-.36.668.116.95l7.41,4.277A1.824,1.824,0,0,0,211.8,156.581Z" transform="translate(8308.29 1960.84)" fill="#5b5b72"/><path d="M203.781,161.2l7.847-4.534c.424-.244.372-.668-.116-.95l-7.41-4.277a1.8,1.8,0,0,0-1.631,0l-7.847,4.534c-.424.244-.372.655.116.938l7.41,4.277A1.836,1.836,0,0,0,203.781,161.2Z" transform="translate(8305.997 1962.151)" fill="#5b5b72"/><path d="M195.748,165.86l7.86-4.534c.411-.244.36-.668-.128-.938l-7.41-4.277a1.8,1.8,0,0,0-1.631-.077l-7.847,4.534c-.411.244-.36.668.116.938l7.41,4.29a1.837,1.837,0,0,0,1.631.064Z" transform="translate(8303.716 1963.467)" fill="#5b5b72"/><path d="M187.731,170.489l7.847-4.534c.424-.231.36-.655-.116-.938l-7.41-4.277a1.8,1.8,0,0,0-1.631-.064l-7.847,4.521c-.424.244-.372.668.116.95l7.41,4.277a1.785,1.785,0,0,0,1.631.064Z" transform="translate(8301.435 1964.785)" fill="#5b5b72"/><path d="M179.7,175.123l7.847-4.534c.424-.244.372-.668-.116-.95l-7.41-4.277a1.837,1.837,0,0,0-1.631,0l-7.847,4.534c-.424.244-.36.655.116.938l7.41,4.277a1.837,1.837,0,0,0,1.631.013Z" transform="translate(8299.151 1966.109)" fill="#5b5b72"/><path d="M171.681,179.748l7.847-4.559c.411-.244.36-.668-.116-.938l-7.41-4.2a1.837,1.837,0,0,0-1.631-.077l-7.847,4.534c-.424.244-.372.668.116.95l7.41,4.277A1.836,1.836,0,0,0,171.681,179.748Z" transform="translate(8296.871 1967.431)" fill="#5b5b72"/><path d="M163.651,184.389l7.847-4.534c.424-.231.372-.655-.116-.938l-7.41-4.277a1.785,1.785,0,0,0-1.631-.064l-7.847,4.521c-.424.244-.372.668.116.95l7.41,4.277a1.8,1.8,0,0,0,1.631.064Z" transform="translate(8294.589 1968.736)" fill="#5b5b72"/><path d="M155.631,189.03l7.847-4.534c.411-.244.36-.668-.116-.95l-7.41-4.277a1.837,1.837,0,0,0-1.631-.064l-7.86,4.534c-.411.244-.36.668.128.938l7.41,4.277a1.837,1.837,0,0,0,1.631.077Z" transform="translate(8292.309 1970.054)" fill="#5b5b72"/><path d="M147.6,193.659l7.847-4.534c.424-.244.372-.655-.116-.938l-7.41-4.277a1.837,1.837,0,0,0-1.631-.077l-7.847,4.534c-.424.244-.372.668.116.95l7.41,4.277a1.837,1.837,0,0,0,1.631.064Z" transform="translate(8290.025 1971.371)" fill="#5b5b72"/><path d="M139.581,198.289l7.847-4.521c.411-.244.36-.668-.116-.95l-7.41-4.277a1.824,1.824,0,0,0-1.644-.064l-7.847,4.572c-.411.231-.36.655.116.938l7.41,4.277a1.824,1.824,0,0,0,1.644.026Z" transform="translate(8287.745 1972.688)" fill="#5b5b72"/><path d="M131.551,202.93,139.4,198.4c.424-.244.372-.668-.116-.95l-7.41-4.277a1.836,1.836,0,0,0-1.631-.064l-7.847,4.534c-.424.244-.372.668.116.938l7.41,4.277A1.8,1.8,0,0,0,131.551,202.93Z" transform="translate(8285.462 1974.005)" fill="#5b5b72"/><path d="M117.554,211.991,132.966,203c.462-.257.4-.719-.128-1.027l-7.243-4.187a1.991,1.991,0,0,0-1.785,0L108.4,206.7c-.45.257-.4.719.128,1.027l7.256,4.187a1.965,1.965,0,0,0,1.772.077Z" transform="translate(8281.479 1975.322)" fill="#5b5b72"/><path d="M223.9,160.179l20.048-11.559c.642-.372.565-1.027-.18-1.464l-6.421-3.724a2.774,2.774,0,0,0-2.569-.1l-20.048,11.559c-.655.372-.565,1.027.18,1.464l6.421,3.724a2.851,2.851,0,0,0,2.569.1Z" transform="translate(8311.669 1959.824)" fill="#5b5b72"/><path d="M215.531,163.409l7.847-4.534c.411-.244.36-.655-.116-.938l-7.41-4.277a1.837,1.837,0,0,0-1.631-.077l-7.86,4.534c-.411.244-.36.668.128.95l7.41,4.277a1.785,1.785,0,0,0,1.631.064Z" transform="translate(8309.337 1962.771)" fill="#5b5b72"/><path d="M207.521,168.033l7.847-4.534c.411-.244.36-.668-.128-.95l-7.41-4.277a1.837,1.837,0,0,0-1.631,0l-7.847,4.534c-.411.244-.36.668.116.938l7.41,4.277a1.862,1.862,0,0,0,1.644.013Z" transform="translate(8307.06 1964.094)" fill="#5b5b72"/><path d="M199.5,172.659l7.847-4.534c.424-.231.372-.655-.116-.938l-7.41-4.277a1.785,1.785,0,0,0-1.631-.064l-7.847,4.521c-.411.244-.36.668.116.95l7.41,4.277a1.8,1.8,0,0,0,1.631.064Z" transform="translate(8304.782 1965.401)" fill="#5b5b72"/><path d="M191.491,177.283l7.847-4.534c.424-.244.372-.668-.116-.938l-7.41-4.29a1.836,1.836,0,0,0-1.631,0l-7.847,4.521c-.424.244-.372.668.116.938l7.41,4.277a1.8,1.8,0,0,0,1.631.026Z" transform="translate(8302.504 1966.724)" fill="#5b5b72"/><path d="M183.481,181.909l7.847-4.534c.424-.231.372-.655-.116-.938l-7.41-4.277a1.8,1.8,0,0,0-1.631-.064l-7.847,4.521c-.424.244-.372.668.116.95l7.41,4.277A1.8,1.8,0,0,0,183.481,181.909Z" transform="translate(8300.226 1968.031)" fill="#5b5b72"/><path d="M175.471,186.533,183.318,182c.424-.244.372-.668-.116-.938l-7.41-4.29a1.837,1.837,0,0,0-1.631,0l-7.847,4.534c-.424.244-.372.668.116.938l7.41,4.29a1.837,1.837,0,0,0,1.631,0Z" transform="translate(8297.948 1969.353)" fill="#5b5b72"/><path d="M167.461,191.209l7.847-4.521c.411-.244.36-.668-.116-.95l-7.41-4.277a1.8,1.8,0,0,0-1.631-.064L158.3,185.93c-.424.231-.372.655.116.938l7.41,4.277a1.785,1.785,0,0,0,1.631.064Z" transform="translate(8295.672 1970.675)" fill="#5b5b72"/><path d="M159.451,195.787l7.847-4.534c.411-.244.36-.668-.116-.938l-7.41-4.264a1.824,1.824,0,0,0-1.644-.077l-7.847,4.534c-.411.244-.36.668.128.95l7.41,4.277A1.837,1.837,0,0,0,159.451,195.787Z" transform="translate(8293.394 1971.979)" fill="#5b5b72"/><path d="M151.428,200.409l7.86-4.521c.411-.244.36-.668-.128-.95l-7.41-4.277a1.785,1.785,0,0,0-1.631-.064l-7.847,4.534c-.411.231-.36.655.116.938l7.41,4.277a1.8,1.8,0,0,0,1.631.064Z" transform="translate(8291.116 1973.29)" fill="#5b5b72"/><path d="M143.418,205.039l7.847-4.534c.424-.244.372-.668-.116-.938l-7.41-4.277a1.837,1.837,0,0,0-1.631-.077l-7.847,4.534c-.411.244-.36.668.116.95l7.41,4.277a1.837,1.837,0,0,0,1.631.064Z" transform="translate(8288.84 1974.606)" fill="#5b5b72"/><path d="M125.435,217.055l20.549-11.841c.514-.3.45-.822-.154-1.169l-7.012-3.981a2.3,2.3,0,0,0-2.042-.09l-20.549,11.841c-.514.3-.449.822.154,1.182l6.974,4.02a2.273,2.273,0,0,0,2.081.038Z" transform="translate(8283.692 1975.948)" fill="#5b5b72"/><path d="M241.451,157.409l7.847-4.534c.424-.231.36-.655-.116-.938l-7.41-4.277a1.8,1.8,0,0,0-1.631-.064l-7.847,4.534c-.424.231-.372.655.116.938l7.41,4.277a1.785,1.785,0,0,0,1.631.064Z" transform="translate(8316.707 1961.066)" fill="#5b5b72"/><path d="M233.411,162.049l7.847-4.521c.424-.244.372-.668-.116-.95l-7.41-4.277a1.8,1.8,0,0,0-1.631-.064l-7.847,4.534c-.424.231-.372.655.116.938l7.41,4.277A1.8,1.8,0,0,0,233.411,162.049Z" transform="translate(8314.42 1962.385)" fill="#5b5b72"/><path d="M225.371,166.681l7.847-4.521c.424-.244.372-.668-.116-.95l-7.41-4.277a1.785,1.785,0,0,0-1.631,0l-7.847,4.534c-.424.231-.372.655.116.938l7.41,4.277A1.8,1.8,0,0,0,225.371,166.681Z" transform="translate(8312.135 1963.711)" fill="#5b5b72"/><path d="M215.361,172.8l10.274-5.946c.475-.27.411-.745-.141-1.066l-7.179-4.148a2.093,2.093,0,0,0-1.849-.077l-10.274,5.946c-.475.283-.411.758.128,1.066l7.179,4.148a2.055,2.055,0,0,0,1.862.077Z" transform="translate(8309.276 1965.032)" fill="#5b5b72"/><path d="M176.106,200.259l46.967-27.111c.963-.565.848-1.541-.283-2.2l-5.137-2.941a4.238,4.238,0,0,0-3.853-.154l-46.954,27.111c-.976.565-.86,1.541.27,2.2l5.137,2.941A4.212,4.212,0,0,0,176.106,200.259Z" transform="translate(8297.993 1966.762)" fill="#5b5b72"/><path d="M165.1,201.86l10.493-6.049c.475-.27.411-.758-.141-1.079L168.3,190.6a2.145,2.145,0,0,0-1.875-.077l-10.48,6.062c-.475.27-.411.758.141,1.079l7.154,4.123a2.042,2.042,0,0,0,1.862.077Z" transform="translate(8294.99 1973.265)" fill="#5b5b72"/><path d="M156.92,206.2l7.847-4.521c.424-.244.372-.668-.116-.95l-7.41-4.277a1.785,1.785,0,0,0-1.631,0l-7.847,4.534c-.424.231-.36.655.116.938l7.41,4.277a1.8,1.8,0,0,0,1.631,0Z" transform="translate(8292.677 1974.947)" fill="#5b5b72"/><path d="M148.89,210.849l7.86-4.521c.411-.244.36-.668-.128-.95L149.16,201.1a1.785,1.785,0,0,0-1.631-.064l-7.847,4.534c-.411.244-.36.655.116.938l7.41,4.277A1.8,1.8,0,0,0,148.89,210.849Z" transform="translate(8290.38 1976.258)" fill="#5b5b72"/><path d="M135.869,212.759l8.322-4.8c.3-.167.257-.462-.077-.642l-3.082-1.785a1.284,1.284,0,0,0-1.117,0l-8.322,4.8c-.283.167-.244.45.077.642l3.082,1.785A1.284,1.284,0,0,0,135.869,212.759Z" transform="translate(8288.105 1977.546)" fill="#5b5b72"/><path d="M139.668,214.959,148,210.143c.283-.154.244-.45-.077-.642l-3.082-1.772a1.284,1.284,0,0,0-1.117,0l-8.335,4.816c-.283.167-.244.449.09.642l3.069,1.772A1.284,1.284,0,0,0,139.668,214.959Z" transform="translate(8289.187 1978.172)" fill="#5b5b72"/><path d="M133.028,220l7.86-4.534c.411-.244.36-.668-.128-.95l-7.41-4.277a1.837,1.837,0,0,0-1.631,0l-7.847,4.534c-.411.244-.36.655.116.938l7.41,4.277a1.837,1.837,0,0,0,1.631.013Z" transform="translate(8285.886 1978.868)" fill="#5b5b72"/><path d="M93.524,215l147.09-84.918c.411-.244.36-.668-.116-.95l-4.367-2.569a1.837,1.837,0,0,0-1.631,0l-147.077,84.9c-.424.244-.372.668.116.938l4.354,2.569a1.837,1.837,0,0,0,1.631.026Z" transform="translate(8275.521 1955.079)" fill="#5b5b72"/><path d="M83.081,238.422l155.13-91.583a7.012,7.012,0,0,0,3.352-6.64L224.572,28.466c-.4-2.363-4.392-3.981-6.64-2.684l-156.684,90.5a7,7,0,0,0-3.352,6.627L76.686,235.4C77.084,237.767,80.834,239.72,83.081,238.422Z" transform="translate(8267.2 1926.351)" fill="#aebecc"/><path d="M82.946,238.112l156.748-90.5a7,7,0,0,0,3.352-6.627L224.206,28.451c-.4-2.363-2.569-3.236-4.79-1.926L62.732,117.016a7.012,7.012,0,0,0-3.416,6.614L78.182,236.173C78.554,238.536,80.75,239.41,82.946,238.112Z" transform="translate(8267.604 1926.52)" fill="#313133"/><path d="M80.794,229.556l156.735-90.5L219.588,31.89,62.84,122.394Z" transform="translate(8268.613 1928.218)" fill="#e7eef2"/><path d="M165.969,149.441l35.01-20.215a1.387,1.387,0,0,0,.668-1.284l-12.381-73.95c-.077-.475-.5-.642-.95-.385L153.228,73.783a1.4,1.4,0,0,0-.668,1.284l12.381,73.95a.591.591,0,0,0,1.027.424Z" transform="translate(8294.12 1934.358)" fill="#dae1e5"/><path d="M80.528,170.667l96.9-55.944a1.413,1.413,0,0,0,.668-1.284l-6.9-41.1c-.077-.475-.5-.642-.95-.385L73.348,127.8a1.4,1.4,0,0,0-.668,1.284l6.832,41.2a.6.6,0,0,0,1.015.385Z" transform="translate(8271.41 1939.575)" fill="#dae1e5"/><path d="M159.353,108.6l-19.945,11.559a1.426,1.426,0,0,0-.668,1.284l4.482,26.79c.077.475.514.642.963.385l19.945-11.559a1.374,1.374,0,0,0,.668-1.284l-4.482-26.79a.591.591,0,0,0-.963-.385Z" transform="translate(8290.191 1949.988)" fill="#dae1e5"/><path d="M118.77,132.962l4.482,26.842c.077.475.514.642.963.385l19.945-11.559a1.4,1.4,0,0,0,.668-1.284l-4.482-26.79a.591.591,0,0,0-.963-.385l-19.945,11.559A1.426,1.426,0,0,0,118.77,132.962Z" transform="translate(8284.514 1953.277)" fill="#dae1e5"/><path d="M98.8,144.5l4.482,26.79c.077.475.514.642.963.385l19.945-11.559a1.4,1.4,0,0,0,.668-1.284l-4.482-26.79a.591.591,0,0,0-.963-.385L99.468,143.219A1.426,1.426,0,0,0,98.8,144.5Z" transform="translate(8278.836 1956.544)" fill="#dae1e5"/><path d="M78.831,156.039,83.313,182.8c.077.475.514.642.963.385l19.945-11.559a1.4,1.4,0,0,0,.668-1.284l-4.482-26.79a.591.591,0,0,0-.963-.385L79.5,154.729A1.4,1.4,0,0,0,78.831,156.039Z" transform="translate(8273.159 1959.816)" fill="#dae1e5"/><path d="M152.967,72.17l35.01-20.2a1.426,1.426,0,0,0,.668-1.284L187.5,43.825a.591.591,0,0,0-.963-.385L151.529,63.6a1.374,1.374,0,0,0-.668,1.284L152,71.746a.591.591,0,0,0,.963.424Z" transform="translate(8293.637 1931.463)" fill="#dae1e5"/><path d="M73.077,116.218,91.815,105.4a1.426,1.426,0,0,0,.668-1.284l-1.156-6.858c-.077-.475-.5-.642-.95-.385L71.651,107.639a1.413,1.413,0,0,0-.681,1.284l1.156,6.858a.591.591,0,0,0,.95.437Z" transform="translate(8270.924 1946.659)" fill="#dae1e5"/><path d="M92.1,112.1l72.473-41.829a1.413,1.413,0,0,0,.668-1.284l-1.143-6.871a.591.591,0,0,0-.963-.385l-72.46,41.8a1.4,1.4,0,0,0-.681,1.284l1.156,6.858a.578.578,0,0,0,.95.424Z" transform="translate(8276.331 1936.663)" fill="#dae1e5"/><path d="M90.9,203.052l124.833-72.062A3.172,3.172,0,0,0,217.245,128L200.086,25.55,71.58,99.744,88.738,202.179a1.284,1.284,0,0,0,2.158.873Z" transform="translate(8271.099 1926.416)" fill="#fff"/><path d="M71.941,102.16,200.447,27.966l-1.618-9.7a1.284,1.284,0,0,0-2.158-.873L71.838,89.5a3.2,3.2,0,0,0-1.515,2.992Z" transform="translate(8270.737 1924)" fill="#4d7cff"/><ellipse cx="2.376" cy="1.631" rx="2.376" ry="1.631" transform="matrix(0.517, -0.856, 0.856, 0.517, 8462.076, 1950.523)" fill="#fff"/><ellipse cx="2.376" cy="1.631" rx="2.376" ry="1.631" transform="matrix(0.517, -0.856, 0.856, 0.517, 8456.57, 1953.713)" fill="#fff"/><ellipse cx="2.388" cy="1.639" rx="2.388" ry="1.639" transform="matrix(0.517, -0.856, 0.856, 0.517, 8451.729, 1956.124)" fill="#fff"/><path d="M155.344,65.349l14.679-8.476L167.442,41.41,152.75,49.886Z" transform="translate(8294.174 1930.925)" fill="#fff" stroke="#dae1e5" stroke-linecap="round" stroke-linejoin="round" stroke-width="0.31"/><path d="M143.9,71.949l14.692-8.476L156,48.01,141.32,56.486Z" transform="translate(8290.925 1932.801)" fill="#ffd073" stroke="#dae1e5" stroke-linecap="round" stroke-linejoin="round" stroke-width="0.31"/><path d="M132.474,78.549l14.679-8.476L144.572,54.61,129.88,63.1Z" transform="translate(8287.672 1934.677)" fill="#fff" stroke="#dae1e5" stroke-linecap="round" stroke-linejoin="round" stroke-width="0.31"/><path d="M121.031,85.159l14.692-8.489-2.594-15.45L118.45,69.7Z" transform="translate(8284.423 1936.557)" fill="#fff" stroke="#dae1e5" stroke-linecap="round" stroke-linejoin="round" stroke-width="0.31"/><path d="M109.6,91.759l14.679-8.476L121.7,67.82,107.01,76.3Z" transform="translate(8281.171 1938.433)" fill="#fff" stroke="#dae1e5" stroke-linecap="round" stroke-linejoin="round" stroke-width="0.31"/><path d="M98.161,98.359l14.692-8.476L110.259,74.42,95.58,82.9Z" transform="translate(8277.922 1940.309)" fill="#fff" stroke="#dae1e5" stroke-linecap="round" stroke-linejoin="round" stroke-width="0.31"/><path d="M86.734,104.959l14.679-8.476L98.832,81.02,84.14,89.5Z" transform="translate(8274.669 1942.186)" fill="#5abcff" stroke="#dae1e5" stroke-linecap="round" stroke-linejoin="round" stroke-width="0.31"/><path d="M157.351,77.389l14.692-8.476L169.449,53.45,154.77,61.926Z" transform="translate(8294.748 1934.348)" fill="#f3516f" stroke="#dae1e5" stroke-linecap="round" stroke-linejoin="round" stroke-width="0.31"/><path d="M145.924,83.989,160.6,75.513,158.022,60.05,143.33,68.526Z" transform="translate(8291.497 1936.224)" fill="#fff" stroke="#dae1e5" stroke-linecap="round" stroke-linejoin="round" stroke-width="0.31"/><path d="M134.481,90.6l14.692-8.489L146.579,66.65,131.9,75.126Z" transform="translate(8288.246 1938.1)" fill="#fff" stroke="#dae1e5" stroke-linecap="round" stroke-linejoin="round" stroke-width="0.31"/><path d="M123.054,97.2l14.679-8.476L135.152,73.25,120.46,81.739Z" transform="translate(8284.995 1939.977)" fill="#fff" stroke="#dae1e5" stroke-linecap="round" stroke-linejoin="round" stroke-width="0.31"/><path d="M111.624,103.8,126.3,95.323,123.709,79.86,109.03,88.336Z" transform="translate(8281.745 1941.856)" fill="#fff" stroke="#dae1e5" stroke-linecap="round" stroke-linejoin="round" stroke-width="0.31"/><path d="M100.184,110.4l14.692-8.476L112.282,86.46,97.59,94.936Z" transform="translate(8278.492 1943.732)" fill="#fff" stroke="#dae1e5" stroke-linecap="round" stroke-linejoin="round" stroke-width="0.31"/><path d="M88.741,117l14.692-8.476L100.839,93.06,86.16,101.536Z" transform="translate(8275.243 1945.609)" fill="#fff" stroke="#dae1e5" stroke-linecap="round" stroke-linejoin="round" stroke-width="0.31"/><path d="M159.374,89.429l14.692-8.476L171.472,65.49,156.78,73.966Z" transform="translate(8295.319 1937.771)" fill="#fff" stroke="#dae1e5" stroke-linecap="round" stroke-linejoin="round" stroke-width="0.31"/><path d="M147.944,96.029l14.679-8.476L160.029,72.09,145.35,80.566Z" transform="translate(8292.07 1939.647)" fill="#fff" stroke="#dae1e5" stroke-linecap="round" stroke-linejoin="round" stroke-width="0.31"/><path d="M136.5,102.629,151.2,94.153,148.6,78.69,133.91,87.179Z" transform="translate(8288.818 1941.523)" fill="#fff" stroke="#dae1e5" stroke-linecap="round" stroke-linejoin="round" stroke-width="0.31"/><path d="M125.074,109.239l14.679-8.489L137.16,85.3,122.48,93.776Z" transform="translate(8285.569 1943.402)" fill="#ffd073" stroke="#dae1e5" stroke-linecap="round" stroke-linejoin="round" stroke-width="0.31"/><path d="M113.631,115.839l14.692-8.476L125.729,91.9l-14.679,8.476Z" transform="translate(8282.319 1945.279)" fill="#fff" stroke="#dae1e5" stroke-linecap="round" stroke-linejoin="round" stroke-width="0.31"/><path d="M102.2,122.439l14.679-8.476L114.3,98.5,99.61,106.976Z" transform="translate(8279.067 1947.155)" fill="#fff" stroke="#dae1e5" stroke-linecap="round" stroke-linejoin="round" stroke-width="0.31"/><path d="M90.764,129.039l14.692-8.476L102.862,105.1,88.17,113.576Z" transform="translate(8275.814 1949.031)" fill="#fff" stroke="#dae1e5" stroke-linecap="round" stroke-linejoin="round" stroke-width="0.31"/><path d="M161.394,101.469l14.679-8.476L173.492,77.53,158.8,86.006Z" transform="translate(8295.894 1941.193)" fill="#fff" stroke="#dae1e5" stroke-linecap="round" stroke-linejoin="round" stroke-width="0.31"/><path d="M149.951,108.069l14.692-8.476L162.049,84.13,147.37,92.606Z" transform="translate(8292.645 1943.07)" fill="#5abcff" stroke="#dae1e5" stroke-linecap="round" stroke-linejoin="round" stroke-width="0.31"/><path d="M138.524,114.669l14.679-8.476L150.622,90.73,135.93,99.206Z" transform="translate(8289.393 1944.946)" fill="#fff" stroke="#dae1e5" stroke-linecap="round" stroke-linejoin="round" stroke-width="0.31"/><path d="M127.081,121.282l14.692-8.489L139.179,97.33,124.5,105.819Z" transform="translate(8286.144 1946.823)" fill="#fff" stroke="#dae1e5" stroke-linecap="round" stroke-linejoin="round" stroke-width="0.31"/><path d="M115.654,127.879l14.679-8.476-2.581-15.463-14.692,8.476Z" transform="translate(8282.891 1948.702)" fill="#fff" stroke="#dae1e5" stroke-linecap="round" stroke-linejoin="round" stroke-width="0.31"/><path d="M104.211,134.479,118.9,126l-2.594-15.463-14.679,8.476Z" transform="translate(8279.642 1950.578)" fill="#f3516f" stroke="#dae1e5" stroke-linecap="round" stroke-linejoin="round" stroke-width="0.31"/><path d="M92.784,141.079l14.679-8.476-2.581-15.463L90.19,125.616Z" transform="translate(8276.389 1952.454)" fill="#fff" stroke="#dae1e5" stroke-linecap="round" stroke-linejoin="round" stroke-width="0.31"/><path d="M163.4,113.509l14.692-8.476L175.5,89.57,160.82,98.046Z" transform="translate(8296.468 1944.616)" fill="#fff" stroke="#dae1e5" stroke-linecap="round" stroke-linejoin="round" stroke-width="0.31"/><path d="M151.974,120.109l14.679-8.476L164.072,96.17l-14.692,8.476Z" transform="translate(8293.217 1946.493)" fill="#fff" stroke="#dae1e5" stroke-linecap="round" stroke-linejoin="round" stroke-width="0.31"/><path d="M140.531,126.709l14.692-8.476-2.594-15.463-14.679,8.476Z" transform="translate(8289.967 1948.369)" fill="#fff" stroke="#dae1e5" stroke-linecap="round" stroke-linejoin="round" stroke-width="0.31"/><path d="M129.1,133.322l14.679-8.489L141.2,109.37l-14.692,8.489Z" transform="translate(8286.715 1950.245)" fill="#fff" stroke="#dae1e5" stroke-linecap="round" stroke-linejoin="round" stroke-width="0.31"/><path d="M117.661,139.919l14.692-8.476-2.594-15.463-14.679,8.476Z" transform="translate(8283.465 1952.125)" fill="#5b5b72" stroke="#dae1e5" stroke-linecap="round" stroke-linejoin="round" stroke-width="0.31"/><path d="M106.234,146.519l14.679-8.476-2.581-15.463-14.692,8.476Z" transform="translate(8280.212 1954.001)" fill="#fff" stroke="#dae1e5" stroke-linecap="round" stroke-linejoin="round" stroke-width="0.31"/><path d="M94.791,153.119l14.692-8.476-2.594-15.463L92.21,137.656Z" transform="translate(8276.963 1955.877)" fill="#fff" stroke="#dae1e5" stroke-linecap="round" stroke-linejoin="round" stroke-width="0.31"/><ellipse cx="3.57" cy="2.453" rx="3.57" ry="2.453" transform="translate(8454.218 2001.567) rotate(-58.83)" fill="#fff"/><path d="M162.338,63.788a.372.372,0,0,0,.18-.193l.591-1.13c.09-.18.064-.36-.064-.411s-.3,0-.385.218l-.437.822-1.438-.539a.348.348,0,0,0-.385.218.322.322,0,0,0,.077.411l1.657.629a.231.231,0,0,0,.206-.026Z" transform="translate(8296.338 1936.789)" fill="#f3516f"/><ellipse cx="3.57" cy="2.453" rx="3.57" ry="2.453" transform="translate(8385.963 2074.884) rotate(-58.83)" fill="#fff"/><path d="M109.183,120.878a.527.527,0,0,0,.18-.193l.591-1.13a.611.611,0,0,0,0-.411c0-.051-.308,0-.4.218l-.424.822-1.438-.552a.372.372,0,0,0-.385.231.338.338,0,0,0,.077.411l1.657.629a.231.231,0,0,0,.141-.026Z" transform="translate(8281.245 1953.019)" fill="#f3516f"/><ellipse cx="3.57" cy="2.453" rx="3.57" ry="2.453" transform="translate(8363.507 2036.969) rotate(-58.83)" fill="#fff"/><path d="M91.718,91.388a.411.411,0,0,0,.167-.193l.591-1.13a.363.363,0,0,0-.064-.411c-.064-.051-.3,0-.385.218l-.424.822L90.164,90.1a.334.334,0,0,0-.385.231.572.572,0,0,0,0,.4l1.67.642a.321.321,0,0,0,.27.013Z" transform="translate(8276.261 1944.635)" fill="#5abcff"/><ellipse cx="3.588" cy="2.465" rx="3.588" ry="2.465" transform="matrix(0.517, -0.856, 0.856, 0.517, 8413.667, 2042.046)" fill="#fff"/><path d="M130.048,95.641a.437.437,0,0,0,.18-.193l.591-1.143a.364.364,0,0,0-.064-.411c-.064-.051-.3,0-.385.218l-.437.835-1.426-.552a.359.359,0,0,0-.4.231c-.09.231,0,.36.077.411l1.657.629a.231.231,0,0,0,.206-.026Z" transform="translate(8287.158 1945.84)" fill="#ffd073"/><ellipse cx="3.57" cy="2.453" rx="3.57" ry="2.453" transform="translate(8436.938 1994.584) rotate(-58.83)" fill="#fff"/><path d="M148.888,58.386a.527.527,0,0,0,.18-.193l.591-1.13a.363.363,0,0,0-.064-.411.347.347,0,0,0-.4.218l-.424.822-1.438-.591a.345.345,0,0,0-.385.231c-.09.231,0,.36.077.4l1.657.642A.3.3,0,0,0,148.888,58.386Z" transform="translate(8292.515 1935.256)" fill="#ffd073"/><ellipse cx="3.57" cy="2.453" rx="3.57" ry="2.453" transform="translate(8444.703 2040.971) rotate(-58.83)" fill="#fff"/><path d="M154.923,94.466a.527.527,0,0,0,.18-.193l.591-1.13a.611.611,0,0,0,0-.411.347.347,0,0,0-.4.218l-.424.822-1.438-.539a.345.345,0,0,0-.385.231c-.09.231,0,.36.077.4l1.657.629A.231.231,0,0,0,154.923,94.466Z" transform="translate(8294.248 1945.513)" fill="#5abcff"/><ellipse cx="3.57" cy="2.453" rx="3.57" ry="2.453" transform="translate(8403.232 2081.88) rotate(-58.83)" fill="#fff"/><path d="M122.648,126.322a.655.655,0,0,0,.18-.193l.591-1.13a.656.656,0,0,0,0-.424c0-.064-.3,0-.4.218l-.424.835-1.5-.5a.345.345,0,0,0-.385.231c-.09.231,0,.36.077.411l1.657.629a.231.231,0,0,0,.205-.077Z" transform="translate(8285.054 1954.561)" fill="#5b5b72"/><path d="M285.27,109.465l1.708,1.284a31.861,31.861,0,0,0,4.174-4.893c1.824-2.71,2.569-4.444,2.042-5.137s-2.26-.321-3.673,2.029S285.27,109.465,285.27,109.465Z" transform="translate(8331.849 1947.697)" fill="#b3ebff"/><path d="M294.353,95.6c-1.682-.86-2.851,1.079-3.712,2.967s-2.325,6.665-1.361,7.154,3.069-1.092,3.545-2.9A18.069,18.069,0,0,1,295,98.743a2.247,2.247,0,0,0-.642-3.146Z" transform="translate(8332.898 1946.27)" fill="#b3ebff"/><path d="M286.254,107.62s0,.372-.886.95-2.081.8-2.17,1.862c-.116,1.284-.668,1.862-.231,2.248s1.284-.18,2.042-.925a10.608,10.608,0,0,0,2.35-3.3Z" transform="translate(8331.147 1949.748)" fill="#ffccd1"/><path d="M285.338,107.46l-.308.45,1.631,1.233.385-.411Z" transform="translate(8331.78 1949.703)" fill="#fff"/><path d="M295.264,137.53l.283,2.761-1.49.488-.244-.719a4.777,4.777,0,0,1-2.967,1.438c-2.2.321-3.776.167-3.776-.3s2.569-1.4,3.66-2.158a5.137,5.137,0,0,0,1.349-1.515Z" transform="translate(8332.361 1958.251)" fill="#313133"/><path d="M299.346,139.8a15.052,15.052,0,0,1,.193,2.016c0,.976-.591,2.774-2.273,2.774s-.565-4.79-.565-4.79Z" transform="translate(8334.995 1958.896)" fill="#313133"/><path d="M291,108.61v37.142a4.6,4.6,0,0,0,2.569.45,1.182,1.182,0,0,0,.668-.45l3.108-37.142Z" transform="translate(8333.478 1950.029)" fill="#5b5b72"/><path d="M292.93,146.2a1.182,1.182,0,0,0,.668-.45l3.108-37.142h-1.117Z" transform="translate(8334.027 1950.029)" opacity="0.1"/><path d="M294.34,108.61l2.427,39.98a2.941,2.941,0,0,0,2.8.411,3.043,3.043,0,0,0,.848-.411l.527-39.98Z" transform="translate(8334.428 1950.029)" fill="#5b5b72"/><path d="M297.22,108.61,298.748,149a3.043,3.043,0,0,0,.848-.411l.527-39.98Z" transform="translate(8335.246 1950.029)" opacity="0.1"/><path d="M291.235,115.239c1.027,2.248,6.088,2.7,8.99,2.325h0a3.841,3.841,0,0,0,.912-.167c2.684-.6,1.451-6.075,1.451-8.438,0-2.132,2.247-6.781,1.862-9.414a3.5,3.5,0,0,0-.231-.783c-1.156-2.363-4.7-3.3-4.7-3.3l-4.585-.411s-2.954,0-3.724,1.644c-.9,1.914,0,6.935,0,10.03S290.079,112.748,291.235,115.239Z" transform="translate(8333.396 1946.174)" fill="#b3ebff"/><path d="M298.6,96.28l-.205,2.055-3.134.462-1.117-2.928.334-3.7,3.622.077Z" transform="translate(8334.37 1945.356)" fill="#ffccd1"/><path d="M298.349,95.37l-3.339,2.517.835,2.016,3.442-3.468-.334-.86Z" transform="translate(8334.617 1946.265)" fill="#fff"/><path d="M295.468,97.978,294.35,95.05l-.732.039-.218.706.18,3.391Z" transform="translate(8334.16 1946.174)" fill="#fff"/><path d="M298.266,116.569h0a3.841,3.841,0,0,0,.912-.167c2.684-.6,1.451-6.075,1.451-8.438,0-2.132,2.248-6.781,1.862-9.414-1.785-.141-3.416,4.508-3.994,8.515S297.354,116.544,298.266,116.569Z" transform="translate(8335.407 1947.169)" opacity="0.1"/><path d="M293.412,88.534a5.908,5.908,0,0,0-.732,2.864c0,1.7,0,5.407,1.7,5.407a7.706,7.706,0,0,0,4.855-1.824,13.059,13.059,0,0,0,.95-3.236c0-.976-.758-3.7-2.954-4.29C294.375,86.7,293.733,87.841,293.412,88.534Z" transform="translate(8333.955 1943.944)" fill="#ffccd1"/><path d="M299.23,95.2l-.206-.128a.385.385,0,0,1-.1-.527,4.806,4.806,0,0,0,.719-1.477c.167-.809-.334-1.284-.848-.732a3.571,3.571,0,0,0-.655,1.027l-.244-.09a5.5,5.5,0,0,0,.206-2.915c-.3-.835-1.361.886-3.057.539a5.047,5.047,0,0,1-2.363-.976,4.058,4.058,0,0,1,4.11-3.506c3.673,0,4.007,3.635,4.007,4.932A6.524,6.524,0,0,1,299.23,95.2Z" transform="translate(8333.955 1943.721)" fill="#313133"/><path d="M294.32,113.666c-.141-.167.334-.822,1.284-1.284.539-.283,1.284.1,1.708-.18s.873-.642.873-.642l1.169,1.284a11.7,11.7,0,0,0-1.284.938c-.514.449-.154.706-1.682,1.618-1.182.706-2.569.437-2.8-.128s.642-.745,1.413-1.284.809-.925.809-.925S294.6,113.987,294.32,113.666Z" transform="translate(8334.203 1950.868)" fill="#ffccd1"/><path d="M297.173,111.41l-.783.578a2.723,2.723,0,0,0,.706,1.284,2.325,2.325,0,0,0,1.117.591l.668-.642a5.226,5.226,0,0,1-1.053-.835,3.748,3.748,0,0,1-.655-.976Z" transform="translate(8335.011 1950.825)" fill="#fff"/><path d="M297.276,116.987a2.157,2.157,0,0,0,1.015.642,1.194,1.194,0,0,0,.488,0s5.137-5.137,5.677-6.421-.771-10.454-1.464-12.3-2.427-2.7-3.506-1.978a1.167,1.167,0,0,0-.27.231c-1.182,1.284.437,5.278.861,7.076s.912,5.343.912,5.343l-4.225,5.985S296.454,116.152,297.276,116.987Z" transform="translate(8335.1 1946.635)" fill="#b3ebff"/><path d="M269.776,111.005v-1.747s1.824,1.143,2.209,0a12.843,12.843,0,0,0,.244-5.445c-.385-1.284-3.609-2.915-4.739-.963s-.283,7.372-.283,7.372Z" transform="translate(8326.627 1948.135)" fill="#ffccd1"/><path d="M268.963,99.67s3.622.5,4.367,1.824.5,2.98-1.284,4.392-2.042,3.1-3.712,3.1-2.71-2.106-2.813-4.328S267.088,99.85,268.963,99.67Z" transform="translate(8326.232 1947.488)" fill="#313133"/><path d="M264.33,101.658c0,1.515.527,4.2,2.042,4.2s3.108-2.941,3.108-4.457-.321-2.4-1.837-2.4S264.33,100.143,264.33,101.658Z" transform="translate(8325.896 1947.297)" fill="#313133"/><path d="M266.821,147.423c-1.015.116-1.182,1.657-.95,2.389a11.16,11.16,0,0,0,2.71,4.341,6.628,6.628,0,0,1,1.079.835s-.539-1.284-1.015-2.466a9.144,9.144,0,0,1-.835-3.583C267.925,147.423,267.347,147.371,266.821,147.423Z" transform="translate(8326.308 1961.06)" fill="#ffccd1"/><path d="M268.974,138.6a3.288,3.288,0,0,0-.616,1.785,45.094,45.094,0,0,0-.1,6.421c.154,3.134.693,7,.938,8.489.077.514.437.128.95.128h0a1.066,1.066,0,0,0,1.066-.989l1-14.615C272.275,138.394,270.336,136.776,268.974,138.6Z" transform="translate(8326.992 1958.324)" fill="#ffccd1"/><path d="M269.982,149.764c-1,.1-1.194,1.644-.95,2.376a10.892,10.892,0,0,0,2.723,4.341,9.051,9.051,0,0,1,1.117.86s-.706-1.413-1.182-2.569a8.619,8.619,0,0,1-.719-3.468C271.086,149.751,270.547,149.7,269.982,149.764Z" transform="translate(8327.205 1961.724)" fill="#ffccd1"/><path d="M265.8,136.263a3.352,3.352,0,0,0-.6,1.8,42.391,42.391,0,0,0-.116,6.421c.154,3.134.706,7.012.95,8.489.077.514.424.128.95.128h0a1.066,1.066,0,0,0,1.066-.989l.989-14.628C269.118,136.07,267.179,134.4,265.8,136.263Z" transform="translate(8326.091 1957.656)" fill="#ffccd1"/><path d="M270.348,144.726h0a1.914,1.914,0,0,0,1.914-1.837l.424-13.305a2.337,2.337,0,0,0-2.337-2.414h0a2.337,2.337,0,0,0-2.337,2.414l.424,13.305a1.914,1.914,0,0,0,1.914,1.837Z" transform="translate(8326.941 1955.306)" fill="#ffccd1"/><path d="M267.047,142.373h0a1.914,1.914,0,0,0,2.068-1.67l1.605-13.2a2.337,2.337,0,0,0-2.119-2.569h0a2.35,2.35,0,0,0-2.569,2.2l-.732,13.305a1.914,1.914,0,0,0,1.747,1.939Z" transform="translate(8326.171 1954.667)" fill="#ffccd1"/><path d="M275.182,115.15s.706.925-.27,2.427a2.415,2.415,0,0,1-.552-1.361C274.373,115.5,275.182,115.15,275.182,115.15Z" transform="translate(8328.748 1951.889)" fill="#4d7cff"/><path d="M281.185,115.924c.116-.36-.642-1.13-1.7-1.284a6.717,6.717,0,0,0-3.712,1.117H274.16l.205,1.605,1.387-.116a.95.95,0,0,0,.642.411c.462.077,1.4-.244,2.029-.141s.938.488,1.169.257-.141-.616-.655-.745l-1.143-.321a2.145,2.145,0,0,1,1.348-.6C280.055,116,280.928,116.721,281.185,115.924Z" transform="translate(8328.69 1951.744)" fill="#ffccd1"/><path d="M266.911,109.6c.912,1.657,1.631,4.752,2.466,6.01s1.5,2.363.372,3.519-3.057-1.451-3.66-2.928a44.254,44.254,0,0,1-1.759-5.664c-.206-1,.347-1.284.989-1.528a1.181,1.181,0,0,1,1.592.591Z" transform="translate(8325.884 1950.109)" fill="#b3ebff"/><path d="M277.33,115.289a2.569,2.569,0,0,0-.527,1.117,2.042,2.042,0,0,0,.257,1.284,41.677,41.677,0,0,1-5.137.616c-1.49,0-3.853-.077-4.842-1.284s.886-2.569,2.26-2.337a24.67,24.67,0,0,0,4.585.552Z" transform="translate(8326.6 1951.749)" fill="#b3ebff"/><path d="M265.016,138.987a10.274,10.274,0,0,0,7.95,2.44,7.911,7.911,0,0,0,1.477-.27,38.529,38.529,0,0,1,.334-9.067,52.946,52.946,0,0,0,0-7.706h0s-.886-.539-1.837-1.027a10.121,10.121,0,0,0-2.376-.963c-1.387-.257-4.354-1.49-5.445.321s-1.066,6.691,0,9.555A12.946,12.946,0,0,1,265.016,138.987Z" transform="translate(8325.89 1953.764)" fill="#5b5b72"/><path d="M270.855,110.793l.077-1.284a7.462,7.462,0,0,0-2.864-1.284c-1.426-.244-1.618-.128-1.618-.128v1.426Z" transform="translate(8326.499 1949.875)" fill="#fff"/><path d="M265.123,126.436a6.627,6.627,0,0,0,4.778,2.222,11.917,11.917,0,0,0,3.262-.077,7.027,7.027,0,0,0,1.618-.475l.334-.167s-1.361-7.192-1.567-9.221.552-5.831.141-6.987a2.941,2.941,0,0,0-1.284-1.284,10,10,0,0,0-2.35-1.015c-3.57-.989-5.317-.886-5.7.167s1.284,7.513,1.515,9.478A27.5,27.5,0,0,1,265.123,126.436Z" transform="translate(8325.886 1950.068)" fill="#b3ebff"/><path d="M269.838,118.359c.308,3.147,1.04,5.42,1.541,8.348.077.475.154.976.218,1.5s.154,1.464.206,2.273a102.93,102.93,0,0,1-.4,14.269,7.912,7.912,0,0,0,1.477-.27,38.527,38.527,0,0,1,.334-9.067,52.938,52.938,0,0,0,0-7.706h0l.334-.167s-1.361-7.192-1.567-9.221.552-5.831.141-6.987a2.941,2.941,0,0,0-1.284-1.284A23.964,23.964,0,0,0,269.838,118.359Z" transform="translate(8327.451 1950.439)" opacity="0.1"/><path d="M277.594,113.605a3.852,3.852,0,0,1,.193-1.605c.3-.758.424-1.207.783-1.117s-.09.848-.283,1.438-.128,1.053-.372,1.284Z" transform="translate(8329.662 1950.672)" fill="#ffccd1"/><path d="M282.635,111.136c-.1-.385-1.194-.873-2.222-.45a6.062,6.062,0,0,0-2.569,2.774l-1.464.848,1.04,1.284,1.194-.86a.694.694,0,0,0,.809,0c.527-.4.745-1.284,1.4-1.939S282.84,111.945,282.635,111.136Z" transform="translate(8329.322 1950.573)" fill="#ffccd1"/><path d="M278.681,112.76a2.4,2.4,0,0,0,.27,1.194,2.119,2.119,0,0,0,1,.9,43.82,43.82,0,0,1-3.686,3.609c-1.194.886-3.082,2.286-4.6,1.952s-.912-2.569.347-3.236a23.812,23.812,0,0,0,3.968-2.363Z" transform="translate(8327.728 1951.209)" fill="#b3ebff"/><path d="M276.972,112.76s1.13.3,1.284,2.093a2.466,2.466,0,0,1-1.284-.745A1.284,1.284,0,0,1,276.972,112.76Z" transform="translate(8329.436 1951.209)" fill="#b3ebff"/><path d="M272.216,111.1c.488,1.837.449,5.009.963,6.421s.912,2.646-.462,3.493-2.569-2.119-2.864-3.7a45.039,45.039,0,0,1-.372-5.921c0-1.027.629-1.13,1.284-1.284a1.194,1.194,0,0,1,1.451.989Z" transform="translate(8327.359 1950.446)" fill="#b3ebff"/><path d="M270.42,155.115h-3.069l-.706-.822v.822H265.45v-4.546c0-.886.141-1.438.514-1.438s1,1.618,1.5,2.761S269.38,153.985,270.42,155.115Z" transform="translate(8326.214 1961.549)" fill="#313133"/><path d="M273.577,157.445h-3.057l-.706-.822v.822H268.62v-4.534c0-.886.141-1.451.514-1.451s1,1.618,1.5,2.761S272.537,156.315,273.577,157.445Z" transform="translate(8327.115 1962.211)" fill="#313133"/><path d="M89.206,169.48c-.873-.283-2.363.835-2.71,2.389s-.963,4.932-1.284,6.165-1.759,4.238-.488,4.8,1.862-1.284,2.35-2.427,1.67-6.01,2.158-7.32S90.658,169.955,89.206,169.48Z" transform="translate(8274.688 1967.322)" fill="#b3ebff"/><path d="M81.944,174.77s-.886,0-1.284,1.374a1.811,1.811,0,0,0,1.04-.372,1,1,0,0,0,.244-1Z" transform="translate(8273.679 1968.838)" fill="#4d7cff"/><path d="M91.585,215.3l-.822.475a2.44,2.44,0,0,1-1.49,1.194,4.6,4.6,0,0,1-2.119,0c-.411-.308,1.284-2.466,1.554-3.1s1.952-3.172,2.569-3.172.745.9.6,1.631a14.55,14.55,0,0,0-.3,2.967Z" transform="translate(8275.508 1979.053)" fill="#313133"/><path d="M91.939,219.795c-.86,0-.86-1.451-.642-2.286s.732-2.17.86-2.659.771-2.35,1.284-2.35,1.027.205,1.027.848v2.992l-.385.527s-.218.886-.36,1.284S92.915,219.795,91.939,219.795Z" transform="translate(8276.669 1979.565)" fill="#313133"/><path d="M89.015,199.271c-.912,0-1.875.167-1.875.694s1.464,6.653,1.644,8.656.681,6.421.629,6.755-1.618,3.288-.95,3.57c.873.372,1.284-.886,1.721-1.978a28.359,28.359,0,0,0,1.04-2.89,67.041,67.041,0,0,0,0-9.337C90.7,202.469,90.518,199.155,89.015,199.271Z" transform="translate(8275.522 1975.803)" fill="#ffccd1"/><path d="M90.562,199.408c-.886.231-1.811.5-1.721,1.027s2.376,9.093,2.9,11.032,1.451,5.33,1.451,5.625-1.284,4.148-.372,4.251,1.284-.616,1.528-2.363a16.875,16.875,0,0,0,.141-3.455c0-.565,0-3.3,0-4.893a27.06,27.06,0,0,0-.822-7.012C92.9,201.463,92.014,199.036,90.562,199.408Z" transform="translate(8276.003 1975.832)" fill="#ffccd1"/><path d="M88.793,188.83c-2.119,0-2.016,4.636-1.991,7.218a73.638,73.638,0,0,0,.539,7.706,1.952,1.952,0,0,0,1.952,1.528,2.684,2.684,0,0,0,1.682-2.273c0-.886-.205-8.8-.257-10.66S90.539,188.8,88.793,188.83Z" transform="translate(8275.423 1972.835)" fill="#ffccd1"/><path d="M93.258,189.005c-2.093-.385-2.915,4.148-3.391,6.678a76.2,76.2,0,0,0-1.027,7.706c0,.809.758,1.888,1.618,1.888a2.671,2.671,0,0,0,2.093-1.888c.218-.86,1.567-8.669,1.888-10.493S94.979,189.339,93.258,189.005Z" transform="translate(8276.005 1972.879)" fill="#ffccd1"/><path d="M86,190.428c.205,3.519.694,10.018.694,10.018a14.2,14.2,0,0,0,4.623,2.055l.642.077a4.8,4.8,0,0,0,3.069-.925c0-2.376,1.862-11.661,1.734-14a15.54,15.54,0,0,0-1.772-5.291s-1.284-.141-2.646-.193H91.061a36.443,36.443,0,0,0-4.354.45A37.809,37.809,0,0,0,86,190.428Z" transform="translate(8275.196 1970.942)" fill="#5b5b72"/><path d="M90.64,202.616a4.8,4.8,0,0,0,3.069-.925c0-2.376,1.862-11.661,1.734-14a15.54,15.54,0,0,0-1.772-5.33s-1.284-.141-2.646-.193a33.251,33.251,0,0,1,.771,8.759C91.539,193.741,90.948,199.932,90.64,202.616Z" transform="translate(8276.517 1970.942)" opacity="0.1"/><path d="M95.355,164.173a1.939,1.939,0,0,1,.9,1.734,4.919,4.919,0,0,1-3.673,4.058c-2.222.27-3.044-2.569-2.427-4.187S93.866,162.824,95.355,164.173Z" transform="translate(8276.322 1965.668)" fill="#313133"/><path d="M89.383,161.474s-.938.334-1.182.938a8,8,0,0,0-.231,2.4,2.4,2.4,0,0,1-.488,1.284c-.411.552.141,2.132.385,2.569s1.053-.591,1.515-2.247S90,161.153,89.383,161.474Z" transform="translate(8275.577 1965.053)" fill="#313133"/><path d="M86.025,177.945c.514,1.593,1.374,2.042,1.284,3.66a41.971,41.971,0,0,1-1.284,6.062,6.986,6.986,0,0,0,3.031,1.618,8.988,8.988,0,0,0,.437-1.811,14.267,14.267,0,0,0,.385,1.952,26.968,26.968,0,0,0,3.069-.347,10.107,10.107,0,0,0,1.284-.27,6.652,6.652,0,0,0,2.209-.976s-2.209-5.214-2.389-5.805a5.047,5.047,0,0,1,.681-2.864c.539-1.284,1.644-5.689.989-7.706l-.771-.437a13.805,13.805,0,0,0-2.992-1.194c-2.7-.681-4.033-.514-4.546.693S85.511,176.365,86.025,177.945Z" transform="translate(8275.173 1967.32)" fill="#b3ebff"/><path d="M89.61,179.383c.8.4,1.413,3.224,1.734,4.713.244,1.143.488,3.545.578,4.611a10.1,10.1,0,0,0,1.284-.27,6.653,6.653,0,0,0,2.209-.976s-2.209-5.214-2.389-5.805a5.047,5.047,0,0,1,.681-2.864c.539-1.284,1.644-5.689.989-7.706l-.771-.437a22.385,22.385,0,0,1-.527,6.165C92.551,179.293,89.61,179.383,89.61,179.383Z" transform="translate(8276.225 1967.667)" opacity="0.1"/><path d="M92.587,168.494l-.257,2.941s-1.027,2.325-1.8,2.325c-1.593,0-1.182-2.376-1.182-3.108s.4-5.291.4-5.291l3.275.167Z" transform="translate(8276.137 1966.163)" fill="#ffccd1"/><path d="M88.724,162.52a14.962,14.962,0,0,0-1.284,4.893c0,2.093.938,3.622,1.477,3.647a4.2,4.2,0,0,0,3.3-3.069c.347-2.081.8-5.137.8-5.137Z" transform="translate(8275.607 1965.356)" fill="#ffccd1"/><path d="M88.444,162.93s1.811,3.853,3.7,4.444,3.185.514,3.57-1.528A4.033,4.033,0,0,0,92,161.107C89.24,160.888,88.277,161.89,88.444,162.93Z" transform="translate(8275.888 1964.945)" fill="#313133"/><ellipse cx="1.079" cy="0.719" rx="1.079" ry="0.719" transform="translate(8367.86 2133.994) rotate(-62.13)" fill="#ffccd1"/><path d="M92.6,170.287l-.372-.347-2.5,2.119.886.873Z" transform="translate(8276.256 1967.465)" fill="#fff"/><path d="M90,172.2l-1.284.462.334-3.224.462.064Z" transform="translate(8275.971 1967.323)" fill="#fff"/><path d="M93.769,171.111a3.853,3.853,0,0,1,2,3.339c0,1.438.719,6.075-.732,6.357s-1.772-2-2.042-3.545c-.193-1.156-.616-5.381-.128-6.653A8.661,8.661,0,0,0,93.769,171.111Z" transform="translate(8277.086 1967.656)" fill="#b3ebff"/><path d="M89.069,176.45s-.642.6-.077,1.837a1.772,1.772,0,0,0,.565-.95C89.646,176.8,89.069,176.45,89.069,176.45Z" transform="translate(8275.981 1969.316)" fill="#4d7cff"/><path d="M85.4,176.915c-.077-.27.514-.835,1.284-.925a5.137,5.137,0,0,1,2.787.925h1.284l-.193,1.207-1.053-.128a.732.732,0,0,1-.5.308,10.04,10.04,0,0,0-1.515-.154c-.475.064-.719.334-.886.154s.116-.449.514-.539l.86-.218a1.682,1.682,0,0,0-1-.488C86.262,177,85.581,177.531,85.4,176.915Z" transform="translate(8275.025 1969.185)" fill="#ffccd1"/><path d="M89.017,176.45a1.721,1.721,0,0,1,.257.886,1.528,1.528,0,0,1-.334.95,31.411,31.411,0,0,0,3.75,1.053c1.117.154,2.877.4,3.75-.385s-.347-2.055-1.4-2a19.663,19.663,0,0,1-3.493-.116C90.558,176.668,89.017,176.45,89.017,176.45Z" transform="translate(8276.033 1969.316)" fill="#b3ebff"/><path d="M78.71,172.745c.116-.257.925-.321,1.605.1a5.137,5.137,0,0,1,1.567,2.492l.925.783-.912.809-.732-.758a.719.719,0,0,1-.578-.077c-.3-.18-.668-.835-1.079-1.079s-.783-.193-.8-.437.385-.283.745-.1l.809.385a1.644,1.644,0,0,0-.462-1.015C79.314,173.349,78.454,173.323,78.71,172.745Z" transform="translate(8273.112 1968.205)" fill="#ffccd1"/><path d="M81.933,174.77a1.939,1.939,0,0,1-.372.848,1.554,1.554,0,0,1-.86.527,31.545,31.545,0,0,0,2.235,3.2c.719.86,2,2.145,3.147,2.145s1.027-1.824.18-2.453a18.864,18.864,0,0,1-2.569-2.3Z" transform="translate(8273.691 1968.838)" fill="#b3ebff"/><path d="M80.262,186.914c-.128-.18-.873.128-1.593.938-.4.45-.193,1.284-.578,1.593s-.822.694-.822.694l1,1.438a12.072,12.072,0,0,1,1.284-1.04c.552-.385.783.257,2.106-.925a2.093,2.093,0,0,0,.527-2.684c-.372-.45-1.053.077-1.747.694s-1.04.565-1.04.565S80.506,187.261,80.262,186.914Z" transform="translate(8272.716 1972.247)" fill="#ffccd1"/><path d="M78.73,191.035l.616-.411a7.193,7.193,0,0,0-.719-1.053c-.411-.514-.719-.86-.719-.86l-.668.411Z" transform="translate(8272.708 1972.801)" fill="#fff"/><path d="M63.77,223.095s-.18,2.453-.18,2.761.565.629,1.567.629,1.772-1.67,1.772-1.67a7.334,7.334,0,0,0,3.121-.437c1.438-.6,2.132-1.284,2.042-1.734s-2.042-.475-3.249-.475H67.25Z" transform="translate(8268.827 1982.314)" fill="#313133"/><path d="M68.167,226.039S68,228.492,68,228.813s.578.642,1.58.642,1.772-1.67,1.772-1.67a7.282,7.282,0,0,0,3.108-.437c1.438-.6,2.145-1.284,2.042-1.747s-2.042-.462-3.249-.462H71.647Z" transform="translate(8270.081 1983.158)" fill="#313133"/><path d="M72.421,173.4a19.676,19.676,0,0,1,.437,3.545c0,1.567-.668,5.009-1.284,5.009a9.518,9.518,0,0,1-1.837-.36l-.424,2.774L66,183.53l.514-4.649s.128-5.754,2.235-5.895a9.9,9.9,0,0,1,3.673.411Z" transform="translate(8269.512 1968.323)" fill="#ffccd1"/><path d="M67.79,180.794c-1.464,0-2.492-2.723-2.569-4.726s.36-4.508,3.211-4.675,5.317,1.464,5.317,1.914-.539,1.515-1.477,1.426-.822,1.67-.822,2.569-1.284,0-1.426.334S69.6,180.794,67.79,180.794Z" transform="translate(8269.288 1967.875)" fill="#313133"/><path d="M69.887,182.5l.205-1.631a11.559,11.559,0,0,0-3.2-1.284c-1.4-.231-1.284.231-1.284.231v1.4Z" transform="translate(8269.399 1970.189)" fill="#fff"/><path d="M64.038,201.821c-.167.077-.552-.514-.668-1.464,0-.514.475-1,.372-1.426s-.257-.912-.257-.912l1.426-.539a9.952,9.952,0,0,0,.347,1.348c.205.552.681.206,1.04,1.708a1.811,1.811,0,0,1-.938,2.2c-.475.154-.706-.578-.9-1.361s-.45-.925-.45-.925S64.385,201.692,64.038,201.821Z" transform="translate(8268.764 1975.295)" fill="#ffccd1"/><path d="M63.313,198.949a2.787,2.787,0,0,0,1.284,0,3.07,3.07,0,0,0,1.156-.539l-.167-.719-2.466.539Z" transform="translate(8268.692 1975.354)" fill="#fff"/><path d="M64.971,180.694c-.925-1.182-2.376,3.224-2.787,6.1s-.732,5.137-.86,5.933.591,1.284,1.374,1.426,1.888.257,2.414-2.312S67.167,183.493,64.971,180.694Z" transform="translate(8268.179 1970.466)" fill="#a3d8e5"/><path d="M64.831,189.9s.231,3.853.565,5.766c.167,1,.809,3.468.912,4.559a3.172,3.172,0,0,1-1.284.655c-1.593.36-1.747-.128-1.747-.128a81.863,81.863,0,0,1-1.926-9.838C61.222,189.041,64.3,187.1,64.831,189.9Z" transform="translate(8268.188 1972.74)" fill="#a3d8e5"/><path d="M62.88,197.61s.86,14.371.989,18.507c.116,3.442.1,13.96.1,13.96s2.312.629,3.429-.4c0,0,1.117-9.863,1.374-13.151.3-3.93.822-16.991.822-16.991Z" transform="translate(8268.625 1975.332)" fill="#5b5b72"/><path d="M66.81,198.6s.09,1.49.218,2.684c.411,3.583,1.284,11.122,1.361,14.024.193,4.572.116,18.327.116,18.327a5.2,5.2,0,0,0,2.761.154,1.8,1.8,0,0,0,.681-.385s1.207-13.421,1.284-17.916-.077-17.081-.077-17.081h-1.13Z" transform="translate(8269.741 1975.559)" fill="#5b5b72"/><path d="M62.121,194.416a38.054,38.054,0,0,0,.8,7.873c.308,1.644,1.849,2.479,5.445,3.121h0a6.884,6.884,0,0,0,4.945-.629,2.042,2.042,0,0,0,1.1-1.515c0-2.684.141-4.752.231-8.014s-.116-10.493-1.477-11.777a13.638,13.638,0,0,0-1.284-1.04,10.274,10.274,0,0,0-3.121-1.451,7.911,7.911,0,0,0-4.726-.411C61.966,181.329,62.121,191.6,62.121,194.416Z" transform="translate(8268.408 1970.434)" fill="#b3ebff"/><path d="M71.206,221.944c-.205,5.535-.6,13.241-.783,16.516a1.8,1.8,0,0,0,.681-.385s1.207-13.421,1.284-17.916-.077-17.081-.077-17.081c0-2.684.141-5.009.231-8.271s-.116-10.493-1.477-11.777a13.639,13.639,0,0,0-1.284-1.04,79.346,79.346,0,0,1,1,9.607c.09,2.569.231,6.421.347,11.559v1.477C71.347,210.822,71.347,218.156,71.206,221.944Z" transform="translate(8270.586 1970.891)" opacity="0.1"/><path d="M70.42,182.389c-1.759-.9-1.13,5.356-1.027,8.669s.218,5.137.218,6,1,2.427,1.926,2.4,1.914-.244,2-3.236c0-2.016,0-6.332-.347-10.082a5.317,5.317,0,0,0-2.774-3.75Z" transform="translate(8270.421 1970.98)" fill="#b3ebff"/><path d="M69.923,194.009s3.917-1.939,5.805-3.159a37.725,37.725,0,0,1,3.724-1.939s.552.616.9,1.04A11.562,11.562,0,0,1,81.135,191c-1.438,1.079-6.627,5.394-8.553,6.319S68.831,194.638,69.923,194.009Z" transform="translate(8270.534 1972.858)" fill="#b3ebff"/><path d="M100.83,231.05v8.117l18.083,10.506v-8.117Z" transform="translate(8279.414 1984.838)" fill="#c3ced8"/><path d="M114.91,241.556v8.117l18.173-10.493v-8.13Z" transform="translate(8283.417 1984.838)" fill="#aebecc"/><path d="M131.326,237.772l-.026-4.752-15.27,8.81.039,4.752Z" transform="translate(8283.735 1985.398)" fill="#e7eef2"/><path d="M100.83,233.376l18.083,10.506,18.173-10.506L118.913,222.87Z" transform="translate(8279.414 1982.513)" fill="#e7eef2"/><ellipse cx="0.655" cy="1.143" rx="0.655" ry="1.143" transform="translate(8391.779 2226.65) rotate(-30)" fill="#fff"/><ellipse cx="0.655" cy="1.143" rx="0.655" ry="1.143" transform="translate(8389.351 2225.252) rotate(-30)" fill="#fff"/><ellipse cx="0.655" cy="1.143" rx="0.655" ry="1.143" transform="translate(8386.944 2223.847) rotate(-30)" fill="#fff"/><ellipse cx="0.655" cy="1.143" rx="0.655" ry="1.143" transform="translate(8384.516 2222.448) rotate(-30)" fill="#fff"/><path d="M109.211,241.7a2.389,2.389,0,0,0,1.182-.308l1.426-.822a.321.321,0,0,0,.116-.437.347.347,0,0,0-.437-.116l-1.413.822a1.76,1.76,0,0,1-1.747,0,.642.642,0,0,1,0-1.092l1.04-.591a.321.321,0,0,0,.116-.437.3.3,0,0,0-.424-.116l-1.04.6a1.25,1.25,0,0,0,0,2.17A2.273,2.273,0,0,0,109.211,241.7Z" transform="translate(8281.281 1986.972)" fill="#4d7cff"/><path d="M105.4,239.543a2.453,2.453,0,0,0,1.182-.308l1.413-.822a.316.316,0,0,0-.308-.552l-1.426.822a1.747,1.747,0,0,1-1.734,0,.616.616,0,0,1-.321-.539.642.642,0,0,1,.321-.552l1.04-.591a.334.334,0,0,0,.116-.437.347.347,0,0,0-.437-.116l-1.04.6a1.25,1.25,0,0,0,0,2.17,2.35,2.35,0,0,0,1.194.321Z" transform="translate(8280.195 1986.363)" fill="#4d7cff"/><ellipse cx="0.912" cy="0.527" rx="0.912" ry="0.527" transform="translate(8412.145 2222.317) rotate(-60)" fill="#fff"/><ellipse cx="0.231" cy="0.128" rx="0.231" ry="0.128" transform="translate(8412.83 2221.927) rotate(-60)" fill="#4d7cff"/><ellipse cx="0.915" cy="0.528" rx="0.915" ry="0.528" transform="translate(8411.42 2222.812) rotate(-60.113)" fill="#fff"/><ellipse cx="0.231" cy="0.128" rx="0.231" ry="0.128" transform="translate(8410.9 2223.054) rotate(-60)" fill="#4d7cff"/><path d="M122.63,238.764l.257-.154v-1.49l-.257.154Z" transform="translate(8285.611 1986.564)" fill="#4d7cff"/><path d="M122.13,239.054l.257-.154v-1.49l-.257.154Z" transform="translate(8285.469 1986.646)" fill="#4d7cff"/><path d="M121.62,239.344l.257-.141v-1.5l-.257.154Z" transform="translate(8285.324 1986.729)" fill="#4d7cff"/><path d="M121.12,239.634l.257-.141v-1.5l-.257.154Z" transform="translate(8285.183 1986.811)" fill="#4d7cff"/><path d="M120.62,239.924l.257-.141v-1.5l-.257.154Z" transform="translate(8285.04 1986.894)" fill="#4d7cff"/><path d="M120.11,240.214l.257-.141v-1.5l-.257.154Z" transform="translate(8284.895 1986.976)" fill="#4d7cff"/><path d="M119.61,240.5l.257-.141v-1.49l-.257.141Z" transform="translate(8284.753 1987.062)" fill="#4d7cff"/><path d="M119.11,240.8l.257-.154v-1.49l-.257.141Z" transform="translate(8284.61 1987.144)" fill="#4d7cff"/><path d="M118.6,241.081l.257-.141v-1.49l-.257.141Z" transform="translate(8284.466 1987.226)" fill="#4d7cff"/><path d="M118.1,241.384l.257-.154v-1.49l-.257.141Z" transform="translate(8284.324 1987.309)" fill="#4d7cff"/><path d="M117.6,241.674l.257-.154v-1.49l-.257.141Z" transform="translate(8284.181 1987.391)" fill="#4d7cff"/><path d="M117.09,241.964l.257-.154v-1.49l-.257.154Z" transform="translate(8284.036 1987.474)" fill="#4d7cff"/><path d="M100.83,223.09v8.13l18.083,10.506V233.6Z" transform="translate(8279.414 1982.575)" fill="#c3ced8"/><path d="M114.91,233.6v8.13l18.173-10.506v-8.13Z" transform="translate(8283.417 1982.575)" fill="#aebecc"/><path d="M131.326,229.812l-.026-4.752-15.27,8.823.039,4.752Z" transform="translate(8283.735 1983.135)" fill="#e7eef2"/><path d="M100.83,225.413l18.083,10.506,18.173-10.506L118.913,214.92Z" transform="translate(8279.414 1980.253)" fill="#e7eef2"/><ellipse cx="0.655" cy="1.143" rx="0.655" ry="1.143" transform="translate(8391.779 2216.422) rotate(-30)" fill="#fff"/><ellipse cx="0.655" cy="1.143" rx="0.655" ry="1.143" transform="translate(8389.351 2215.024) rotate(-30)" fill="#fff"/><ellipse cx="0.655" cy="1.143" rx="0.655" ry="1.143" transform="translate(8386.933 2213.619) rotate(-30)" fill="#fff"/><ellipse cx="0.655" cy="1.143" rx="0.655" ry="1.143" transform="translate(8384.516 2212.22) rotate(-30)" fill="#fff"/><path d="M109.206,233.776a2.4,2.4,0,0,0,1.182-.321l1.426-.822a.308.308,0,0,0,.116-.424.321.321,0,0,0-.437-.116l-1.413.822a1.76,1.76,0,0,1-1.747,0,.642.642,0,0,1-.308-.552.616.616,0,0,1,.308-.539l1.04-.6a.308.308,0,0,0,.116-.424.3.3,0,0,0-.424-.116l-1.04.591a1.284,1.284,0,0,0,0,2.183A2.4,2.4,0,0,0,109.206,233.776Z" transform="translate(8281.286 1984.72)" fill="#4d7cff"/><path d="M105.4,231.595a2.337,2.337,0,0,0,1.182-.321l1.413-.822a.308.308,0,0,0,.116-.424.3.3,0,0,0-.424-.116l-1.426.822a1.747,1.747,0,0,1-1.734,0,.629.629,0,0,1,0-1.092l1.04-.6a.314.314,0,1,0-.321-.539l-1.04.591a1.284,1.284,0,0,0,0,2.183,2.479,2.479,0,0,0,1.194.321Z" transform="translate(8280.2 1984.101)" fill="#4d7cff"/><ellipse cx="0.912" cy="0.527" rx="0.912" ry="0.527" transform="translate(8412.152 2212.114) rotate(-60)" fill="#fff"/><ellipse cx="0.231" cy="0.128" rx="0.231" ry="0.128" transform="translate(8412.836 2211.724) rotate(-60)" fill="#4d7cff"/><ellipse cx="0.912" cy="0.527" rx="0.912" ry="0.527" transform="translate(8410.21 2213.221) rotate(-60)" fill="#fff"/><ellipse cx="0.231" cy="0.128" rx="0.231" ry="0.128" transform="translate(8410.896 2212.831) rotate(-60)" fill="#4d7cff"/><path d="M122.63,230.8l.257-.141v-1.49l-.257.141Z" transform="translate(8285.611 1984.304)" fill="#4d7cff"/><path d="M122.13,231.1l.257-.154v-1.49l-.257.141Z" transform="translate(8285.469 1984.386)" fill="#4d7cff"/><path d="M121.62,231.394l.257-.154v-1.49l-.257.141Z" transform="translate(8285.324 1984.469)" fill="#4d7cff"/><path d="M121.12,231.684l.257-.154v-1.49l-.257.141Z" transform="translate(8285.183 1984.551)" fill="#4d7cff"/><path d="M120.62,231.974l.257-.154v-1.49l-.257.141Z" transform="translate(8285.04 1984.634)" fill="#4d7cff"/><path d="M120.11,232.264l.257-.154v-1.49l-.257.154Z" transform="translate(8284.895 1984.716)" fill="#4d7cff"/><path d="M119.61,232.554l.257-.154v-1.49l-.257.154Z" transform="translate(8284.753 1984.798)" fill="#4d7cff"/><path d="M119.11,232.844l.257-.154V231.2l-.257.154Z" transform="translate(8284.61 1984.881)" fill="#4d7cff"/><path d="M118.6,233.134l.257-.154v-1.49l-.257.154Z" transform="translate(8284.466 1984.963)" fill="#4d7cff"/><path d="M118.1,233.424l.257-.154v-1.49l-.257.154Z" transform="translate(8284.324 1985.046)" fill="#4d7cff"/><path d="M117.6,233.714l.257-.154v-1.49l-.257.154Z" transform="translate(8284.181 1985.128)" fill="#4d7cff"/><path d="M117.09,234l.257-.141v-1.5l-.257.154Z" transform="translate(8284.036 1985.211)" fill="#4d7cff"/><path d="M100.83,215.13v8.117l18.083,10.506v-8.13Z" transform="translate(8279.414 1980.312)" fill="#c3ced8"/><path d="M114.91,225.623v8.13l18.173-10.506V215.13Z" transform="translate(8283.417 1980.312)" fill="#aebecc"/><path d="M131.326,221.839,131.3,217.1l-15.27,8.81.039,4.752Z" transform="translate(8283.735 1980.872)" fill="#e7eef2"/><path d="M100.83,217.456l18.083,10.493,18.173-10.493L118.913,206.95Z" transform="translate(8279.414 1977.987)" fill="#e7eef2"/><ellipse cx="0.655" cy="1.143" rx="0.655" ry="1.143" transform="translate(8391.786 2206.184) rotate(-30)" fill="#fff"/><ellipse cx="0.655" cy="1.143" rx="0.655" ry="1.143" transform="translate(8389.356 2204.785) rotate(-30)" fill="#fff"/><ellipse cx="0.655" cy="1.143" rx="0.655" ry="1.143" transform="translate(8386.938 2203.38) rotate(-30)" fill="#fff"/><ellipse cx="0.655" cy="1.143" rx="0.655" ry="1.143" transform="translate(8384.509 2201.982) rotate(-30)" fill="#fff"/><path d="M109.211,225.806a2.273,2.273,0,0,0,1.182-.321l1.426-.822a.3.3,0,0,0,.116-.424.321.321,0,0,0-.437-.116l-1.413.822a1.76,1.76,0,0,1-1.747,0,.642.642,0,0,1,0-1.092l1.04-.6a.308.308,0,0,0,.116-.424.3.3,0,0,0-.424-.116l-1.04.6a1.25,1.25,0,0,0,0,2.17,2.273,2.273,0,0,0,1.182.321Z" transform="translate(8281.281 1982.454)" fill="#4d7cff"/><path d="M105.4,223.625a2.338,2.338,0,0,0,1.182-.321l1.413-.822a.311.311,0,0,0-.308-.539l-1.426.822a1.747,1.747,0,0,1-1.734,0,.616.616,0,0,1-.321-.552.642.642,0,0,1,.321-.539l1.04-.6a.314.314,0,0,0-.321-.539l-1.04.6a1.25,1.25,0,0,0,0,2.17,2.35,2.35,0,0,0,1.194.321Z" transform="translate(8280.195 1981.835)" fill="#4d7cff"/><ellipse cx="0.912" cy="0.527" rx="0.912" ry="0.527" transform="translate(8412.149 2201.872) rotate(-60)" fill="#fff"/><ellipse cx="0.231" cy="0.128" rx="0.231" ry="0.128" transform="translate(8412.834 2201.481) rotate(-60)" fill="#4d7cff"/><ellipse cx="0.912" cy="0.527" rx="0.912" ry="0.527" transform="translate(8410.208 2202.992) rotate(-60)" fill="#fff"/><ellipse cx="0.231" cy="0.128" rx="0.231" ry="0.128" transform="translate(8410.893 2202.602) rotate(-60)" fill="#4d7cff"/><path d="M122.63,222.844l.257-.154V221.2l-.257.141Z" transform="translate(8285.611 1982.038)" fill="#4d7cff"/><path d="M122.13,223.134l.257-.154v-1.49l-.257.141Z" transform="translate(8285.469 1982.12)" fill="#4d7cff"/><path d="M121.62,223.424l.257-.154v-1.49l-.257.154Z" transform="translate(8285.324 1982.203)" fill="#4d7cff"/><path d="M121.12,223.714l.257-.154v-1.49l-.257.154Z" transform="translate(8285.183 1982.285)" fill="#4d7cff"/><path d="M120.62,224l.257-.154v-1.49l-.257.154Z" transform="translate(8285.04 1982.368)" fill="#4d7cff"/><path d="M120.11,224.294l.257-.154v-1.49l-.257.154Z" transform="translate(8284.895 1982.45)" fill="#4d7cff"/><path d="M119.61,224.584l.257-.154v-1.49l-.257.154Z" transform="translate(8284.753 1982.533)" fill="#4d7cff"/><path d="M119.11,224.874l.257-.154v-1.49l-.257.154Z" transform="translate(8284.61 1982.615)" fill="#4d7cff"/><path d="M118.6,225.164l.257-.141v-1.5l-.257.154Z" transform="translate(8284.466 1982.698)" fill="#4d7cff"/><path d="M118.1,225.454l.257-.154v-1.49l-.257.154Z" transform="translate(8284.324 1982.78)" fill="#4d7cff"/><path d="M117.6,225.744l.257-.141v-1.5l-.257.154Z" transform="translate(8284.181 1982.862)" fill="#4d7cff"/><path d="M117.09,226.034l.257-.141v-1.5l-.257.154Z" transform="translate(8284.036 1982.945)" fill="#4d7cff"/><path d="M219.85,110.01v8.117l18.1,10.506V120.5Z" transform="translate(8313.251 1950.427)" fill="#c3ced8"/><path d="M233.94,120.5v8.13l18.173-10.506V110.01Z" transform="translate(8317.256 1950.427)" fill="#aebecc"/><path d="M250.359,116.719l-.039-4.739-15.27,8.81.039,4.752Z" transform="translate(8317.571 1950.987)" fill="#e7eef2"/><path d="M219.85,112.336l18.1,10.493,18.173-10.493L237.946,101.83Z" transform="translate(8313.251 1948.102)" fill="#e7eef2"/><ellipse cx="0.655" cy="1.143" rx="0.655" ry="1.143" transform="translate(8544.649 2071.176) rotate(-30)" fill="#fff"/><ellipse cx="0.657" cy="1.147" rx="0.657" ry="1.147" transform="translate(8543.378 2070.374) rotate(-29.887)" fill="#fff"/><ellipse cx="0.655" cy="1.143" rx="0.655" ry="1.143" transform="translate(8539.801 2068.379) rotate(-30)" fill="#fff"/><ellipse cx="0.655" cy="1.143" rx="0.655" ry="1.143" transform="translate(8537.371 2066.98) rotate(-30)" fill="#fff"/><path d="M228.235,120.7a2.337,2.337,0,0,0,1.182-.321l1.413-.822a.311.311,0,0,0-.308-.539l-1.426.822a1.747,1.747,0,0,1-1.734,0,.616.616,0,0,1-.321-.552.642.642,0,0,1,.321-.539l1.079-.616a.308.308,0,0,0,.116-.424.321.321,0,0,0-.437-.116l-1.04.6a1.25,1.25,0,0,0,0,2.17A2.35,2.35,0,0,0,228.235,120.7Z" transform="translate(8315.126 1952.57)" fill="#4d7cff"/><path d="M224.461,118.5a2.273,2.273,0,0,0,1.182-.321l1.426-.822a.314.314,0,1,0-.321-.539l-1.413.822a1.76,1.76,0,0,1-1.747,0,.642.642,0,0,1,0-1.092l1.04-.6a.3.3,0,0,0,.116-.424.308.308,0,0,0-.424-.116l-1.04.6a1.25,1.25,0,0,0,0,2.17,2.274,2.274,0,0,0,1.182.321Z" transform="translate(8314.046 1951.95)" fill="#4d7cff"/><ellipse cx="0.912" cy="0.527" rx="0.912" ry="0.527" transform="translate(8564.997 2066.873) rotate(-60)" fill="#fff"/><ellipse cx="0.232" cy="0.129" rx="0.232" ry="0.129" transform="translate(8566.266 2065.232) rotate(-60.113)" fill="#4d7cff"/><ellipse cx="0.912" cy="0.527" rx="0.912" ry="0.527" transform="translate(8563.056 2067.994) rotate(-60)" fill="#fff"/><ellipse cx="0.231" cy="0.128" rx="0.231" ry="0.128" transform="translate(8563.741 2067.604) rotate(-60)" fill="#4d7cff"/><path d="M241.65,117.724l.257-.154v-1.49l-.257.141Z" transform="translate(8319.448 1952.153)" fill="#4d7cff"/><path d="M241.15,118.014l.257-.154v-1.49l-.257.141Z" transform="translate(8319.307 1952.235)" fill="#4d7cff"/><path d="M240.65,118.3l.257-.154v-1.49l-.257.154Z" transform="translate(8319.164 1952.318)" fill="#4d7cff"/><path d="M240.14,118.594l.257-.154v-1.49l-.257.154Z" transform="translate(8319.019 1952.4)" fill="#4d7cff"/><path d="M239.64,118.884l.257-.154v-1.49l-.257.154Z" transform="translate(8318.877 1952.483)" fill="#4d7cff"/><path d="M239.14,119.174l.257-.154v-1.49l-.257.154Z" transform="translate(8318.734 1952.565)" fill="#4d7cff"/><path d="M238.63,119.464l.27-.154v-1.49l-.27.154Z" transform="translate(8318.589 1952.648)" fill="#4d7cff"/><path d="M238.13,119.754l.257-.141v-1.5l-.257.154Z" transform="translate(8318.447 1952.73)" fill="#4d7cff"/><path d="M237.63,120.044l.257-.154V118.4l-.257.154Z" transform="translate(8318.305 1952.813)" fill="#4d7cff"/><path d="M237.12,120.334l.257-.141v-1.5l-.257.154Z" transform="translate(8318.16 1952.895)" fill="#4d7cff"/><path d="M236.62,120.624l.257-.141v-1.5l-.257.154Z" transform="translate(8318.019 1952.978)" fill="#4d7cff"/><path d="M236.12,120.911l.257-.141v-1.49l-.257.141Z" transform="translate(8317.875 1953.063)" fill="#4d7cff"/><path d="M219.85,102.05v8.13l18.1,10.493v-8.117Z" transform="translate(8313.251 1948.164)" fill="#c3ced8"/><path d="M233.94,112.556v8.117l18.173-10.493v-8.13Z" transform="translate(8317.256 1948.164)" fill="#aebecc"/><path d="M250.359,108.772l-.039-4.752-15.27,8.81.039,4.752Z" transform="translate(8317.571 1948.724)" fill="#e7eef2"/><path d="M219.85,104.376l18.1,10.506,18.173-10.506L237.946,93.87Z" transform="translate(8313.251 1945.839)" fill="#e7eef2"/><ellipse cx="0.655" cy="1.143" rx="0.655" ry="1.143" transform="translate(8544.655 2060.972) rotate(-30)" fill="#fff"/><ellipse cx="0.657" cy="1.147" rx="0.657" ry="1.147" transform="translate(8543.385 2060.129) rotate(-29.887)" fill="#fff"/><ellipse cx="0.655" cy="1.143" rx="0.655" ry="1.143" transform="translate(8539.794 2058.175) rotate(-30)" fill="#fff"/><ellipse cx="0.655" cy="1.143" rx="0.655" ry="1.143" transform="translate(8537.379 2056.777) rotate(-30)" fill="#fff"/><path d="M228.244,112.693a2.453,2.453,0,0,0,1.182-.308l1.413-.822a.316.316,0,0,0-.308-.552l-1.426.822a1.747,1.747,0,0,1-1.734,0,.616.616,0,0,1-.321-.539.642.642,0,0,1,.321-.552l1.04-.591a.334.334,0,0,0,.116-.437.347.347,0,0,0-.437-.116l-1.04.6a1.25,1.25,0,0,0,0,2.17,2.35,2.35,0,0,0,1.194.321Z" transform="translate(8315.119 1950.3)" fill="#4d7cff"/><path d="M224.461,110.543a2.389,2.389,0,0,0,1.182-.308l1.426-.822a.321.321,0,0,0-.321-.552l-1.413.822a1.76,1.76,0,0,1-1.747,0,.642.642,0,0,1,0-1.092l1.04-.591a.321.321,0,0,0,.116-.437.334.334,0,0,0-.424-.116l-1.04.6a1.25,1.25,0,0,0,0,2.17,2.273,2.273,0,0,0,1.182.321Z" transform="translate(8314.046 1949.689)" fill="#4d7cff"/><ellipse cx="0.912" cy="0.527" rx="0.912" ry="0.527" transform="translate(8565.003 2056.657) rotate(-60)" fill="#fff"/><ellipse cx="0.231" cy="0.128" rx="0.231" ry="0.128" transform="translate(8565.689 2056.266) rotate(-60)" fill="#4d7cff"/><ellipse cx="0.912" cy="0.527" rx="0.912" ry="0.527" transform="translate(8563.062 2057.777) rotate(-60)" fill="#fff"/><ellipse cx="0.231" cy="0.128" rx="0.231" ry="0.128" transform="translate(8563.748 2057.387) rotate(-60)" fill="#4d7cff"/><path d="M241.65,109.764l.257-.154v-1.49l-.257.154Z" transform="translate(8319.448 1949.89)" fill="#4d7cff"/><path d="M241.15,110.054l.257-.141v-1.5l-.257.154Z" transform="translate(8319.307 1949.972)" fill="#4d7cff"/><path d="M240.65,110.344l.257-.141v-1.5l-.257.154Z" transform="translate(8319.164 1950.055)" fill="#4d7cff"/><path d="M240.14,110.634l.257-.141v-1.5l-.257.154Z" transform="translate(8319.019 1950.137)" fill="#4d7cff"/><path d="M239.64,110.924l.257-.141v-1.5l-.257.154Z" transform="translate(8318.877 1950.22)" fill="#4d7cff"/><path d="M239.14,111.211l.257-.141v-1.49l-.257.141Z" transform="translate(8318.734 1950.305)" fill="#4d7cff"/><path d="M238.63,111.5l.27-.141v-1.49l-.27.141Z" transform="translate(8318.589 1950.388)" fill="#4d7cff"/><path d="M238.13,111.8l.257-.154v-1.49l-.257.141Z" transform="translate(8318.447 1950.47)" fill="#4d7cff"/><path d="M237.63,112.094l.257-.154v-1.49l-.257.141Z" transform="translate(8318.305 1950.552)" fill="#4d7cff"/><path d="M237.12,112.384l.257-.154v-1.49l-.257.141Z" transform="translate(8318.16 1950.635)" fill="#4d7cff"/><path d="M236.62,112.674l.257-.154v-1.49l-.257.141Z" transform="translate(8318.019 1950.717)" fill="#4d7cff"/><path d="M236.12,112.964l.257-.154v-1.49l-.257.154Z" transform="translate(8317.875 1950.8)" fill="#4d7cff"/><path d="M219.85,94.08v8.13l18.1,10.493v-8.117Z" transform="translate(8313.251 1945.899)" fill="#c3ced8"/><path d="M233.94,104.586V112.7l18.173-10.493V94.08Z" transform="translate(8317.256 1945.899)" fill="#aebecc"/><path d="M250.359,100.8l-.039-4.752-15.27,8.823.039,4.739Z" transform="translate(8317.571 1946.459)" fill="#e7eef2"/><path d="M219.85,96.4l18.1,10.506L256.118,96.4,237.946,85.91Z" transform="translate(8313.251 1943.576)" fill="#e7eef2"/><ellipse cx="0.657" cy="1.147" rx="0.657" ry="1.147" transform="translate(8545.815 2051.254) rotate(-29.887)" fill="#fff"/><ellipse cx="0.657" cy="1.147" rx="0.657" ry="1.147" transform="translate(8543.391 2049.85) rotate(-29.887)" fill="#fff"/><ellipse cx="0.657" cy="1.147" rx="0.657" ry="1.147" transform="translate(8540.951 2048.446) rotate(-29.887)" fill="#fff"/><ellipse cx="0.655" cy="1.143" rx="0.655" ry="1.143" transform="translate(8537.371 2046.538) rotate(-30)" fill="#fff"/><path d="M228.244,104.753a2.453,2.453,0,0,0,1.182-.308l1.413-.822a.308.308,0,0,0,.116-.424.3.3,0,0,0-.424-.116l-1.426.809a1.682,1.682,0,0,1-1.734,0,.6.6,0,0,1-.321-.539.616.616,0,0,1,.321-.539l1.04-.6a.334.334,0,0,0,.116-.437.347.347,0,0,0-.437-.116l-1.04.6a1.261,1.261,0,0,0,0,2.183,2.466,2.466,0,0,0,1.194.308Z" transform="translate(8315.119 1948.043)" fill="#4d7cff"/><path d="M224.456,102.57a2.389,2.389,0,0,0,1.182-.308l1.426-.822a.334.334,0,0,0,.116-.424.321.321,0,0,0-.437-.116l-1.413.822a1.734,1.734,0,0,1-1.747,0,.616.616,0,0,1-.308-.539.6.6,0,0,1,.308-.539l1.04-.6a.321.321,0,0,0,.116-.437.334.334,0,0,0-.424-.116l-1.04.6a1.284,1.284,0,0,0,0,2.183,2.389,2.389,0,0,0,1.182.3Z" transform="translate(8314.051 1947.426)" fill="#4d7cff"/><ellipse cx="0.912" cy="0.527" rx="0.912" ry="0.527" transform="translate(8565.014 2046.427) rotate(-60)" fill="#fff"/><ellipse cx="0.231" cy="0.128" rx="0.231" ry="0.128" transform="translate(8565.697 2046.037) rotate(-60)" fill="#4d7cff"/><ellipse cx="0.912" cy="0.527" rx="0.912" ry="0.527" transform="translate(8563.072 2047.548) rotate(-60)" fill="#fff"/><ellipse cx="0.231" cy="0.128" rx="0.231" ry="0.128" transform="translate(8563.757 2047.157) rotate(-60)" fill="#4d7cff"/><path d="M241.65,101.794l.257-.141v-1.5l-.257.154Z" transform="translate(8319.448 1947.624)" fill="#4d7cff"/><path d="M241.15,102.084l.257-.141v-1.5l-.257.154Z" transform="translate(8319.307 1947.707)" fill="#4d7cff"/><path d="M240.65,102.374l.257-.141v-1.5l-.257.154Z" transform="translate(8319.164 1947.789)" fill="#4d7cff"/><path d="M240.14,102.661l.257-.141v-1.49l-.257.141Z" transform="translate(8319.019 1947.875)" fill="#4d7cff"/><path d="M239.64,102.951l.257-.141v-1.49l-.257.141Z" transform="translate(8318.877 1947.957)" fill="#4d7cff"/><path d="M239.14,103.254l.257-.154v-1.49l-.257.141Z" transform="translate(8318.734 1948.039)" fill="#4d7cff"/><path d="M238.63,103.544l.27-.154V101.9l-.27.141Z" transform="translate(8318.589 1948.122)" fill="#4d7cff"/><path d="M238.13,103.834l.257-.154v-1.49l-.257.141Z" transform="translate(8318.447 1948.204)" fill="#4d7cff"/><path d="M237.63,104.124l.257-.154v-1.49l-.257.141Z" transform="translate(8318.305 1948.287)" fill="#4d7cff"/><path d="M237.12,104.414l.257-.154v-1.49l-.257.154Z" transform="translate(8318.16 1948.369)" fill="#4d7cff"/><path d="M236.62,104.7l.257-.154v-1.49l-.257.154Z" transform="translate(8318.019 1948.452)" fill="#4d7cff"/><path d="M236.12,104.994l.257-.154v-1.49l-.257.154Z" transform="translate(8317.875 1948.534)" fill="#4d7cff"/><path d="M271.164,159.75l-.064,20.908-18.07,10.493.064-20.9Z" transform="translate(8322.684 1964.568)" fill="#c3ced8"/><path d="M257.12,170.256l-.064,20.9L238.87,180.658l.051-20.908Z" transform="translate(8318.658 1964.568)" fill="#aebecc"/><path d="M239.08,162.056,257,151.64l17.929,10.416L257.06,172.433Z" transform="translate(8318.717 1962.263)" fill="#e7eef2"/><path d="M257,151.814l17.775,10.274-17.646,10.274-17.775-10.274L257,151.814m0-.244-18.07,10.506,18.2,10.506,18.07-10.506Z" transform="translate(8318.675 1962.243)" fill="#aebecc"/><path d="M255.849,163.557s6.421,3.686,8.836,4.855l.578.27a3.276,3.276,0,0,0,.424.141,1.991,1.991,0,0,0,2.363-.706,2.453,2.453,0,0,0,.27-2.89h0a1.567,1.567,0,0,0-.321-.334c-.347-.3-1.8-1.464-3.326-2.684-2.427-1.939-5.471-4.058-5.471-4.058a4.713,4.713,0,0,0-3.391,3.75,5.3,5.3,0,0,0,.039,1.657Z" transform="translate(8323.46 1964.113)" fill="#ffccd1"/><path d="M265.477,183.08c.848-.077.719-1.49.424-2.26s-.9-2.029-1.066-2.5-.963-2.2-1.49-2.145-.976.3-.925.912.3,2.723.3,2.723l.514.437a11.075,11.075,0,0,0,.347,1.464C263.757,182.117,264.553,183.17,265.477,183.08Z" transform="translate(8325.352 1969.236)" fill="#313133"/><path d="M262.492,174.477c.154,1.528.424,4.187.475,4.726a21.305,21.305,0,0,0,.257,2.44c0,.1,0,.193,0,.3a4.635,4.635,0,0,0,.141.591c.372,1.49.719,2.2,1.438,2.17h0a.732.732,0,0,0,.231,0c.9-.193-.719-3.789-.758-4.071s.565-3.647.9-5.574,1.1-6.935,1.592-9.35a1.926,1.926,0,0,0-.385-1.888h0a2.119,2.119,0,0,0-1.13-.514c-.925-.141-1.528.771-1.991,2.016a15.4,15.4,0,0,0-.5,1.7l-.154.642A24.092,24.092,0,0,0,262.492,174.477Z" transform="translate(8325.319 1965.574)" fill="#ffccd1"/><path d="M255.832,162.96s6.421,3.686,8.836,4.855l-.154.642a24.092,24.092,0,0,0-.18,6.858c.154,1.528.424,4.187.475,4.726a21.292,21.292,0,0,0,.257,2.44c0,.1,0,.193,0,.3a4.733,4.733,0,0,0,.141.6c.385,1.477.732,2.17,1.438,2.158h0c-1.811-.86-1.682-7.346-1.734-10.917a35.134,35.134,0,0,1,.642-6.177,2.569,2.569,0,0,0-.308-1.991,13.151,13.151,0,0,0-2.26-1.888c-1.939-1.284-5.368-3.853-6.344-4.315C256.654,160.751,255.717,162.343,255.832,162.96Z" transform="translate(8323.478 1964.71)" opacity="0.1"/><path d="M255.071,166.872s3.853,1.631,5.779,2.44l.565.231a3.587,3.587,0,0,0,.565.193,1.991,1.991,0,0,0,2.222-.758,2.389,2.389,0,0,0,.141-3.031,1.554,1.554,0,0,0-.205-.206c-.681-.565-3.236-2.569-4.6-3.7l-.848-.694a5.356,5.356,0,0,0-3.493,3.1A4.97,4.97,0,0,0,255.071,166.872Z" transform="translate(8323.237 1965.023)" fill="#ffccd1"/><path d="M259.679,184.39c.848,0,.912-1.361.745-2.183s-.6-2.132-.706-2.569-.629-2.312-1.156-2.337-1.015.141-1.04.771l-.141,2.774.437.5a11.463,11.463,0,0,0,.18,1.464C258.176,183.2,258.741,184.338,259.679,184.39Z" transform="translate(8323.92 1969.557)" fill="#313133"/><path d="M258.3,175.374c-.077,1.541-.193,4.2-.218,4.752a16.028,16.028,0,0,0,0,3.352c.154,1.528.4,2.273,1.1,2.363h.27c.912,0-.167-3.853-.154-4.148s1.066-3.532,1.682-5.381,2.093-6.7,2.928-8.99a1.939,1.939,0,0,0-.154-1.991,2.119,2.119,0,0,0-1.015-.629c-.873-.27-1.592.5-2.222,1.644-.283.5-.539,1.092-.8,1.682l-.231.591A24.028,24.028,0,0,0,258.3,175.374Z" transform="translate(8324.094 1965.961)" fill="#ffccd1"/><path d="M249.484,164.819a48.709,48.709,0,0,0,7.629,4.2,5.3,5.3,0,0,1,.822-2.093,6.421,6.421,0,0,1,3.057-2.492l.591-.244a10.416,10.416,0,0,1,5.368-.745,48.319,48.319,0,0,0-6.422-4.842c-2.35-1.284-4.444-2.569-3.647-4.8l-6.743.36H249.7a7.577,7.577,0,0,1-.835,3.763C247.917,159.4,246.774,162.79,249.484,164.819Z" transform="translate(8321.195 1962.877)" fill="#5b5b72"/><path d="M249.481,164.74a48.711,48.711,0,0,0,7.629,4.2l5.407,2.273c-.064.141-.116.283-.167.411a24.028,24.028,0,0,0-1.156,6.768c-.077,1.541-.193,4.2-.218,4.752a16.024,16.024,0,0,0,0,3.352c.154,1.528.385,2.273,1.1,2.363-1.657-1.13-.527-7.513,0-11.045a33.387,33.387,0,0,1,1.631-6.165c.449-1.284.488-1.567-.244-2.081-1.143-.527-3.236-1.682-5.445-2.723l-.693-.334c-1.567-.732-3.121-1.438-4.3-1.939-3.673-1.554-3.082-3.558-2.748-6.64a8.772,8.772,0,0,0,0-3.853h-.424a7.616,7.616,0,0,1-.86,3.776C247.914,159.32,246.771,162.71,249.481,164.74Z" transform="translate(8321.198 1962.956)" opacity="0.1"/><path d="M255.469,142.443c.925-.154,2.26,1.182,2.376,2.8s.27,5.137.437,6.421,1.143,4.508-.218,4.893-1.682-1.477-2-2.774-.809-6.293-1.1-7.706S253.94,142.712,255.469,142.443Z" transform="translate(8323.108 1959.644)" fill="#b3ebff"/><path d="M251.627,135.845a2,2,0,0,0-1.477,1.349,5.022,5.022,0,0,0,2.158,5.137c2.029,1.027,3.853-1.451,3.763-3.159S253.515,135.048,251.627,135.845Z" transform="translate(8321.839 1957.728)" fill="#313133"/><path d="M257.555,135.151a2.325,2.325,0,0,1,.809,1.284,7.962,7.962,0,0,1-.6,2.363,2.375,2.375,0,0,0,0,1.438c.206.668-.873,1.991-1.284,2.273s-.809-.912-.681-2.658S257.08,134.638,257.555,135.151Z" transform="translate(8323.462 1957.56)" fill="#313133"/><path d="M259.422,151.237c-.642,1.58-1.554,1.978-1.618,3.622a44.062,44.062,0,0,0,.912,6.229,7.192,7.192,0,0,1-3.185,1.426,9.634,9.634,0,0,1-.321-1.862,14.216,14.216,0,0,1-.552,1.914,25.681,25.681,0,0,1-3.1-.565,10.467,10.467,0,0,1-1.284-.372,6.589,6.589,0,0,1-2.158-1.143s2.569-5.137,2.838-5.7a5.137,5.137,0,0,0-.475-2.967c-.475-1.284-1.284-5.882-.462-7.847,0,0,.321-.167.822-.385a13.511,13.511,0,0,1,3.121-1c2.774-.488,4.123-.231,4.559,1.04S260.051,149.67,259.422,151.237Z" transform="translate(8321.287 1959.621)" fill="#b3ebff"/><path d="M254.593,152.428c-.848.36-1.67,3.172-2.106,4.662-.334,1.143-.745,3.558-.925,4.636a10.468,10.468,0,0,1-1.284-.372,6.587,6.587,0,0,1-2.158-1.143s2.569-5.137,2.838-5.7a5.137,5.137,0,0,0-.475-2.967c-.475-1.284-1.284-5.882-.462-7.847,0,0,.321-.167.822-.385a22.91,22.91,0,0,0,.09,6.28C251.613,152.133,254.593,152.428,254.593,152.428Z" transform="translate(8321.287 1959.894)" opacity="0.1"/><path d="M252.342,140.852l-.732,3.352s.873,2.44,1.657,2.5c1.605.116,1.374-2.325,1.426-3.069a49.906,49.906,0,0,1,1.451-4.8l-3.2-.976Z" transform="translate(8322.28 1958.345)" fill="#ffccd1"/><path d="M258.44,136.564a15.127,15.127,0,0,1-.5,5.137c-.719,2-2.158,3.134-2.671,2.98a4.264,4.264,0,0,1-2.093-4.084c.4-2.106.989-5.137.989-5.137Z" transform="translate(8322.719 1957.663)" fill="#ffccd1"/><path d="M259.043,137.013s-3.069,3.069-5.073,2.967-3.224-.6-2.877-2.684a4.1,4.1,0,0,1,5.137-3.262C258.991,134.791,259.569,136.088,259.043,137.013Z" transform="translate(8322.115 1957.214)" fill="#313133"/><ellipse cx="0.732" cy="1.092" rx="0.732" ry="1.092" transform="translate(8573.978 2096.594) rotate(-8.049)" fill="#ffccd1"/><path d="M251.29,142.984l.411-.334,2.389,2.337-.963.822Z" transform="translate(8322.188 1959.707)" fill="#fff"/><path d="M253.47,145.076l1.259.552-.09-3.288-.475.026Z" transform="translate(8322.808 1959.619)" fill="#fff"/><path d="M260.674,155.977s-.27.848-1.644.9a1.913,1.913,0,0,1,.616-.95,1,1,0,0,1,1.027.051Z" transform="translate(8324.39 1963.448)" fill="#4d7cff"/><path d="M262.436,160.409c.283,0,.539-.848.257-1.605a5.137,5.137,0,0,0-2.093-2.119l-.565-1.1-1.015.706.591.912a.706.706,0,0,0-.064.578c.116.347.668.86.822,1.284s0,.809.257.886.36-.321.27-.719-.193-.886-.193-.886a1.644,1.644,0,0,1,.886.693C261.974,159.664,261.794,160.525,262.436,160.409Z" transform="translate(8324.386 1963.383)" fill="#ffccd1"/><path d="M261.561,157.333a1.836,1.836,0,0,0-.925.154,1.593,1.593,0,0,0-.719.745,32.1,32.1,0,0,1-2.646-2.954c-.642-.95-1.644-2.453-1.284-3.6s2.029-.6,2.453.385a20.045,20.045,0,0,0,1.67,3.121C260.662,156.023,261.561,157.333,261.561,157.333Z" transform="translate(8323.503 1962.092)" fill="#b3ebff"/><path d="M260.279,156.7l-8.489,4.829v.141a.182.182,0,0,0,.1.154l5.689,3.288a.527.527,0,0,0,.437,0l8.425-4.867a.116.116,0,0,0,.077-.1v-.154l-5.805-3.275a.475.475,0,0,0-.437-.013Z" transform="translate(8322.33 1963.688)" fill="#aebecc"/><path d="M260.281,156.592l-8.425,4.855c-.1,0-.09.18,0,.257l5.689,3.288a.475.475,0,0,0,.437,0l8.425-4.855c.116-.077.1-.18,0-.257l-5.689-3.288A.475.475,0,0,0,260.281,156.592Z" transform="translate(8322.329 1963.655)" fill="#e7eef2"/><path d="M257.53,157.7l-3.75,2.17v.1l2.26,1.284a.218.218,0,0,0,.18,0l3.75-2.183v-.09l-2.26-1.284a.18.18,0,0,0-.18,0Z" transform="translate(8322.896 1963.977)" fill="#dae1e5"/><path d="M262.041,157.9l-7.911,4.559v.1l2.928,1.7a.218.218,0,0,0,.18,0l7.911-4.559v-.1l-2.941-1.7a.193.193,0,0,0-.167,0Z" transform="translate(8322.996 1964.038)" fill="#aebecc"/><path d="M256.274,162.241l-.424.244.4.231h.09l.411-.244h0l-.4-.218a.077.077,0,0,0-.077-.013Z" transform="translate(8323.485 1965.275)" fill="#5b5b72"/><path d="M256.7,162l-.424.244.4.231h.09l.411-.244h0l-.4-.231a.116.116,0,0,0-.077,0Z" transform="translate(8323.606 1965.206)" fill="#5b5b72"/><path d="M257.091,161.75l-.411.231.4.231h.09l.411-.231-.4-.231Z" transform="translate(8323.721 1965.137)" fill="#5b5b72"/><path d="M257.561,161.5l-.411.244h0l.4.231a.116.116,0,0,0,.09,0l.424-.244-.4-.231Z" transform="translate(8323.854 1965.066)" fill="#5b5b72"/><path d="M257.991,161.253l-.411.244h0l.4.218a.077.077,0,0,0,.09,0l.424-.244-.4-.231Z" transform="translate(8323.977 1964.992)" fill="#5b5b72"/><path d="M258.434,161l-.424.244.4.231h.09l.424-.244h0l-.4-.231Z" transform="translate(8324.1 1964.923)" fill="#5b5b72"/><path d="M258.864,160.75l-.424.244.4.231h.09l.424-.244h0l-.4-.231Z" transform="translate(8324.221 1964.852)" fill="#5b5b72"/><path d="M259.294,160.5l-.424.244h0l.385.231h.09l.424-.244h0l-.385-.231Z" transform="translate(8324.343 1964.781)" fill="#5b5b72"/><path d="M259.724,160.251l-.424.244h0l.4.231h.077l.424-.244h0l-.4-.218A.077.077,0,0,0,259.724,160.251Z" transform="translate(8324.466 1964.709)" fill="#5b5b72"/><path d="M260.154,160l-.424.244h0l.4.231h.077l.424-.244h0l-.4-.231A.115.115,0,0,0,260.154,160Z" transform="translate(8324.588 1964.638)" fill="#5b5b72"/><path d="M260.584,159.76l-.424.231.4.231h.077l.424-.231-.4-.231Z" transform="translate(8324.71 1964.571)" fill="#5b5b72"/><path d="M261.014,159.51l-.424.244h0l.4.231a.116.116,0,0,0,.09,0l.411-.244-.4-.231Z" transform="translate(8324.833 1964.5)" fill="#5b5b72"/><path d="M261.444,159.263l-.424.244h0l.4.218a.077.077,0,0,0,.09,0l.411-.244-.4-.231Z" transform="translate(8324.955 1964.426)" fill="#5b5b72"/><path d="M262.151,158.89l-.681.4.4.231a.116.116,0,0,0,.09,0l.681-.4h0l-.4-.231Z" transform="translate(8325.083 1964.324)" fill="#5b5b72"/><path d="M256.148,161.883l-.668.4v.064l.372.205a.129.129,0,0,0,.116,0l.668-.385V162.1l-.385-.218a.1.1,0,0,0-.1,0Z" transform="translate(8323.38 1965.171)" fill="#5b5b72"/><path d="M256.5,161.63l-.424.244h0l.385.231a.116.116,0,0,0,.09,0l.424-.244h0l-.385-.231Z" transform="translate(8323.55 1965.103)" fill="#5b5b72"/><path d="M256.934,161.381l-.424.244h0l.385.231a.1.1,0,0,0,.09,0l.424-.244h0l-.4-.218a.077.077,0,0,0-.077-.013Z" transform="translate(8323.672 1965.03)" fill="#5b5b72"/><path d="M257.364,161.14l-.424.231h0l.385.231a.1.1,0,0,0,.09,0l.424-.231-.4-.231Z" transform="translate(8323.795 1964.963)" fill="#5b5b72"/><path d="M258.224,160.64l-.424.244h0l.4.231h.077l.424-.244-.4-.231Z" transform="translate(8324.039 1964.821)" fill="#5b5b72"/><path d="M257.794,160.893l-.424.244h0l.4.218h.077l.424-.244-.4-.231Z" transform="translate(8323.917 1964.889)" fill="#5b5b72"/><path d="M258.654,160.39l-.424.244h0l.4.231h.077l.424-.244-.4-.231Z" transform="translate(8324.162 1964.75)" fill="#5b5b72"/><path d="M259.094,160.14l-.424.244h0l.4.231h.026l.424-.244-.4-.231Z" transform="translate(8324.286 1964.679)" fill="#5b5b72"/><path d="M259.514,159.891l-.424.244h0l.4.231h.077l.424-.244h0l-.4-.218A.077.077,0,0,0,259.514,159.891Z" transform="translate(8324.406 1964.607)" fill="#5b5b72"/><path d="M259.944,159.64l-.424.244.4.231H260l.424-.231-.4-.231A.115.115,0,0,0,259.944,159.64Z" transform="translate(8324.527 1964.536)" fill="#5b5b72"/><path d="M260.374,159.4l-.424.244h0l.4.231h.077l.424-.244-.4-.231a.115.115,0,0,0-.077,0Z" transform="translate(8324.65 1964.467)" fill="#5b5b72"/><path d="M260.8,159.153l-.424.244h0l.4.218a.077.077,0,0,0,.09,0l.411-.244-.4-.231A.116.116,0,0,0,260.8,159.153Z" transform="translate(8324.772 1964.394)" fill="#5b5b72"/><path d="M261.234,158.9l-.424.244.4.231h.09l.411-.244-.4-.231A.116.116,0,0,0,261.234,158.9Z" transform="translate(8324.895 1964.325)" fill="#5b5b72"/><path d="M261.664,158.651l-.424.244.4.231h.09l.411-.244-.4-.231a.116.116,0,0,0-.077,0Z" transform="translate(8325.018 1964.254)" fill="#5b5b72"/><path d="M255.848,161.58l-.848.539v.064l.36.205a.154.154,0,0,0,.128,0l.809-.475v-.064l-.36-.206a.154.154,0,0,0-.09-.064Z" transform="translate(8323.243 1965.088)" fill="#5b5b72"/><path d="M256.2,161.333l-.424.244h0l.4.231a.116.116,0,0,0,.09,0l.424-.244-.4-.231A.077.077,0,0,0,256.2,161.333Z" transform="translate(8323.465 1965.014)" fill="#5b5b72"/><path d="M256.621,161.083l-.411.244.4.231h.09l.424-.244-.4-.231a.116.116,0,0,0-.1,0Z" transform="translate(8323.587 1964.944)" fill="#5b5b72"/><path d="M257.091,160.83l-.411.244.4.231h.013l.424-.244-.4-.231Z" transform="translate(8323.721 1964.875)" fill="#5b5b72"/><path d="M257.481,160.583l-.411.244.4.231h.09l.424-.244h0l-.4-.218a.077.077,0,0,0-.1-.013Z" transform="translate(8323.832 1964.801)" fill="#5b5b72"/><path d="M257.911,160.333l-.411.244.4.231h.09l.424-.244h0l-.4-.231a.116.116,0,0,0-.1,0Z" transform="translate(8323.953 1964.73)" fill="#5b5b72"/><path d="M258.341,160.093l-.411.231.4.231a.116.116,0,0,0,.09,0l.424-.244-.4-.231Z" transform="translate(8324.076 1964.662)" fill="#5b5b72"/><path d="M258.771,159.843l-.411.244h0l.4.218a.077.077,0,0,0,.09,0l.424-.244-.4-.231Z" transform="translate(8324.198 1964.591)" fill="#5b5b72"/><path d="M259.2,159.59l-.411.244.4.231h.09l.424-.244-.4-.231Z" transform="translate(8324.32 1964.523)" fill="#5b5b72"/><path d="M259.631,159.34l-.411.244.4.231h.09l.424-.244-.4-.231Z" transform="translate(8324.443 1964.452)" fill="#5b5b72"/><path d="M260.091,159.09l-.411.244.4.231h.013l.411-.244h0l-.4-.218a.075.075,0,0,0-.013-.013Z" transform="translate(8324.574 1964.381)" fill="#5b5b72"/><path d="M260.491,158.85l-.411.231.4.231h.09l.411-.231-.4-.231Z" transform="translate(8324.688 1964.312)" fill="#5b5b72"/><path d="M261.332,158.41l-.822.475v.064l.4.218a.116.116,0,0,0,.09,0l.822-.488-.385-.218A.1.1,0,0,0,261.332,158.41Z" transform="translate(8324.811 1964.187)" fill="#5b5b72"/><path d="M255.7,161.223l-1.079.616v.077l.347.205a.141.141,0,0,0,.141,0l1.066-.616v-.077l-.347-.205a.154.154,0,0,0-.128,0Z" transform="translate(8323.136 1964.983)" fill="#5b5b72"/><path d="M256,161.006l-.424.244.4.231h.141l.424-.244h0l-.424-.231a.077.077,0,0,0-.116,0Z" transform="translate(8323.408 1964.918)" fill="#5b5b72"/><path d="M256.421,160.713l-.411.244.4.231h.09l.424-.244h0l-.4-.218a.077.077,0,0,0-.1-.013Z" transform="translate(8323.53 1964.838)" fill="#5b5b72"/><path d="M256.851,160.473l-.411.231h0l.4.231a.116.116,0,0,0,.09,0l.424-.244-.4-.231Z" transform="translate(8323.653 1964.77)" fill="#5b5b72"/><path d="M257.281,160.223l-.411.244h0l.4.218a.077.077,0,0,0,.09,0l.411-.244-.4-.231Z" transform="translate(8323.775 1964.699)" fill="#5b5b72"/><path d="M257.714,160l-.424.244.4.231h.09l.411-.244-.4-.231Z" transform="translate(8323.895 1964.639)" fill="#5b5b72"/><path d="M258.144,159.721l-.424.244.4.231h.09l.411-.244h0l-.4-.218a.077.077,0,0,0-.077-.013Z" transform="translate(8324.017 1964.558)" fill="#5b5b72"/><path d="M258.574,159.48l-.424.231.4.231h.077l.424-.231-.4-.231Z" transform="translate(8324.14 1964.491)" fill="#5b5b72"/><path d="M259,159.233l-.424.244h0l.4.218h.077l.424-.244-.4-.231Z" transform="translate(8324.262 1964.417)" fill="#5b5b72"/><path d="M259.434,159l-.424.244h0l.385.231a.1.1,0,0,0,.09,0l.424-.244h0l-.385-.231Z" transform="translate(8324.383 1964.355)" fill="#5b5b72"/><path d="M259.864,158.73l-.424.244.4.231a.116.116,0,0,0,.09,0l.424-.244h0l-.4-.218Z" transform="translate(8324.505 1964.278)" fill="#5b5b72"/><path d="M260.972,158.185l-1.092.629v.064l.372.218a.18.18,0,0,0,.116,0l1.092-.629V158.4l-.372-.218A.09.09,0,0,0,260.972,158.185Z" transform="translate(8324.631 1964.117)" fill="#5b5b72"/><path d="M254.614,161.282l-.424.244h0l.385.231h.09l.424-.244h0l-.385-.218a.077.077,0,0,0-.09-.013Z" transform="translate(8323.013 1965.001)" fill="#5b5b72"/><path d="M255.094,161l-.424.244h0l.385.231h.039l.424-.244h0Z" transform="translate(8323.149 1964.923)" fill="#5b5b72"/><path d="M255.474,160.793l-.424.231h0l.4.231h.077l.424-.244-.4-.231Z" transform="translate(8323.258 1964.861)" fill="#5b5b72"/><path d="M256.042,160.481l-.552.308v.064l.385.218h.1l.552-.308h0l-.385-.218S256.055,160.455,256.042,160.481Z" transform="translate(8323.383 1964.775)" fill="#5b5b72"/><path d="M258.569,159.262,256,160.714v.116l.27.154a.231.231,0,0,0,.205,0l2.5-1.451v-.116l-.27-.154A.231.231,0,0,0,258.569,159.262Z" transform="translate(8323.527 1964.426)" fill="#5b5b72"/><path d="M258.735,158.92l-.565.321v.064l.385.218a.116.116,0,0,0,.09,0l.565-.321-.385-.231Z" transform="translate(8324.145 1964.332)" fill="#5b5b72"/><path d="M259.091,158.67l-.411.244.4.231h.09l.424-.244-.4-.231Z" transform="translate(8324.289 1964.261)" fill="#5b5b72"/><path d="M259.561,158.42l-.411.244.4.231h.09l.424-.244-.4-.231Z" transform="translate(8324.424 1964.19)" fill="#5b5b72"/><path d="M260.207,158.29l-.437.257h0l.167.1h0l.45-.257-.167-.09Z" transform="translate(8324.6 1964.153)" fill="#5b5b72"/><path d="M260.01,158.173l-.45.257.167.09h.064l.449-.257h0l-.154-.1Z" transform="translate(8324.54 1964.116)" fill="#5b5b72"/><path d="M260.411,157.933l-.411.244.4.231h.09l.424-.244-.4-.231a.116.116,0,0,0-.1,0Z" transform="translate(8324.665 1964.048)" fill="#5b5b72"/><path d="M264.143,159.13l-7.873,4.546.244.141a.077.077,0,0,0,.077,0l7.886-4.546-.231-.141Z" transform="translate(8323.604 1964.392)" fill="#5b5b72"/><path d="M256.031,158.227l-1.284.771a.257.257,0,0,1-.167,0h0l1.477-.848h0A.075.075,0,0,1,256.031,158.227Z" transform="translate(8323.124 1964.113)" fill="#aebecc"/><path d="M265.059,161.1l-8.4,4.842c-.116.077-.193,0-.18-.141l1.015-7.192a.578.578,0,0,1,.257-.4l8.386-4.842c.128-.077.205,0,.18.141l-1,7.192A.629.629,0,0,1,265.059,161.1Z" transform="translate(8323.663 1962.745)" fill="#aebecc"/><path d="M250.036,143.7a4.213,4.213,0,0,0-1.734,3.712c.116,1.451,0,8.99,1.464,9.144s1.644-3.018,1.785-4.611c.1-1.182,0-7.41-.616-8.669A4.626,4.626,0,0,0,250.036,143.7Z" transform="translate(8321.337 1959.886)" fill="#b3ebff"/><path d="M254.224,155.942s0,.886-1.374,1.284a1.952,1.952,0,0,1,.372-1.079,1,1,0,0,1,1-.206Z" transform="translate(8322.632 1963.47)" fill="#4d7cff"/><path d="M257.105,159.737c.257-.128.09-.873-.372-1.541a5.433,5.433,0,0,0-2.414-1.554l-.835-.912-.783.963.809.719a.668.668,0,0,0,.1.578c.193.3,1.079.539,1.348.938s.527.565.642.5,0-.3-.141-.565a1.618,1.618,0,0,0-.591-.6,1.965,1.965,0,0,1,.873.5C256.27,159.236,256.514,160.02,257.105,159.737Z" transform="translate(8322.589 1963.425)" fill="#ffccd1"/><path d="M255.427,157.037a1.875,1.875,0,0,0-.848.385,1.631,1.631,0,0,0-.527.886,34.673,34.673,0,0,1-3.275-2.222c-.848-.771-2.183-1.978-2.158-3.172s1.824-1.079,2.479-.218a18.609,18.609,0,0,0,2.376,2.569Z" transform="translate(8321.43 1962.375)" fill="#b3ebff"/><path d="M185.3,134.64,221.6,113.693l-8-47.763L177.3,86.877Z" transform="translate(8301.153 1937.896)" fill="#fff" stroke="#dae1e5" stroke-linecap="round" stroke-linejoin="round" stroke-width="0.31"/><path d="M183.917,90.83l19.059-10.994a1.58,1.58,0,0,0,.745-1.49h0a.655.655,0,0,0-1.066-.424L183.6,88.917a1.567,1.567,0,0,0-.745,1.477h0a.655.655,0,0,0,1.066.437Z" transform="translate(8302.729 1941.263)" fill="#dae1e5"/><path d="M187.367,92.427l15.412-8.913a1.554,1.554,0,0,0,.745-1.477h0a.655.655,0,0,0-1.066-.424l-15.412,8.9a1.567,1.567,0,0,0-.745,1.477h0a.655.655,0,0,0,1.066.437Z" transform="translate(8303.711 1942.312)" fill="#dae1e5"/><ellipse cx="1.759" cy="1.207" rx="1.759" ry="1.207" transform="matrix(0.517, -0.856, 0.856, 0.517, 8508.078, 2021.038)" fill="#f3516f"/><path d="M185.423,99.763l19.033-11.006a1.554,1.554,0,0,0,.745-1.477h0a.655.655,0,0,0-1.066-.437L185.089,97.849a1.593,1.593,0,0,0-.758,1.477h0a.668.668,0,0,0,1.092.437Z" transform="translate(8303.15 1943.799)" fill="#dae1e5"/><path d="M190.226,100.342l13.652-7.886a1.58,1.58,0,0,0,.758-1.477h0a.655.655,0,0,0-1.066-.437L189.956,98.4a1.567,1.567,0,0,0-.745,1.477h0a.655.655,0,0,0,1.015.462Z" transform="translate(8304.538 1944.851)" fill="#dae1e5"/><ellipse cx="1.759" cy="1.207" rx="1.759" ry="1.207" transform="matrix(0.517, -0.856, 0.856, 0.517, 8509.991, 2032.496)" fill="#4d7cff"/><path d="M186.908,108.68l19.059-10.994a1.567,1.567,0,0,0,.745-1.477h0a.655.655,0,0,0-1.066-.437l-19.059,11.006a1.554,1.554,0,0,0-.745,1.477h0a.655.655,0,0,0,1.066.424Z" transform="translate(8303.58 1946.338)" fill="#dae1e5"/><path d="M188.947,111.345l17.235-9.889a1.567,1.567,0,0,0,.745-1.477h0a.655.655,0,0,0-1.066-.437L188.626,109.5a1.567,1.567,0,0,0-.745,1.477h0C187.958,111.435,188.446,111.628,188.947,111.345Z" transform="translate(8304.159 1947.409)" fill="#dae1e5"/><ellipse cx="1.768" cy="1.213" rx="1.768" ry="1.213" transform="matrix(0.517, -0.856, 0.856, 0.517, 8513.104, 2043.172)" fill="#dae1e5"/><path d="M186.908,108.68l19.059-10.994a1.567,1.567,0,0,0,.745-1.477h0a.655.655,0,0,0-1.066-.437l-19.059,11.006a1.554,1.554,0,0,0-.745,1.477h0a.655.655,0,0,0,1.066.424Z" transform="translate(8303.58 1946.338)" fill="#dae1e5"/><path d="M188.947,111.345l17.235-9.889a1.567,1.567,0,0,0,.745-1.477h0a.655.655,0,0,0-1.066-.437L188.626,109.5a1.567,1.567,0,0,0-.745,1.477h0C187.958,111.435,188.446,111.628,188.947,111.345Z" transform="translate(8304.159 1947.409)" fill="#dae1e5"/><ellipse cx="1.768" cy="1.213" rx="1.768" ry="1.213" transform="matrix(0.517, -0.856, 0.856, 0.517, 8513.104, 2043.172)" fill="#ffb31a"/><path d="M58.131,171.533l36.294-20.96-8-47.763L50.13,123.77Z" transform="translate(8265 1948.38)" fill="#fff" stroke="#dae1e5" stroke-linecap="round" stroke-linejoin="round" stroke-width="0.31"/><path d="M58.223,137.22l23.592-13.614a1.567,1.567,0,0,0,.809-1.477h0a.655.655,0,0,0-1.066-.437L57.966,135.306a1.58,1.58,0,0,0-.745,1.49h0a.655.655,0,0,0,1,.424Z" transform="translate(8267.014 1953.707)" fill="#dae1e5"/><path d="M58.858,140.938l23.605-13.614a1.567,1.567,0,0,0,.745-1.49h0c-.077-.527-.565-.719-1.066-.424L58.549,139.05a1.554,1.554,0,0,0-.758,1.49h0a.655.655,0,0,0,1.066.4Z" transform="translate(8267.176 1954.766)" fill="#dae1e5"/><path d="M59.488,144.66,83.08,131.047a1.567,1.567,0,0,0,.745-1.49h0a.655.655,0,0,0-1.066-.424L59.167,142.747a1.567,1.567,0,0,0-.745,1.49h0C58.5,144.763,58.987,144.956,59.488,144.66Z" transform="translate(8267.355 1955.822)" fill="#dae1e5"/><path d="M60.107,148.38,83.7,134.767a1.58,1.58,0,0,0,.745-1.49h0a.655.655,0,0,0-1.066-.424L59.786,146.467a1.567,1.567,0,0,0-.745,1.477h0a.655.655,0,0,0,1.066.437Z" transform="translate(8267.531 1956.879)" fill="#dae1e5"/><path d="M66.377,147.919l16.336-9.465a1.554,1.554,0,0,0,.745-1.477h0a.655.655,0,0,0-1.066-.424l-16.323,9.452a1.567,1.567,0,0,0-.758,1.477h0a.655.655,0,0,0,1.066.437Z" transform="translate(8269.314 1957.931)" fill="#dae1e5"/><path d="M58.487,123.1l9.953-5.766a1.554,1.554,0,0,0,.745-1.477h0c-.077-.527-.565-.719-1.066-.424l-9.953,5.754a1.567,1.567,0,0,0-.745,1.477h0a.655.655,0,0,0,1.066.437Z" transform="translate(8267.071 1951.929)" fill="#5abcff"/><path d="M57,128.387l12.7-7.333a1.554,1.554,0,0,0,.745-1.477h0a.655.655,0,0,0-1.066-.424l-12.7,7.333a1.58,1.58,0,0,0-.758,1.477h0a.655.655,0,0,0,1.079.424Z" transform="translate(8266.645 1952.984)" fill="#5abcff"/><path d="M63.237,127.92l5.445-3.147a1.554,1.554,0,0,0,.745-1.477h0a.655.655,0,0,0-1.066-.424l-5.445,3.134a1.567,1.567,0,0,0-.745,1.477h0a.655.655,0,0,0,1.066.437Z" transform="translate(8268.421 1954.042)" fill="#5abcff"/><path d="M77.741,121.987l-6.421,3.66a.655.655,0,0,1-.963-.36l-1.605-9.555a1.58,1.58,0,0,1,.758-1.477l6.344-3.673a.655.655,0,0,1,1.066.437l1.605,9.555A1.567,1.567,0,0,1,77.741,121.987Z" transform="translate(8270.293 1950.548)" fill="#ffb31a"/><path d="M146.84,221.67l.077,2.093L168.6,236.375l-.077-2.093Z" transform="translate(8292.494 1982.172)" fill="#aebecc"/><path d="M163.72,234.282l.077,2.093,21.833-12.612-.077-2.093Z" transform="translate(8297.293 1982.172)" fill="#c3ced8"/><path d="M146.84,224.459l21.679,12.612,21.833-12.612-21.679-12.6Z" transform="translate(8292.494 1979.383)" fill="#fff"/><path d="M160.33,202.89l.039,20.7,4.919,2.864-.039-20.7Z" transform="translate(8296.329 1976.833)" fill="#aebecc"/><path d="M164.16,205.754l.039,20.7,4.957-2.864-.039-20.7Z" transform="translate(8297.418 1976.833)" fill="#dae1e5"/><path d="M160.33,203.524l4.919,2.864,4.957-2.864-4.919-2.864Z" transform="translate(8296.329 1976.199)" fill="#c3ced8"/><path d="M166.72,201.77l.039,26.649,4.919,2.864-.039-26.649Z" transform="translate(8298.146 1976.514)" fill="#53b1e5"/><path d="M170.55,204.634l.039,26.649,4.957-2.864-.039-26.649Z" transform="translate(8299.234 1976.514)" fill="#73cdff"/><path d="M166.72,202.4l4.919,2.864L176.6,202.4l-4.919-2.864Z" transform="translate(8298.146 1975.88)" fill="#5abcff"/><path d="M153.18,206.76l.026,20.7,4.932,2.864-.039-20.7Z" transform="translate(8294.297 1977.933)" fill="#ffbf4d"/><path d="M157.01,209.624l.039,20.7,4.957-2.864-.039-20.7Z" transform="translate(8295.385 1977.933)" fill="#ffda99"/><path d="M153.18,207.394l4.919,2.864,4.957-2.864-4.932-2.864Z" transform="translate(8294.297 1977.299)" fill="#ffd073"/><path d="M159.62,215.08l.039,14.744,4.932,2.864-.039-14.757Z" transform="translate(8296.128 1980.298)" fill="#e54567"/><path d="M163.46,217.931l.039,14.757,4.945-2.864-.026-14.744Z" transform="translate(8297.22 1980.298)" fill="#f2618d"/><path d="M159.62,215.714l4.932,2.851,4.957-2.851-4.932-2.864Z" transform="translate(8296.128 1979.664)" fill="#f3516f"/></g></svg>