<svg xmlns="http://www.w3.org/2000/svg" width="101.491" height="102.835" viewBox="0 0 101.491 102.835">
  <g id="Group_260" data-name="Group 260" transform="translate(-376.398 -7079.71)">
    <path id="Path_619" data-name="Path 619" d="M378.281,7131.387a1.232,1.232,0,0,1,0-1.74l48.277-48.277a5.685,5.685,0,0,1,8.029,0l4.978,4.978a1.23,1.23,0,0,1,0,1.741l-47.585,47.585a1.232,1.232,0,0,1-1.741,0h0l-4.293-4.293a4.182,4.182,0,0,0-5.915,0l-.009.009a1.231,1.231,0,0,1-1.741,0Zm54.568-48.278a3.218,3.218,0,0,0-4.548,0l-44.62,44.619a6.6,6.6,0,0,1,4,1.913l3.42,3.42,45.849-45.85Z" fill="#939597"/>
    <path id="Path_620" data-name="Path 620" d="M425.791,7171.23l-35.554-35.554a1.231,1.231,0,0,1,0-1.74h0l47.59-47.59a1.23,1.23,0,0,1,1.74,0l35.554,35.553a1.231,1.231,0,0,1,0,1.741l-47.587,47.587a1.232,1.232,0,0,1-1.741,0ZM392.846,7134.8l33.815,33.816,45.849-45.849L438.7,7088.954Z" fill="#939597"/>
    <path id="Path_621" data-name="Path 621" d="M418.118,7178.9l-39.844-39.843a6.658,6.658,0,0,1,9.414-9.414l39.843,39.843a1.231,1.231,0,0,1-.583,2.067c-4.115.991-6.252,3.1-6.741,6.643a1.231,1.231,0,0,1-2.088.7Zm-32.171-47.517a4.2,4.2,0,0,0-5.932,5.933l38.291,38.291a9.639,9.639,0,0,1,6.036-5.83Z" fill="#939597"/>
    <path id="Path_622" data-name="Path 622" d="M433.356,7102.072a1.232,1.232,0,0,1,0-1.741l9.228-9.228a1.232,1.232,0,0,1,1.741,0l6.08,6.08a1.232,1.232,0,0,1,0,1.741l-9.228,9.228a1.23,1.23,0,0,1-2.071-.6l-.934-4.215-4.215-.933A1.225,1.225,0,0,1,433.356,7102.072Zm10.1-8.358-6.77,6.77,2.791.619a1.237,1.237,0,0,1,.936.936l.617,2.79,6.771-6.771Z" fill="#939597"/>
    <path id="Path_623" data-name="Path 623" d="M464.989,7132.031a1.23,1.23,0,0,1-.361-.862l-.114-16.894a1.232,1.232,0,0,1,2.463-.019l.113,16.9a1.23,1.23,0,0,1-2.1.878Z" fill="#939597"/>
    <path id="Path_624" data-name="Path 624" d="M441.532,7179.528a1.229,1.229,0,0,1,0-1.74l33.394-33.394a1.716,1.716,0,0,0,0-2.424l-3.874-3.875a1.717,1.717,0,0,0-2.424,0l-33.4,33.4a1.231,1.231,0,0,1-1.741-1.741l33.4-33.4a4.179,4.179,0,0,1,5.9,0l3.875,3.874a4.18,4.18,0,0,1,0,5.9l-33.4,33.4A1.231,1.231,0,0,1,441.532,7179.528Z" fill="#939597"/>
    <path id="Path_625" data-name="Path 625" d="M471.429,7149.631l-8.038-8.037a1.233,1.233,0,0,1,0-1.741l3.5-3.5a4.179,4.179,0,0,1,5.9,0l3.875,3.874a4.18,4.18,0,0,1,0,5.9l-3.5,3.5a1.23,1.23,0,0,1-1.74,0ZM466,7140.723l6.3,6.3,2.627-2.627a1.716,1.716,0,0,0,0-2.424l-3.874-3.875a1.717,1.717,0,0,0-2.424,0Z" fill="#939597"/>
    <path id="Path_626" data-name="Path 626" d="M430.835,7182.187a1.23,1.23,0,0,1-.324-1.166l2.658-10.7a1.231,1.231,0,0,1,2.311-.221,14.686,14.686,0,0,0,7.438,7.439,1.231,1.231,0,0,1-.221,2.31L432,7182.51a1.232,1.232,0,0,1-1.164-.323Zm3.983-8.293-1.431,5.74,5.735-1.425a16.816,16.816,0,0,1-4.305-4.314Z" fill="#939597"/>
    <path id="Path_627" data-name="Path 627" d="M436.776,7176.246a1.231,1.231,0,0,1,0-1.741l30.632-30.632a1.231,1.231,0,0,1,1.741,1.74l-30.633,30.633A1.231,1.231,0,0,1,436.776,7176.246Z" fill="#939597"/>
  </g>
</svg>


