<?xml version="1.0" encoding="iso-8859-1"?>
<!-- Generator: Adobe Illustrator 18.0.0, SVG Export Plug-In . SVG Version: 6.00 Build 0)  -->
<!DOCTYPE svg PUBLIC "-//W3C//DTD SVG 1.1//EN" "http://www.w3.org/Graphics/SVG/1.1/DTD/svg11.dtd">
<svg version="1.1" id="Capa_1" xmlns="http://www.w3.org/2000/svg" xmlns:xlink="http://www.w3.org/1999/xlink" x="0px" y="0px"
	 viewBox="0 0 281.488 281.488" style="enable-background:new 0 0 281.488 281.488;" xml:space="preserve">
<g>
	<path d="M140.744,0C63.138,0,0,63.138,0,140.744s63.138,140.744,140.744,140.744s140.744-63.138,140.744-140.744
		S218.351,0,140.744,0z M140.744,263.488C73.063,263.488,18,208.426,18,140.744S73.063,18,140.744,18
		s122.744,55.063,122.744,122.744S208.426,263.488,140.744,263.488z"/>
	<path d="M200.254,118.076c-9.302,0-17.31,5.634-20.8,13.668h-78.965l24.197-22.619c3.631-3.394,3.822-9.089,0.428-12.721
		c-3.393-3.631-9.091-3.823-12.72-0.428L71.535,134.17c-1.82,1.701-2.854,4.082-2.854,6.574s1.033,4.873,2.854,6.574l40.858,38.193
		c1.735,1.623,3.941,2.426,6.144,2.426c2.405,0,4.805-0.958,6.576-2.854c3.395-3.632,3.203-9.327-0.428-12.721l-24.197-22.619
		h78.965c3.49,8.034,11.498,13.668,20.8,13.668c12.499,0,22.668-10.169,22.668-22.668S212.753,118.076,200.254,118.076z
		 M200.254,145.412c-2.574,0-4.668-2.094-4.668-4.668s2.094-4.668,4.668-4.668s4.668,2.094,4.668,4.668
		S202.828,145.412,200.254,145.412z"/>
</g>
<g>
</g>
<g>
</g>
<g>
</g>
<g>
</g>
<g>
</g>
<g>
</g>
<g>
</g>
<g>
</g>
<g>
</g>
<g>
</g>
<g>
</g>
<g>
</g>
<g>
</g>
<g>
</g>
<g>
</g>
</svg>
