<svg xmlns="http://www.w3.org/2000/svg" width="280.614" height="280.592" viewBox="0 0 280.614 280.592">
  <g id="Group_259" data-name="Group 259" transform="translate(-1262.901 -7336.17)">
    <path id="Path_607" data-name="Path 607" d="M1542.492,7459.851,1386.6,7615.741a3.482,3.482,0,0,1-4.924,0l-105.036-105.036a3.481,3.481,0,0,1,4.924-4.923l102.574,102.574,150.969-150.97-102.574-102.574a3.481,3.481,0,0,1,4.924-4.923l105.035,105.036a3.481,3.481,0,0,1,0,4.923Z" fill="#3a3868"/>
    <path id="Path_608" data-name="Path 608" d="M1412.011,7485.277a3.48,3.48,0,0,1-1.8.955l-130.451,25.455a3.482,3.482,0,0,1-4.083-4.084l8.1-41.577a3.481,3.481,0,0,1,6.834,1.332l-7.119,36.5,123.088-24.007,23.995-123.056-36.5,7.106a3.481,3.481,0,0,1-1.332-6.834l41.574-8.094a3.481,3.481,0,0,1,4.083,4.083l-25.418,130.415a3.5,3.5,0,0,1-.969,1.809Z" fill="#3a3868"/>
    <path id="Path_609" data-name="Path 609" d="M1344.185,7373a3.428,3.428,0,0,1-1.793.952l-34.914,6.791-6.791,34.888a3.484,3.484,0,0,1-6.838-1.336l7.245-37.185a3.489,3.489,0,0,1,2.75-2.751l37.183-7.241a3.481,3.481,0,0,1,3.131,5.882Z" fill="#3a3868"/>
    <path id="Path_610" data-name="Path 610" d="M1386.606,7615.738a3.482,3.482,0,0,1-5.925-2.859l14.8-128.38a3.482,3.482,0,0,1,6.916.8l-14.813,128.383a3.471,3.471,0,0,1-.975,2.052Z" fill="#3a3868"/>
    <path id="Path_611" data-name="Path 611" d="M1542.489,7459.855a3.471,3.471,0,0,1-2.058.994l-128.387,14.817a3.485,3.485,0,0,1-.81-6.923l128.389-14.819a3.481,3.481,0,0,1,2.859,5.924Z" fill="#3a3868"/>
    <path id="Path_612" data-name="Path 612" d="M1429.428,7396.469a3.481,3.481,0,0,1-4.924,0l-51.894-51.894-101.3,101.3,51.894,51.9a3.481,3.481,0,0,1-4.923,4.923l-54.356-54.356a3.48,3.48,0,0,1,0-4.923l106.227-106.228a3.483,3.483,0,0,1,4.924,0l54.356,54.356A3.483,3.483,0,0,1,1429.428,7396.469Z" fill="#3a3868"/>
    <path id="Path_613" data-name="Path 613" d="M1372.035,7380.789l-64.518,64.518a3.481,3.481,0,1,1-4.923-4.923l64.518-64.518a3.481,3.481,0,0,1,4.923,4.923Z" fill="#3a3868"/>
    <path id="Path_614" data-name="Path 614" d="M1388.789,7397.542l-64.519,64.519a3.481,3.481,0,1,1-4.923-4.924l64.518-64.518a3.481,3.481,0,0,1,4.924,4.923Z" fill="#3a3868"/>
    <path id="Path_615" data-name="Path 615" d="M1405.542,7414.3l-64.518,64.518a3.482,3.482,0,0,1-4.924-4.924l64.518-64.518a3.482,3.482,0,0,1,4.924,4.924Z" fill="#3a3868"/>
    <path id="Path_616" data-name="Path 616" d="M1433.606,7544.12l-1.782,1.782a3.481,3.481,0,0,1-4.924-4.923l1.783-1.783a3.482,3.482,0,0,1,4.923,4.924Z" fill="#3a3868"/>
    <path id="Path_617" data-name="Path 617" d="M1453.12,7524.606l-1.779,1.779a3.481,3.481,0,0,1-4.924-4.923l1.779-1.779a3.481,3.481,0,0,1,4.924,4.923Z" fill="#3a3868"/>
    <path id="Path_618" data-name="Path 618" d="M1472.637,7505.089l-1.783,1.782a3.481,3.481,0,0,1-4.923-4.923l1.782-1.782a3.481,3.481,0,1,1,4.924,4.923Z" fill="#3a3868"/>
  </g>
</svg>
