<svg xmlns="http://www.w3.org/2000/svg" width="154.001" height="156.588" viewBox="0 0 154.001 156.588">
  <g id="Group_307" data-name="Group 307" transform="translate(-374.292 -7422.777)">
    <g id="Group_262" data-name="Group 262">
      <g id="Group_261" data-name="Group 261">
        <path id="Path_628" data-name="Path 628" d="M525.983,7422.777H393.7a2.4,2.4,0,0,0-1.844.816,2.3,2.3,0,0,0,.664,3.506l30.853,16.613.006.008,7.183,47.889a2.322,2.322,0,0,0,3.6,1.532l30.132-21.409a.011.011,0,0,1,.012,0l21.352,11.744a2.321,2.321,0,0,0,2.995-.7l22.451-32.274a2.3,2.3,0,1,0-3.774-2.625l-21.264,30.567a.011.011,0,0,1-.014,0l-42.583-23.421a.011.011,0,0,1,0-.02l76.649-25.55a.011.011,0,0,1,.012.017l-6.354,9.134a2.368,2.368,0,0,0,.465,3.253,2.3,2.3,0,0,0,3.248-.54l10.387-14.931a2.306,2.306,0,0,0-1.9-3.611Zm-66.163,46.482a.011.011,0,0,1,0,.019l-23.983,17.04a.011.011,0,0,1-.017-.011l3.755-28.165a.011.011,0,0,1,.017-.008Zm36.8-36.814-59.606,19.869a2.324,2.324,0,0,0-1.551,1.876l-2.749,20.613a.011.011,0,0,1-.022,0l-4.6-30.671a.01.01,0,0,1,.009-.012l68.513-11.7A.011.011,0,0,1,496.622,7432.445Zm2.129-5.049-72.869,12.441h-.007L402.77,7427.4a.011.011,0,0,1,.005-.021H498.75A.011.011,0,0,1,498.751,7427.4Z" fill="#dfdfdf"/>
      </g>
    </g>
    <g id="Group_264" data-name="Group 264">
      <g id="Group_263" data-name="Group 263">
        <path id="Path_629" data-name="Path 629" d="M415.549,7514.76c-.645.01-1.3.036-1.952.078a2.3,2.3,0,0,0,.146,4.593c.05,0,.1,0,.151-.005.574-.037,1.154-.061,1.723-.069a2.3,2.3,0,0,0-.068-4.6Z" fill="#dfdfdf"/>
      </g>
    </g>
    <g id="Group_266" data-name="Group 266">
      <g id="Group_265" data-name="Group 265">
        <path id="Path_630" data-name="Path 630" d="M426.844,7516.381a32.069,32.069,0,0,0-3.721-.96,2.3,2.3,0,0,0-.884,4.511,27.449,27.449,0,0,1,3.186.821,2.3,2.3,0,0,0,1.419-4.372Z" fill="#dfdfdf"/>
      </g>
    </g>
    <g id="Group_268" data-name="Group 268">
      <g id="Group_267" data-name="Group 267">
        <path id="Path_631" data-name="Path 631" d="M402.914,7537.652a22.043,22.043,0,0,1-.309-3.212,2.3,2.3,0,1,0-4.6.106,26.615,26.615,0,0,0,.373,3.883,2.3,2.3,0,0,0,4.531-.777Z" fill="#dfdfdf"/>
      </g>
    </g>
    <g id="Group_270" data-name="Group 270">
      <g id="Group_269" data-name="Group 269">
        <path id="Path_632" data-name="Path 632" d="M414.126,7551.847a15.677,15.677,0,0,1-2.808-1.325,2.3,2.3,0,0,0-2.362,3.945,20.3,20.3,0,0,0,3.634,1.712,2.3,2.3,0,0,0,1.536-4.332Z" fill="#dfdfdf"/>
      </g>
    </g>
    <g id="Group_272" data-name="Group 272">
      <g id="Group_271" data-name="Group 271">
        <path id="Path_633" data-name="Path 633" d="M417.11,7505.879a2.3,2.3,0,0,0-3.229-.372c-.975.774-1.932,1.6-2.842,2.445a2.3,2.3,0,1,0,3.133,3.363c.822-.766,1.686-1.509,2.566-2.207A2.3,2.3,0,0,0,417.11,7505.879Z" fill="#dfdfdf"/>
      </g>
    </g>
    <g id="Group_274" data-name="Group 274">
      <g id="Group_273" data-name="Group 273">
        <path id="Path_634" data-name="Path 634" d="M406.666,7546.363a18.5,18.5,0,0,1-1.715-2.666,2.3,2.3,0,0,0-4.062,2.15,23.066,23.066,0,0,0,2.141,3.327,2.3,2.3,0,1,0,3.636-2.811Z" fill="#dfdfdf"/>
      </g>
    </g>
    <g id="Group_276" data-name="Group 276">
      <g id="Group_275" data-name="Group 275">
        <path id="Path_635" data-name="Path 635" d="M403.218,7521.948a2.3,2.3,0,0,0-3.015,1.213,28.83,28.83,0,0,0-1.3,3.663,2.3,2.3,0,1,0,4.436,1.2,24.074,24.074,0,0,1,1.09-3.064A2.3,2.3,0,0,0,403.218,7521.948Z" fill="#dfdfdf"/>
      </g>
    </g>
    <g id="Group_278" data-name="Group 278">
      <g id="Group_277" data-name="Group 277">
        <path id="Path_636" data-name="Path 636" d="M409.2,7513.078a2.3,2.3,0,0,0-3.226.4c-.769.986-1.505,2.013-2.187,3.051a2.3,2.3,0,0,0,3.841,2.525c.615-.934,1.278-1.86,1.971-2.749A2.3,2.3,0,0,0,409.2,7513.078Z" fill="#dfdfdf"/>
      </g>
    </g>
    <g id="Group_280" data-name="Group 280">
      <g id="Group_279" data-name="Group 279">
        <path id="Path_637" data-name="Path 637" d="M436.889,7522.409a21,21,0,0,0-3.046-2.6,2.3,2.3,0,1,0-2.642,3.761,16.355,16.355,0,0,1,2.378,2.025,2.3,2.3,0,1,0,3.31-3.19Z" fill="#dfdfdf"/>
      </g>
    </g>
    <g id="Group_282" data-name="Group 282">
      <g id="Group_281" data-name="Group 281">
        <path id="Path_638" data-name="Path 638" d="M426.153,7554.077a2.3,2.3,0,0,0-2.729-1.766,20.235,20.235,0,0,1-2.985.4l-.179.01a2.3,2.3,0,0,0,.112,4.594l.116,0,.234-.013a24.659,24.659,0,0,0,3.666-.5A2.3,2.3,0,0,0,426.153,7554.077Z" fill="#dfdfdf"/>
      </g>
    </g>
    <g id="Group_284" data-name="Group 284">
      <g id="Group_283" data-name="Group 283">
        <path id="Path_639" data-name="Path 639" d="M441.827,7533.385a18.324,18.324,0,0,0-.758-4,2.3,2.3,0,0,0-4.389,1.368,13.685,13.685,0,0,1,.564,2.994,2.3,2.3,0,0,0,4.583-.358Z" fill="#dfdfdf"/>
      </g>
    </g>
    <g id="Group_286" data-name="Group 286">
      <g id="Group_285" data-name="Group 285">
        <path id="Path_640" data-name="Path 640" d="M439.407,7538.415a2.3,2.3,0,0,0-2.856,1.553,18.7,18.7,0,0,1-1.153,2.956,2.3,2.3,0,1,0,4.124,2.029,23.321,23.321,0,0,0,1.438-3.684A2.3,2.3,0,0,0,439.407,7538.415Z" fill="#dfdfdf"/>
      </g>
    </g>
    <g id="Group_288" data-name="Group 288">
      <g id="Group_287" data-name="Group 287">
        <path id="Path_641" data-name="Path 641" d="M426.47,7500.714a2.3,2.3,0,0,0-3.057-1.1c-1.128.53-2.246,1.107-3.323,1.716a2.3,2.3,0,0,0,1.134,4.3,2.3,2.3,0,0,0,1.13-.3c.975-.552,1.99-1.076,3.013-1.557A2.3,2.3,0,0,0,426.47,7500.714Z" fill="#dfdfdf"/>
      </g>
    </g>
    <g id="Group_290" data-name="Group 290">
      <g id="Group_289" data-name="Group 289">
        <path id="Path_642" data-name="Path 642" d="M434.934,7548.084a2.3,2.3,0,0,0-3.249-.084,16.922,16.922,0,0,1-2.463,1.938,2.3,2.3,0,0,0,2.494,3.862,21.54,21.54,0,0,0,3.134-2.467A2.3,2.3,0,0,0,434.934,7548.084Z" fill="#dfdfdf"/>
      </g>
    </g>
    <g id="Group_292" data-name="Group 292">
      <g id="Group_291" data-name="Group 291">
        <path id="Path_643" data-name="Path 643" d="M435.06,7498.029a2.3,2.3,0,0,0-2.813-1.627c-.62.165-1.241.343-1.845.527a2.3,2.3,0,1,0,1.34,4.4c.554-.169,1.122-.332,1.691-.484A2.3,2.3,0,0,0,435.06,7498.029Z" fill="#dfdfdf"/>
      </g>
    </g>
    <g id="Group_294" data-name="Group 294">
      <g id="Group_293" data-name="Group 293">
        <path id="Path_644" data-name="Path 644" d="M383.4,7576.019c-.266-.517-.525-1.044-.769-1.568a2.3,2.3,0,1,0-4.167,1.942c.271.58.557,1.163.852,1.734a2.3,2.3,0,1,0,4.084-2.108Z" fill="#dfdfdf"/>
      </g>
    </g>
    <g id="Group_296" data-name="Group 296">
      <g id="Group_295" data-name="Group 295">
        <path id="Path_645" data-name="Path 645" d="M380.35,7568.351c-.3-1.043-.551-2.1-.757-3.159a2.3,2.3,0,1,0-4.511.881c.23,1.18.515,2.368.846,3.534a2.3,2.3,0,0,0,4.422-1.256Z" fill="#dfdfdf"/>
      </g>
    </g>
    <g id="Group_298" data-name="Group 298">
      <g id="Group_297" data-name="Group 297">
        <path id="Path_646" data-name="Path 646" d="M376.819,7553.062a2.3,2.3,0,0,0-2.44,2.147c-.058.9-.087,1.814-.087,2.715a3.415,3.415,0,0,0,.515,2.31,2.3,2.3,0,0,0,3.634-.063,3.44,3.44,0,0,0,.448-2.247c0-.8.026-1.618.077-2.422A2.3,2.3,0,0,0,376.819,7553.062Z" fill="#dfdfdf"/>
      </g>
    </g>
    <g id="Group_300" data-name="Group 300">
      <g id="Group_299" data-name="Group 299">
        <path id="Path_647" data-name="Path 647" d="M379.315,7543.053a2.3,2.3,0,0,0-2.893,1.481c-.371,1.149-.7,2.325-.974,3.495a2.3,2.3,0,0,0,4.475,1.052c.246-1.049.54-2.1.873-3.135A2.3,2.3,0,0,0,379.315,7543.053Z" fill="#dfdfdf"/>
      </g>
    </g>
    <g id="Group_302" data-name="Group 302">
      <g id="Group_301" data-name="Group 301">
        <path id="Path_648" data-name="Path 648" d="M391.036,7526.268a2.3,2.3,0,0,0-3.25-.076q-.353.336-.7.684c-.621.621-1.234,1.278-1.824,1.952a2.3,2.3,0,0,0,.218,3.243,2.321,2.321,0,0,0,3.243-.217c.522-.6,1.065-1.179,1.613-1.727q.309-.309.623-.609A2.3,2.3,0,0,0,391.036,7526.268Z" fill="#dfdfdf"/>
      </g>
    </g>
    <g id="Group_304" data-name="Group 304">
      <g id="Group_303" data-name="Group 303">
        <path id="Path_649" data-name="Path 649" d="M384.125,7533.925a2.3,2.3,0,0,0-3.161.754c-.63,1.024-1.226,2.087-1.774,3.161a2.3,2.3,0,1,0,4.094,2.088c.493-.965,1.029-1.921,1.6-2.841A2.3,2.3,0,0,0,384.125,7533.925Z" fill="#dfdfdf"/>
      </g>
    </g>
    <g id="Group_306" data-name="Group 306">
      <g id="Group_305" data-name="Group 305">
        <path id="Path_650" data-name="Path 650" d="M398.277,7521.4a2.3,2.3,0,0,0-3.152-.795c-.554.331-1.108.68-1.647,1.038a2.3,2.3,0,0,0,2.541,3.83c.479-.317.971-.627,1.463-.921A2.3,2.3,0,0,0,398.277,7521.4Z" fill="#dfdfdf"/>
      </g>
    </g>
  </g>
</svg>
