<svg xmlns="http://www.w3.org/2000/svg" width="110.161" height="122.128" viewBox="0 0 110.161 122.128">
  <g id="_007-clipboard" data-name="007-clipboard" transform="translate(5.031 5.577)">
    <path id="Path_1192" data-name="Path 1192" d="M91.11,110.149c-24.252,0-40.906,12.562-52.591,12.562S2.29,115.993,2.29,62.234,35.307.583,48.16.583C108.35.583,134.06,110.149,91.11,110.149Z" transform="translate(-7.321 -6.16)" fill="#f9f9f9"/>
    <path id="Path_1193" data-name="Path 1193" d="M27.625,3.25h3.133V9.517H27.625Z" transform="translate(52.583 6.022)" fill="#a4afc1"/>
    <path id="Path_1194" data-name="Path 1194" d="M29.875,6.25h6.267V9.383H29.875Z" transform="translate(57.382 12.422)" fill="#a4afc1"/>
    <path id="Path_1195" data-name="Path 1195" d="M13.017,70.849A6.285,6.285,0,0,1,6.75,64.582V16.017A6.285,6.285,0,0,1,13.017,9.75H52.182a6.285,6.285,0,0,1,6.267,6.267V64.582a6.265,6.265,0,0,1-6.267,6.267Z" transform="translate(8.051 19.889)" fill="#f3f3f1"/>
    <path id="Path_1196" data-name="Path 1196" d="M37.383,13.017v6.267a3.134,3.134,0,0,1-3.133,3.133H13.883a3.134,3.134,0,0,1-3.133-3.133V13.017H17.8a6.267,6.267,0,0,1,12.533,0Z" transform="translate(16.584 13.489)" fill="#ff882d"/>
    <path id="Path_1197" data-name="Path 1197" d="M9.75,14.75H20.716V25.716H9.75Z" transform="translate(14.45 30.555)" fill="#ff882d"/>
    <path id="Path_1198" data-name="Path 1198" d="M9.75,22.75H20.716V33.716H9.75Z" transform="translate(14.45 47.621)" fill="#ff882d"/>
    <ellipse id="Ellipse_64" data-name="Ellipse 64" cx="18.016" cy="18.016" rx="18.016" ry="18.016" transform="translate(49.267 54.705)" fill="#ff882d"/>
    <path id="Path_1204" data-name="Path 1204" d="M13.8,64.582V16.017A6.285,6.285,0,0,1,20.066,9.75h-7.05A6.285,6.285,0,0,0,6.75,16.017V64.582a6.285,6.285,0,0,0,6.267,6.267h7.05A6.285,6.285,0,0,1,13.8,64.582Z" transform="translate(8.051 19.889)" fill="#d5dbe1"/>
    <path id="Path_1205" data-name="Path 1205" d="M22.316,29.666H11.35A2.351,2.351,0,0,1,9,27.316V16.35A2.351,2.351,0,0,1,11.35,14H22.316a2.351,2.351,0,0,1,2.35,2.35V27.316A2.351,2.351,0,0,1,22.316,29.666Zm-8.616-4.7h6.267V18.7H13.7Z" transform="translate(12.85 28.955)" stroke="#efefef" stroke-width="1"/>
    <path id="Path_1206" data-name="Path 1206" d="M22.316,37.666H11.35A2.351,2.351,0,0,1,9,35.316V24.35A2.351,2.351,0,0,1,11.35,22H22.316a2.351,2.351,0,0,1,2.35,2.35V35.316A2.351,2.351,0,0,1,22.316,37.666Zm-8.616-4.7h6.267V26.7H13.7Z" transform="translate(12.85 46.021)" stroke="#efefef" stroke-width="1"/>
    <path id="Path_1207" data-name="Path 1207" d="M15.75,14.5H32.983v4.7H15.75Z" transform="translate(27.25 30.022)" stroke="#efefef" stroke-width="1"/>
    <path id="Path_1208" data-name="Path 1208" d="M37.366,57.732A20.366,20.366,0,1,1,57.732,37.366,20.39,20.39,0,0,1,37.366,57.732Zm0-36.033A15.666,15.666,0,1,0,53.033,37.366,15.684,15.684,0,0,0,37.366,21.7Z" transform="translate(29.917 35.355)" stroke="#efefef" stroke-width="1"/>
    <path id="Path_1209" data-name="Path 1209" d="M27.9,37.437a2.345,2.345,0,0,1-1.661-.689L19.97,30.481l3.324-3.324,4.493,4.49L37.1,21.006,40.637,24.1,29.671,36.632a2.356,2.356,0,0,1-1.689.8A.82.82,0,0,1,27.9,37.437Z" transform="translate(36.252 43.901)" stroke="#efefef" stroke-width="1"/>
    <path id="Path_1210" data-name="Path 1210" d="M33.877,27.048h-4.7V17.616A3.922,3.922,0,0,0,25.261,13.7H19.37V9h5.891a8.626,8.626,0,0,1,8.616,8.616Z" transform="translate(34.972 18.289)" stroke="#efefef" stroke-width="1"/>
    <path id="Path_1211" data-name="Path 1211" d="M40.184,74.8H14.616A8.624,8.624,0,0,1,6,66.182V17.616A8.624,8.624,0,0,1,14.616,9h5.891v4.7H14.616A3.922,3.922,0,0,0,10.7,17.616V66.182A3.922,3.922,0,0,0,14.616,70.1H40.184Z" transform="translate(6.451 18.289)" stroke="#efefef" stroke-width="1"/>
    <path id="Path_1212" data-name="Path 1212" d="M35.849,26.366H15.483A5.489,5.489,0,0,1,10,20.883V14.616a2.351,2.351,0,0,1,2.35-2.35h5.026a8.618,8.618,0,0,1,16.581,0h5.026a2.351,2.351,0,0,1,2.35,2.35v6.267A5.489,5.489,0,0,1,35.849,26.366Zm-21.15-9.4v3.917a.784.784,0,0,0,.783.783H35.849a.784.784,0,0,0,.783-.783V16.966h-4.7a2.351,2.351,0,0,1-2.35-2.35,3.917,3.917,0,0,0-7.833,0,2.351,2.351,0,0,1-2.35,2.35Z" transform="translate(14.984 11.889)" stroke="#efefef" stroke-width="1"/>
  </g>
</svg>
