<svg id="_005-credit-card" data-name="005-credit-card" xmlns="http://www.w3.org/2000/svg" width="111.475" height="123.584" viewBox="0 0 111.475 123.584">
  <path id="Path_1158" data-name="Path 1158" d="M23.886,111.455c24.541,0,41.393,12.712,53.218,12.712s36.66-6.8,36.66-61.2S80.354.583,67.348.583C6.441.583-19.576,111.455,23.886,111.455Z" transform="translate(-2.29 -0.583)" fill="#f9f9f9"/>
  <path id="Path_1159" data-name="Path 1159" d="M8.322,12.644a5.322,5.322,0,1,1,5.322-5.322A5.328,5.328,0,0,1,8.322,12.644Zm0-7.1A1.774,1.774,0,1,0,10.1,7.322,1.777,1.777,0,0,0,8.322,5.548Z" transform="translate(-0.481 3.027)" fill="#a4afc1"/>
  <path id="Path_1160" data-name="Path 1160" d="M11.75,44.455V17.846a7.094,7.094,0,0,1,7.1-7.1h47.9a7.094,7.094,0,0,1,7.1,7.1V44.455a7.094,7.094,0,0,1-7.1,7.1h-47.9A7.094,7.094,0,0,1,11.75,44.455Z" transform="translate(21.813 25.321)" fill="#ff882d"/>
  <g id="Group_539" data-name="Group 539" transform="translate(13.163 39.619)">
    <ellipse id="Ellipse_61" data-name="Ellipse 61" cx="6.209" cy="6.209" rx="6.209" ry="6.209" transform="translate(45.236 10.644)" fill="#f3f3f1"/>
    <path id="Path_1161" data-name="Path 1161" d="M25.1,32.894a5.05,5.05,0,0,1-4.79-6.645l1.334-4H32.29l-2.4,7.192a5.045,5.045,0,0,1-4.79,3.452Z" transform="translate(29.798 15.003)" fill="#f3f3f1"/>
    <path id="Path_1162" data-name="Path 1162" d="M22.1,32.894a5.05,5.05,0,0,1-4.79-6.645l1.334-4H29.29l-2.4,7.192a5.045,5.045,0,0,1-4.79,3.452Z" transform="translate(22.154 15.003)" fill="#f3f3f1"/>
    <path id="Path_1163" data-name="Path 1163" d="M26.267,22.25l-2.4,7.192a5.052,5.052,0,0,1-9.81-1.011Z" transform="translate(14.533 15.003)" fill="#f3f3f1"/>
    <path id="Path_1164" data-name="Path 1164" d="M43.554,34.811a19.981,19.981,0,0,0-7.419,1.43L26.4,40.133V11.75c-6.649,0-16.405,5.985-20.1,11.516L6,59.647l20.251-2.64a31.809,31.809,0,0,0,11.868-4.215l8.93-5.357a6.8,6.8,0,0,0-3.495-12.623Z" transform="translate(-6 -11.75)" fill="#f3f3f1"/>
  </g>
  <path id="Path_1165" data-name="Path 1165" d="M26.733,20.959A6.166,6.166,0,0,1,28.95,16.24a6.209,6.209,0,1,0,0,9.437A6.166,6.166,0,0,1,26.733,20.959Z" transform="translate(39.648 35.513)" fill="#d5dbe1"/>
  <path id="Path_1166" data-name="Path 1166" d="M14.288,23.266c2.356-3.534,7.192-7.238,12.113-9.462V11.75c-6.649,0-16.405,5.985-20.1,11.516L6,59.647,13.99,58.6Z" transform="translate(7.163 27.869)" fill="#d5dbe1"/>
  <path id="Path_1168" data-name="Path 1168" d="M26.87,31.739a8.87,8.87,0,1,1,8.87-8.87A8.88,8.88,0,0,1,26.87,31.739Zm0-12.418a3.548,3.548,0,1,0,3.548,3.548A3.551,3.551,0,0,0,26.87,19.322Z" transform="translate(37.737 33.602)"/>
  <path id="Path_1169" data-name="Path 1169" d="M14,15.75h7.1v5.322H14Z" transform="translate(27.546 38.061)"/>
  <path id="Path_1170" data-name="Path 1170" d="M25,15.75h7.1v5.322H25Z" transform="translate(55.573 38.061)"/>
  <path id="Path_1171" data-name="Path 1171" d="M68.653,56.123H32.465a2.661,2.661,0,1,1,0-5.322H68.653a4.441,4.441,0,0,0,4.435-4.435V19.757a4.441,4.441,0,0,0-4.435-4.435h-47.9a4.441,4.441,0,0,0-4.435,4.435V44A2.661,2.661,0,1,1,11,44V19.757A9.765,9.765,0,0,1,20.757,10h47.9a9.765,9.765,0,0,1,9.757,9.757V46.366A9.765,9.765,0,0,1,68.653,56.123Z" transform="translate(19.902 23.41)" stroke="#efefef" stroke-width="1"/>
  <path id="Path_1172" data-name="Path 1172" d="M6.688,48.023,5.9,42.761l20.219-3.033a29.031,29.031,0,0,0,10.892-3.864L45.942,30.5a4.133,4.133,0,0,0-2.129-7.678,17.229,17.229,0,0,0-6.432,1.238L20.745,30.716l-1.976-4.942L35.4,19.118A22.548,22.548,0,0,1,43.813,17.5a9.455,9.455,0,0,1,4.864,17.566l-8.93,5.357a34.182,34.182,0,0,1-12.861,4.566Z" transform="translate(6.9 42.52)" stroke="#efefef" stroke-width="1"/>
  <path id="Path_1173" data-name="Path 1173" d="M27.015,37.466A7.709,7.709,0,0,1,19.7,27.319l1.33-4a2.663,2.663,0,0,1,2.523-1.82H34.2a2.663,2.663,0,0,1,2.523,3.505l-2.4,7.192a7.682,7.682,0,0,1-7.309,5.269ZM25.479,26.822,24.751,29a2.351,2.351,0,0,0,.33,2.15,2.474,2.474,0,0,0,4.2-.639l1.228-3.69Z" transform="translate(41.048 52.711)" stroke="#efefef" stroke-width="1"/>
  <path id="Path_1174" data-name="Path 1174" d="M24.015,37.466A7.709,7.709,0,0,1,16.7,27.319l1.33-4a2.663,2.663,0,0,1,2.523-1.82H31.2a2.663,2.663,0,0,1,2.523,3.505l-2.4,7.192a7.682,7.682,0,0,1-7.309,5.269ZM22.479,26.822,21.751,29a2.351,2.351,0,0,0,.33,2.15,2.475,2.475,0,0,0,4.2-.639l1.228-3.69Z" transform="translate(33.404 52.711)" stroke="#efefef" stroke-width="1"/>
  <path id="Path_1175" data-name="Path 1175" d="M20.991,37.465a7.715,7.715,0,0,1-7.663-6.812A2.664,2.664,0,0,1,15.662,27.7a2.694,2.694,0,0,1,2.955,2.331,2.391,2.391,0,0,0,4.641.486l2.4-7.2A2.661,2.661,0,1,1,30.7,25l-2.4,7.192A7.7,7.7,0,0,1,20.991,37.465Z" transform="translate(25.785 52.711)" stroke="#efefef" stroke-width="1"/>
  <path id="Path_1176" data-name="Path 1176" d="M10.138,27.994,5.71,25.043l2.668-4A22.5,22.5,0,0,1,27.139,11H29.8v5.322H27.139a17.2,17.2,0,0,0-14.333,7.671Z" transform="translate(6.424 25.958)" stroke="#efefef" stroke-width="1"/>
</svg>
